<?xml version="1.0" standalone="no"?><!DOCTYPE svg PUBLIC "-//W3C//DTD SVG 1.1//EN" "http://www.w3.org/Graphics/SVG/1.1/DTD/svg11.dtd" ><svg xmlns="http://www.w3.org/2000/svg"><metadata></metadata><defs><font id="AndryushkinArtem,JovannyLemonad: Flow: 2010" horiz-adv-x="1943"><font-face font-family="Flow" font-weight="400" font-stretch="normal" units-per-em="2048" panose-1="2 0 5 6 5 0 0 2 0 4" ascent="1883" descent="-894" x-height="4" bbox="-367 -854 1886 1881" underline-thickness="102" underline-position="-153" unicode-range="U+0000-e000" /><missing-glyph horiz-adv-x="748" d="M68 0 l0 1365 l544 0 l0 -1365 l-544 0 ZM136 68 l408 0 l0 1229 l-408 0 l0 -1229 Z" /><glyph glyph-name=".null" unicode="" d="" /><glyph glyph-name="nonmarkingreturn" unicode="" d="" /><glyph glyph-name="space" unicode=" " d="" /><glyph glyph-name="exclam" unicode="!" d="M88 49 q-19 49 20 75 q39 26 89 19 q57 -7 84.5 -46 q27.5 -39 5 -76.5 q-22.5 -37.5 -89.5 -40.5 q-32 -2 -64 18 q-32 20 -45 51 ZM193 426 q45 172 107 501.5 q62 329.5 99 479.5 q9 39 59 51 q48 11 76 -13 q20 -19 11 -50 q-34 -141 -97 -475 q-63 -334 -110 -510 q-10 -38 -58 -50 q-48 -11 -75 14 q-20 20 -12 52 Z" /><glyph glyph-name="quotedbl" unicode="&quot;" d="M88 1069 q19 56 66 159 q47 103 65 154 q14 43 60 59 q45 15 66 -11 q16 -19 5 -54 q-19 -55 -67.5 -157.5 q-48.5 -102.5 -67.5 -157.5 q-14 -41 -60 -56 q-44 -14 -64 11 q-14 18 -3 53 ZM365 967 q-24 12 -29.5 43 q-5.5 31 4.5 55 q16 57 54.5 167.5 q38.5 110.5 54.5 166.5 q6 25 30.5 39.5 q24.5 14.5 48.5 3.5 q26 -14 31 -46 q5 -32 -6 -57 q-17 -63 -56 -173.5 q-39 -110.5 -53 -155.5 q-6 -28 -30 -42 q-24 -14 -49 -1 Z" /><glyph glyph-name="numbersign" unicode="#" d="M43 492 q-8 39 21 74 q20 24 47 28 q82 10 151 10 q22 98 57 240 q-61 -5 -71 -8 q-8 0 -31 -2 q-23 -2 -35 -2.5 q-12 -0.5 -30 2 q-18 2.5 -31 8.5 q-15 6 -23 19 q-8 13 -8.5 28 q-0.5 15 3.5 31.5 q4 16.5 13.5 30 q9.5 13.5 21.5 23.5 q12 10 27.5 12.5 q15.5 2.5 30.5 -3.5 q13 -8 125 6 q37 5 41 6 q40 183 58 316 q5 41 55 56 q49 13 80 -9 q22 -15 18 -41 q-17 -158 -53 -316 q99 3 192 3 q7 29 32.5 132 q25.5 103 41.5 158 q8 38 59 49 q51 10 80 -16 q20 -18 13 -47 q-41 -164 -66 -279 q33 0 99.5 -1 q66.5 -1 99.5 -1 q43 -2 46 -48 q3 -45 -29 -81 q-23 -23 -48 -24 q-32 2 -67 3 q-35 1 -76 1.5 q-41 0.5 -64 1.5 q-29 -104 -61 -242 q97 3 203 21 q51 11 60 -32 q8 -39 -22 -76 q-19 -24 -45 -29 q-124 -22 -233 -25 q-49 -183 -88 -324 q-10 -40 -62 -50 q-50 -10 -80 16 q-20 19 -14 47 q24 76 84 311 q-29 0 -90 1 q-61 1 -92 1 q-11 -49 -39 -167 q-28 -118 -43 -183 q-6 -35 -47 -45 q-41 -10 -76.5 11 q-35.5 21 -27.5 60 q17 86 75 322 q-5 -1 -51.5 -4.5 q-46.5 -3.5 -69.5 -7.5 q-52 -7 -61 35 ZM416 610 q32 0 94.5 -3 q62.5 -3 91.5 -3 q8 34 31 119 q23 85 33 131 q-31 0 -93.5 -1 q-62.5 -1 -95.5 -1 q-36 -164 -61 -242 Z" /><glyph glyph-name="dollar" unicode="$" d="M-77 152 q-9 16 -2 31.5 q7 15.5 28 29.5 q32 19 72.5 4.5 q40.5 -14.5 56.5 -43.5 l0 -2 q20 -8 28 -12 q7 -4 20 -11.5 q13 -7.5 21 -12 q8 -4.5 19.5 -9.5 q11.5 -5 23.5 -8 q27 -11 66 -17 q51 315 117 609 q-119 107 -174 207 q-55 106 -36.5 215.5 q18.5 109.5 103.5 193.5 q109 106 258 109 q12 39 29 141 q7 40 56 64 q49 25 76 7 q18 -12 13 -42 q-20 -98 -34 -181 q90 -15 176 -53 q41 -18 48 -54 q7 -36 -20 -56 q-27 -20 -69 -2 q-84 41 -156 49 q-65 -279 -123 -561 q8 -6 39 -30.5 q31 -24.5 42.5 -33.5 q11.5 -9 36 -30 q24.5 -21 37.5 -34 q13 -13 29 -31 q16 -18 27 -34 q54 -81 59 -174.5 q5 -93.5 -31 -172 q-36 -78.5 -109 -139 q-73 -60.5 -167 -79.5 q-3 0 -45 -6 q-42 -6 -65 -7 q-2 -29 -10 -84 q-8 -55 -9 -61 q-6 -41 -55 -65 q-47 -23 -74 -5 q-18 12 -14 41 q2 35 11 98.5 q9 63.5 11 86.5 q-78 13 -147 45 q-3 2 -26.5 14 q-23.5 12 -39 21 q-15.5 9 -39.5 24.5 q-24 15.5 -36.5 29.5 q-12.5 14 -21.5 30 ZM311 1102 q-30 -132 90 -252 q43 184 101 455 q-39 -12 -58 -23 q-109 -68 -133 -180 ZM393 102 q101 20 170.5 85 q69.5 65 79.5 165 q5 83 -34.5 142 q-39.5 59 -116.5 118 q-67 -305 -99 -510 Z" /><glyph glyph-name="percent" unicode="%" d="M104 920 q-60 106 -37 232.5 q23 126.5 121 203.5 q40 30 83 53 q43 23 94 39 q51 16 101 8.5 q50 -7.5 89 -41.5 q19 -18 21 -55 q2 -37 -11 -64 q45 4 58 -53 q30 -128 -4.5 -251 q-34.5 -123 -137.5 -191 q-115 -68 -213.5 -33.5 q-98.5 34.5 -163.5 152.5 ZM154 80 q53 135 190 282 q154 171 252 308 q95 133 262.5 383 q167.5 250 237.5 350 q31 44 70 18 q32 -22 37 -64 q3 -30 -13 -50 q-40 -60 -116.5 -176 q-76.5 -116 -124 -187 q-47.5 -71 -114.5 -169 q-67 -98 -126 -179 q-134 -192 -238 -303 q-4 -5 -32.5 -35 q-28.5 -30 -36.5 -39 q-8 -9 -31.5 -35.5 q-23.5 -26.5 -33.5 -41.5 q-10 -15 -26 -38.5 q-16 -23.5 -26.5 -45 q-10.5 -21.5 -18.5 -44.5 q-20 -52 -61 -42 q-33 8 -49 46 q-13 31 -2 62 ZM211 1181.5 q-25 -32.5 -33.5 -76 q-8.5 -43.5 19.5 -87.5 q20 -38 46.5 -63.5 q26.5 -25.5 58 -37.5 q31.5 -12 68 -3.5 q36.5 8.5 72.5 38.5 q103 92 66 252 q-8 34 10 66 q-12 0 -24 12 q-20 17 -49.5 20 q-29.5 3 -61 -7 q-31.5 -10 -58 -23 q-26.5 -13 -49.5 -29 q-40 -29 -65 -61.5 ZM758.5 87 q-46.5 73 -44.5 161.5 q2 88.5 42 167.5 q71 138 194 211 q57 32 118 43.5 q61 11.5 149 17.5 q46 3 57.5 -27.5 q11.5 -30.5 -10.5 -58.5 q3 -1 6 -3 q3 -2 6.5 -5 q3.5 -3 5.5 -4 q45 -57 51 -131 q6 -74 -16.5 -140.5 q-22.5 -66.5 -65.5 -130.5 q-66 -92 -163 -153.5 q-97 -61.5 -193 -40.5 q-90 20 -136.5 93 ZM868 203 q40 -86 93 -84 q41 1 84 28 q43 27 74.5 70 q31.5 43 52 92 q20.5 49 18.5 99.5 q-2 50.5 -29 85.5 q-10 13 -10.5 31.5 q-0.5 18.5 8.5 31.5 q-62 -4 -109 -20 q-47 -16 -88 -52 q-41 -36 -69 -94 q-54 -114 -25 -188 Z" /><glyph glyph-name="ampersand" unicode="&amp;" d="M131 33 q-113 51 -153 157 q-40 106 10 220 q100 239 366 401 q19 13 105 59 q-41 74 -62 160 q-19 82 -12 160 q7 78 54.5 145 q47.5 67 127.5 95 q50 19 114 19 q64 0 124.5 -16 q60.5 -16 108.5 -56.5 q48 -40.5 63 -96.5 q64 -200 -211 -381 q-54 -35 -119 -68 q91 -153 109 -192 q45 -106 112 -213 q19 19 70.5 71.5 q51.5 52.5 89.5 90 q38 37.5 76 71.5 q29 29 82 17 q46 -10 54 -40 q5 -23 -19 -46 q-27 -24 -56.5 -53.5 q-29.5 -29.5 -64 -65.5 q-34.5 -36 -53.5 -55 q-49 -51 -103 -103 q102 -135 180 -221 q35 -37 -2 -68 q-33 -29 -81 -24 q-28 3 -44 20 q-84 90 -166 195 q-388 -324 -700 -182 ZM126.5 347 q-12.5 -44 -12.5 -85 q0 -41 25.5 -74.5 q25.5 -33.5 75.5 -52.5 q117 -45 242.5 -2.5 q125.5 42.5 242.5 135.5 q9 8 29 25.5 q20 17.5 29 25.5 q-38 54 -78 132 q-32 55 -85.5 161.5 q-53.5 106.5 -72.5 141.5 q-6 4 -6 6 q-152 -88 -254 -185 q-25 -27 -49.5 -61.5 q-24.5 -34.5 -49 -78.5 q-24.5 -44 -37 -88 ZM545 1221 q-30 -127 43 -283 q47 26 49 27 q38 24 59 38 q21 14 52.5 40 q31.5 26 51 54.5 q19.5 28.5 27.5 59.5 q24 85 -37.5 136 q-61.5 51 -142 32 q-80.5 -19 -102.5 -104 Z" /><glyph glyph-name="quotesingle" unicode="&#39;" d="M84 1032 q9 57 39 166 q30 109 39 164 q7 45 52 68 q42 21 66 -1 q18 -16 13 -51 q-9 -58 -41 -168 q-32 -110 -41 -166 q-7 -43 -50 -65 q-41 -22 -65 1 q-17 16 -12 52 Z" /><glyph glyph-name="parenleft" unicode="(" d="M63 89 q-36 199 -11 388 q25 189 97 386.5 q72 197.5 168.5 366 q96.5 168.5 217.5 326.5 q31 44 64 13 q29 -28 28 -77 q-1 -29 -15 -48 q-438 -568 -448 -1077 q-4 -216 49 -363 q16 -64 57 -137 q5 -9 14 -26 q9 -17 14.5 -27 q5.5 -10 10 -26 q4.5 -16 4.5 -32 q0 -39 -21 -58 q-21 -19 -47 -12.5 q-26 6.5 -40 33.5 q-106 171 -142 370 Z" /><glyph glyph-name="parenright" unicode=")" d="M-161 -258 q-7 26 18 51 q161 168 265 371 q104 203 146 419.5 q42 216.5 25.5 443.5 q-16.5 227 -92.5 446 q-14 37 18.5 60.5 q32.5 23.5 75.5 17 q43 -6.5 55 -39.5 q139 -401 103 -780 q-61 -574 -480 -1014 q-32 -32 -83 -17 q-43 12 -51 42 Z" /><glyph glyph-name="asterisk" unicode="*" d="M90 1163 q11 29 39.5 43.5 q28.5 14.5 60.5 14.5 q21 2 60.5 4 q39.5 2 42.5 2 q-17 33 -45 73 q-18 30 6.5 71 q24.5 41 60.5 54.5 q36 13.5 60 -10.5 q33 -54 57 -88 q56 68 133 119 q50 36 79 8 q24 -23 8 -62 q-10 -27 -38 -46 q-54 -36 -120 -113 q106 4 157 4 q28 0 42.5 -19 q14.5 -19 4.5 -44 q-16 -28 -46.5 -44 q-30.5 -16 -59.5 -16 l-53 0 q1 -3 15.5 -35.5 q14.5 -32.5 20.5 -50.5 q14 -38 -30 -80 q-40 -39 -77 -34 q-23 2 -32 26 q-53 120 -61 135 q-11 -18 -32.5 -48.5 q-21.5 -30.5 -29.5 -43.5 q-30 -46 -80 -49 q-39 -2 -47 25 q-6 22 19 55 q2 4 59 92 q-129 -6 -135 -6 q-25 -2 -38.5 19 q-13.5 21 -0.5 44 Z" /><glyph glyph-name="plus" unicode="+" d="M63 643.5 q-20 18.5 -21.5 40.5 q-1.5 22 17.5 40.5 q19 18.5 56 18.5 q145 0 346 7 q12 71 53 301 q5 32 25 58.5 q20 26.5 49 35.5 q29 9 49 -4 q20 -13 14 -41 q-10 -57 -30.5 -173.5 q-20.5 -116.5 -30.5 -174.5 q153 6 303 6 q25 0 43.5 -12.5 q18.5 -12.5 24.5 -30 q6 -17.5 3 -34.5 q-3 -17 -21.5 -29.5 q-18.5 -12.5 -47.5 -12.5 q-163 0 -326 -6 q-38 -213 -47 -273 q-6 -31 -26.5 -56.5 q-20.5 -25.5 -51.5 -37.5 q-27 -9 -46 3.5 q-19 12.5 -15 39.5 q2 12 55 318 q-44 0 -132.5 -1 q-88.5 -1 -131.5 -1 l-6 0 l-53 0 q-32 0 -52 18.5 Z" /><glyph glyph-name="comma" unicode="," d="M-35 74 q-21 60 30.5 99.5 q51.5 39.5 110.5 21.5 q74 -20 106 -68.5 q32 -48.5 24 -107.5 q-8 -59 -37 -117 q-29 -58 -72 -103 q-34 -32 -85 -22 q-43 8 -49 38 q-4 23 21 50 q33 33 55.5 75 q22.5 42 18.5 80 l0 5 q-32 -15 -72 -1 q-40 14 -51 50 Z" /><glyph glyph-name="hyphen" unicode="-" d="M42 576 q-1 38 36 72 q27 24 55 24 l488 0 q48 0 48 -39 q1 -38 -36 -72 q-27 -24 -55 -24 l-488 0 q-48 0 -48 39 Z" /><glyph glyph-name="period" unicode="." d="M10 12 q-32 20 -45 57 q-13 37 6 70 q17 26 49.5 35.5 q32.5 9.5 61.5 -0.5 q22 -7 37 -27.5 q15 -20.5 8 -42.5 q17 -13 17 -36.5 q0 -23.5 -17 -40.5 q-23 -23 -56.5 -26.5 q-33.5 -3.5 -60.5 11.5 Z" /><glyph glyph-name="slash" unicode="/" d="M-82 -188 q-27 7 -36 32 q-9 25 5 50 q38 64 175.5 298.5 q137.5 234.5 198 334.5 q60.5 100 172.5 283 q112 183 209 327.5 q97 144.5 198 283.5 q30 41 76 34 q37 -6 45 -36 q6 -27 -15 -57 q-100 -137 -196.5 -281 q-96.5 -144 -201.5 -315 q-105 -171 -171.5 -282 q-66.5 -111 -190 -322.5 q-123.5 -211.5 -172.5 -294.5 q-44 -63 -96 -55 Z" /><glyph glyph-name="zero" unicode="0" d="M115 211 q-69 248 10 520 q108 403 295 592 q131 131 260 131 q62 0 122 -28 q60 -28 104.5 -73.5 q44.5 -45.5 76.5 -98.5 q32 -53 47 -107 q64 -239 -5 -501 q-69 -262 -239 -470 q-82 -98 -193 -152 q-111 -54 -228 -38 q-91 12 -157 72.5 q-66 60.5 -93 152.5 ZM215 575 q-7 -68 -2.5 -153.5 q4.5 -85.5 29.5 -147.5 q38 -102 135 -133.5 q97 -31.5 196 19.5 q166 79 271 352 q74 233 74 485 q0 79 -50.5 165 q-50.5 86 -131 128 q-80.5 42 -179.5 -10 q-56 -33 -98 -91.5 q-42 -58.5 -82 -137.5 q-62 -117 -108 -245.5 q-46 -128.5 -54 -230.5 Z" /><glyph glyph-name="one" unicode="1" d="M-78 45 q-7 26 10 47 q17 21 45 21 l289 0 q93 515 236 1128 q-48 -38 -293 -223 q-44 -32 -67 6 q-22 35 -7 82 q9 28 29 43 q273 197 416 319 q40 33 65 -4 q25 -37 14 -75 q-121 -470 -276 -1276 l166 0 q33 0 60 -15 q27 -15 36 -43 q7 -26 -9 -45.5 q-16 -19.5 -44 -19.5 l-576 0 q-71 0 -94 55 Z" /><glyph glyph-name="two" unicode="2" d="M-80 74 q2 13 8 26 q6 13 12 22 q6 9 18 21.5 q12 12.5 18 18.5 q6 6 21 18.5 q15 12.5 19 16.5 q15 13 67.5 60 q52.5 47 82.5 73 q196 196 278 291 q140 153 232 305 q90 146 94 233 q4 60 -42 105.5 q-46 45.5 -110 58.5 q-144 30 -307 -92 q-37 -29 -68.5 -15 q-31.5 14 -30 47 q1.5 33 35.5 64 q66 51 148.5 84.5 q82.5 33.5 169.5 44.5 q87 11 169.5 -19.5 q82.5 -30.5 136.5 -103.5 q32 -42 40 -94.5 q8 -52.5 -0.5 -99.5 q-8.5 -47 -33 -104.5 q-24.5 -57.5 -47 -96 q-22.5 -38.5 -53.5 -86.5 q-223 -329 -555 -627 q-108 -96 -114 -102 q75 0 114 4 q319 0 479 -4 q48 -1 47 -39 q-1 -36 -38 -67 q-27 -24 -56 -23 q-240 6 -479 0 q-8 0 -49.5 -3 q-41.5 -3 -72.5 -2.5 q-31 0.5 -67.5 6.5 q-36.5 6 -54 26 q-17.5 20 -12.5 53 Z" /><glyph glyph-name="three" unicode="3" d="M-98 142 q11 32 50 44 q33 10 62 -6 q82 -43 175 -56 q93 -13 178 4.5 q85 17.5 153.5 77.5 q68.5 60 97.5 156 q38 142 5 222 q-18 44 -52 72.5 q-34 28.5 -74 38.5 q-40 10 -86 14 q-46 4 -89 0 q-35 -2 -67 27.5 q-32 29.5 -5 60.5 q28 31 111 123.5 q83 92.5 124.5 137.5 q41.5 45 108.5 116.5 q67 71.5 123 128.5 q-50 1 -200.5 7 q-150.5 6 -231.5 7 q-44 1 -64 31.5 q-20 30.5 -2 60 q18 29.5 64 27.5 q45 -1 195 -7 q150 -6 195 -6.5 q45 -0.5 195 0.5 q46 3 69 -29 q23 -32 -9 -67 l-23 -27 q-37 -37 -53 -57 q-24 -27 -75.5 -80 q-51.5 -53 -76.5 -80 q-39 -42 -117.5 -128 q-78.5 -86 -117.5 -128 q90 -11 149 -47 q115 -66 152 -145 q29 -78 27 -156.5 q-2 -78.5 -27 -154.5 q-42 -123 -137 -202.5 q-95 -79.5 -211.5 -105.5 q-116.5 -26 -243 -10.5 q-126.5 15.5 -235.5 72.5 q-50 24 -37 64 Z" /><glyph glyph-name="four" unicode="4" d="M20 451.5 q-19 25.5 -19.5 56 q-0.5 30.5 11.5 53.5 q32 47 76 101 q44 54 74 88.5 q30 34.5 88 98.5 q58 64 80 89 q44 50 136.5 155.5 q92.5 105.5 164 187.5 q71.5 82 135.5 157 q35 34 72 7.5 q37 -26.5 39 -73.5 q3 -12 0 -24 q-73 -337 -148 -754 q62 0 172 -4 q36 -3 55.5 -42 q19.5 -39 8.5 -77 q-11 -38 -50 -37 q-140 8 -215 8 l-75 -381 q-8 -39 -57 -61 q-50 -22 -77 -2 q-18 13 -12 41 q14 68 39.5 203 q25.5 135 38.5 202 q-222 -3 -491 -16 q-27 -2 -46 23.5 ZM217 590 q185 6 369 6 q17 88 49.5 264 q32.5 176 50.5 264 q-157 -177 -276 -315 q-28 -33 -93.5 -105.5 q-65.5 -72.5 -99.5 -113.5 Z" /><glyph glyph-name="five" unicode="5" d="M-33 74 q-17 33 9.5 68.5 q26.5 35.5 62 41.5 q35.5 6 55.5 -22 q9 -14 51 -27 q74 -12 117 -12 q187 0 270 98 q63 75 83.5 200 q20.5 125 -27.5 212 q-31 47 -64.5 73.5 q-33.5 26.5 -79.5 26.5 q-32 -1 -94 -8 q-62 -7 -92 -8 q-21 -2 -36.5 14 q-15.5 16 -14.5 37 q12 90 30 187.5 q18 97.5 43 219.5 q25 122 37 185 q14 59 68 74 q25 22 59 10 q21 -11 51 -15 q30 -4 54 -2.5 q24 1.5 60.5 4.5 q36.5 3 52.5 3 q127 10 231 10 q42 0 45 -43 q4 -44 -28 -81 q-23 -26 -50 -26 q-41 -1 -141 -5.5 q-100 -4.5 -154 -4.5 q-14 0 -39 -1 q-25 -1 -45 -1 q-20 0 -37 2 q-62 -307 -82 -428 q4 0 29.5 3 q25.5 3 33.5 3.5 q8 0.5 29.5 1.5 q21.5 1 34 0.5 q12.5 -0.5 30 -2.5 q17.5 -2 32.5 -6 q60 -15 108 -60.5 q48 -45.5 74 -107.5 q49 -121 22 -274 q-27 -153 -112 -250 q-74 -85 -181.5 -128.5 q-107.5 -43.5 -228.5 -45.5 q-225 0 -266 84 Z" /><glyph glyph-name="six" unicode="6" d="M88 530 q-13 34 4 70 q0 37 2 51 q15 154 144 332 q150 192 340 332 q66 45 108.5 70.5 q42.5 25.5 110 51 q67.5 25.5 125.5 25.5 q43 1 49 -43 q6 -45 -25 -83 q-21 -26 -49 -27 q-41 0 -84 -13.5 q-43 -13.5 -90.5 -43 q-47.5 -29.5 -73.5 -48 q-26 -18.5 -74 -55.5 q-202 -162 -303 -330 q-33 -54 -43 -102 q66 46 133 78 q67 32 140 49.5 q73 17.5 144.5 5.5 q71.5 -12 129.5 -55 q73 -56 103.5 -154.5 q30.5 -98.5 19.5 -200 q-11 -101.5 -54.5 -198 q-43.5 -96.5 -109.5 -152.5 q-54 -48 -123 -79 q-69 -31 -145 -39.5 q-76 -8.5 -145 18.5 q-82 35 -133.5 111.5 q-51.5 76.5 -71.5 172.5 q-29 125 -29 256 ZM209 535 q4 -234 94 -345 q67 -72 179.5 -66.5 q112.5 5.5 185.5 71.5 q59 59 86 143.5 q27 84.5 18 169.5 q-9 89 -54.5 135 q-45.5 46 -108 50 q-62.5 4 -137.5 -16.5 q-75 -20.5 -142 -56 q-67 -35.5 -121 -77.5 l0 -8 Z" /><glyph glyph-name="seven" unicode="7" d="M10 102 q78 134 225.5 379 q147.5 245 196.5 328 q65 104 217 360 q13 20 41 68.5 q28 48.5 43 71.5 q-54 -1 -155.5 -3.5 q-101.5 -2.5 -152.5 -3 q-51 -0.5 -157 0.5 q-67 3 -89 17 q-18 11 -25 30 q-19 38 24.5 64.5 q43.5 26.5 87.5 12.5 l8 0 q441 -19 641 23 q27 5 51 -11.5 q24 -16.5 23 -43.5 q0 -17 -18 -39 q-5 -23 -21 -31 q-29 -20 -57 -54 q-28 -34 -44 -61 q-16 -27 -41.5 -74 q-25.5 -47 -35.5 -65 q-36 -60 -106.5 -176.5 q-70.5 -116.5 -106.5 -175.5 q-26 -43 -180.5 -297.5 q-154.5 -254.5 -235.5 -390.5 q-22 -28 -60.5 -26.5 q-38.5 1.5 -66 32.5 q-27.5 31 -6.5 65 Z" /><glyph glyph-name="eight" unicode="8" d="M70 146.5 q-30 70.5 -27.5 144.5 q2.5 74 31.5 147 q16 41 45 79.5 q29 38.5 56.5 65 q27.5 26.5 73.5 57.5 q46 31 74 47.5 q28 16.5 80 45.5 q-81 81 -129 180 q-74 158 -38 277 q37 110 159 194 q216 144 402 54 q95 -47 133 -131 q38 -84 10 -185 q-2 -9 -10 -22 q5 -19 2 -25 q-20 -112 -90 -193 q-70 -81 -183 -151 q70 -58 111.5 -110 q41.5 -52 52.5 -117 q25 -116 -7 -238 q-32 -122 -120 -190 q-72 -53 -164.5 -83 q-92.5 -30 -194.5 -24 q-102 6 -175 60 q-62 47 -92 117.5 ZM199 432 q-32 -48 -31.5 -121.5 q0.5 -73.5 37.5 -113.5 q46 -52 121 -69 q75 -17 153 -5 q184 38 213 143 q18 53 14 124.5 q-4 71.5 -38 117.5 q-13 15 -28 29.5 q-15 14.5 -33 29.5 q-18 15 -29.5 24 q-11.5 9 -34.5 26.5 q-23 17.5 -31 23.5 q-24 -10 -64.5 -31.5 q-40.5 -21.5 -52.5 -27.5 q-3 -2 -26 -15 q-23 -13 -28.5 -16.5 q-5.5 -3.5 -25.5 -16 q-20 -12.5 -28 -18.5 q-8 -6 -24 -18 q-16 -12 -25 -21 q-9 -9 -20 -21 q-11 -12 -19 -24 ZM356 1176 q-24 -58 13.5 -135.5 q37.5 -77.5 93.5 -147.5 q47 -50 92 -80 q231 114 252 238 q0 2 12 43 q-4 21 4 45 q11 41 -3.5 76 q-14.5 35 -45.5 56 q-31 21 -71.5 36 q-40.5 15 -81 15.5 q-40.5 0.5 -74.5 -5.5 q-56 -15 -113.5 -54.5 q-57.5 -39.5 -77.5 -86.5 Z" /><glyph glyph-name="nine" unicode="9" d="M87 86 q10 21 40 31 q498 147 627 553 q-361 -180 -525 37 q-78 105 -87.5 272 q-9.5 167 57.5 278 q49 81 134 121.5 q85 40.5 187 42.5 q123 0 215.5 -17 q92.5 -17 159.5 -73 q103 -94 92 -293 q-20 -253 -98 -452 q-88 -226 -266 -366.5 q-178 -140.5 -435 -219.5 q-47 -14 -83 23 q-32 31 -18 63 ZM303 952 q1 -3 4.5 -27.5 q3.5 -24.5 5 -33 q1.5 -8.5 6 -30 q4.5 -21.5 8.5 -33 q4 -11.5 10.5 -28 q6.5 -16.5 15 -28.5 q8.5 -12 18.5 -22 q32 -32 77 -39 q45 -7 85 2 q40 9 91.5 35 q51.5 26 81.5 45.5 q30 19.5 70 48.5 q22 9 27 10 q36 154 31 260 q-4 153 -117 176 q-267 56 -357 -57 q-75 -105 -57 -279 Z" /><glyph glyph-name="colon" unicode=":" d="M90 10 q-30 18 -42.5 54 q-12.5 36 5.5 67 q17 24 46.5 32.5 q29.5 8.5 58.5 0.5 q22 -6 36 -25.5 q14 -19.5 7 -40.5 q15 -13 15 -35.5 q0 -22.5 -15 -37.5 q-21 -21 -53 -25 q-32 -4 -58 10 ZM219 881 q1 9 6 26.5 q5 17.5 6 26.5 q0 1 1 5 q1 4 1 5 l0 6 q-3 17 23 43 q25 25 55 25 q33 4 51 -8 q17 -11 25 -39 q1 -7 0 -15 q-1 -8 -3 -18 q-2 -10 -3 -14 q-6 -18 -6 -19 q-12 -61 -80 -71 q-30 -4 -53 8 q-23 23 -23 39 Z" /><glyph glyph-name="semicolon" unicode=";" d="M23 -195 q-22 15 -21.5 43 q0.5 28 18.5 50 q44 48 54 67 q4 11 18 35 q-35 -12 -57 2 q-24 16 -22.5 42 q1.5 26 18.5 48 q28 35 68 49 q40 14 83 -4 q57 -28 54 -100 q-10 -96 -111 -201 q-59 -54 -102 -31 ZM268 852 q-23 14 -33.5 45.5 q-10.5 31.5 1.5 58.5 q4 18 10 25 q0 23 2 33 q9 26 34.5 35.5 q25.5 9.5 45.5 -5.5 q29 -23 39.5 -56.5 q10.5 -33.5 -0.5 -67.5 q-2 -5 -8 -18 q-6 -13 -9 -19 q0 -2 -2 -4 q-10 -26 -31 -35 q-19 -9 -49 8 Z" /><glyph glyph-name="less" unicode="&lt;" d="M55 606 q-10 13 -13.5 30 q-3.5 17 13.5 32 q79 77 188 145.5 q109 68.5 203.5 112.5 q94.5 44 212.5 106.5 q118 62.5 201 120.5 q38 27 87 5 q40 -19 42 -50 q1 -25 -28 -45 q-74 -55 -178 -110 q-104 -55 -190 -94 q-86 -39 -187.5 -96 q-101.5 -57 -174.5 -118 q101 -55 302.5 -136 q201.5 -81 283.5 -122 q48 -24 29 -64 q-16 -33 -57 -43 q-31 -8 -58 5 q-79 40 -308.5 134 q-229.5 94 -342.5 165 q-15 9 -25 22 Z" /><glyph glyph-name="equal" unicode="=" d="M44 493 q-8 45 44 78 q25 15 58 17.5 q33 2.5 58.5 -1.5 q25.5 -4 57.5 1 q96 14 192.5 17.5 q96.5 3.5 241.5 0 q145 -3.5 187 -3.5 q27 0 41.5 -20 q14.5 -20 1.5 -47 q-14 -28 -44 -43 q-30 -15 -61 -15 q-25 1 -104 3.5 q-79 2.5 -116.5 3 q-37.5 0.5 -99.5 0.5 q-62 0 -114 -3 q-20 -2 -58 -7 q-38 -5 -69 -8 q-31 -3 -57 -3 q-56 -49 -112 -25 q-41 16 -47 55 ZM122 865 q-13 35 15 62 q22 21 60 21 q164 0 253.5 1 q89.5 1 229 8.5 q139.5 7.5 256.5 21.5 q46 6 74 -33 q25 -35 4 -64 q-14 -20 -49 -24 q-278 -31 -781 -31 q-48 0 -62 38 Z" /><glyph glyph-name="greater" unicode="&gt;" d="M43 345 q7 24 37 40 q106 53 225 104 q119 51 272.5 112.5 q153.5 61.5 227.5 92.5 q-118 51 -327 155 q-209 104 -290 142 q-47 22 -33 63 q12 34 50 47 q32 11 61 -3 q82 -38 230.5 -113 q148.5 -75 272 -132.5 q123.5 -57.5 237.5 -100.5 q21 -7 31.5 -27 q10.5 -20 3.5 -42 q-7 -22 -35 -34 q-107 -48 -399 -165 q-292 -117 -447 -195 q-43 -23 -86 3 q-37 22 -31 53 Z" /><glyph glyph-name="question" unicode="?" d="M86 55 q-6 19 6 54 q19 42 64 59 q45 17 80 -16 q31 -40 18 -84 q-6 -28 -31.5 -48 q-25.5 -20 -54.5 -22 q-32 0 -43 16 q-1 1 -8 15 q-23 10 -31 26 ZM147 1346 q0 45 41 79.5 q41 34.5 101 51.5 q60 17 115.5 25.5 q55.5 8.5 95.5 6.5 q76 -3 142.5 -33.5 q66.5 -30.5 111 -90 q44.5 -59.5 45.5 -136.5 q6 -108 -43 -214 q-49 -106 -131 -199 q-30 -33 -93.5 -94.5 q-63.5 -61.5 -104 -103.5 q-40.5 -42 -79.5 -106 q-39 -64 -49 -126 q-12 -53 -54 -50 q-35 3 -57 40 q-16 28 -10 59 q14 76 52.5 146 q38.5 70 90.5 128 q52 58 105 111.5 q53 53.5 109 118.5 q56 65 90 126 q23 42 35.5 80.5 q12.5 38.5 14 79.5 q1.5 41 -25.5 69.5 q-27 28.5 -82 37.5 q-154 18 -291 -58 q-3 -19 -16 -28.5 q-13 -9.5 -33 -5.5 q-10 0 -14 2 q-28 6 -47 30.5 q-19 24.5 -19 53.5 Z" /><glyph glyph-name="at" unicode="@" d="M135 756 q38 138 98.5 253 q60.5 115 158.5 213 q98 98 222 152 q110 48 246 72 q9 1 50.5 8.5 q41.5 7.5 55 9.5 q13.5 2 49.5 7 q36 5 55.5 6 q19.5 1 49 3 q29.5 2 55 1 q25.5 -1 50.5 -4 q197 -22 351.5 -129 q154.5 -107 240.5 -283 q122 -233 69 -502 q-18 -101 -55.5 -188 q-37.5 -87 -95.5 -160.5 q-58 -73.5 -143 -120 q-85 -46.5 -189 -55.5 q-77 -4 -135.5 4.5 q-58.5 8.5 -100.5 42.5 q-41 37 -45 109 q-62 -51 -132.5 -87.5 q-70.5 -36.5 -145 -54 q-74.5 -17.5 -141 7 q-66.5 24.5 -105.5 95.5 q-73 138 -16 393 q16 70 30 117 q14 47 43.5 107 q29.5 60 67.5 97 q84 84 187 122 q103 38 212.5 18 q109.5 -20 196.5 -101 q33 3 60.5 -13.5 q27.5 -16.5 27.5 -45.5 q-4 -73 -10 -107 q0 -1 -1 -7 q-1 -6 -1 -11 q-1 -8 -6.5 -25 q-5.5 -17 -6.5 -22 q0 -1 -2 -3.5 q-2 -2.5 -2 -4.5 q-6 -24 -27.5 -101.5 q-21.5 -77.5 -29.5 -122.5 q-15 -58 -31 -170 q-16 -77 -8 -100 q7 -22 51 -23.5 q44 -1.5 79.5 6.5 q35.5 8 66.5 17 q86 44 139 111 q83 111 117 266.5 q34 155.5 4 290.5 q-40 166 -134 296.5 q-94 130.5 -239 184.5 q-66 26 -140.5 33 q-74.5 7 -134 1 q-59.5 -6 -141.5 -22 q-144 -20 -205 -43 q-135 -49 -239 -153 q-104 -104 -162.5 -236.5 q-58.5 -132.5 -85 -277 q-26.5 -144.5 -18.5 -287.5 q7 -127 50.5 -241 q43.5 -114 129.5 -191 q122 -107 291 -144 q101 -31 233 -34 q19 0 68 -2.5 q49 -2.5 77 -3 q28 -0.5 67.5 3.5 q39.5 4 68.5 14 q27 10 57.5 5 q30.5 -5 48.5 -26 q18 -24 7 -49 q-11 -25 -38 -34 q-139 -45 -401 -21 q-162 7 -293 49 q-244 77 -370 240 q-243 312 -101 850 ZM713 343 q0 -10 0 -29.5 q0 -19.5 2 -31 q2 -11.5 5 -28 q3 -16.5 7.5 -27.5 q4.5 -11 11 -22.5 q6.5 -11.5 15.5 -20.5 q14 -16 37.5 -18.5 q23.5 -2.5 51 7 q27.5 9.5 56 24 q28.5 14.5 55.5 34 q27 19.5 46.5 35 q19.5 15.5 33.5 27.5 q62 60 113 186 q16 48 76 203 q9 31 18 127 q-25 10 -31 16 q-126 120 -260 54 q-100 -55 -135 -123 q-76 -158 -92 -301 q0 -3 -2.5 -24 q-2.5 -21 -3 -28 q-0.5 -7 -2.5 -28.5 q-2 -21.5 -2 -31.5 Z" /><glyph glyph-name="A" unicode="a" d="M-58 34 q-3 10 -3 21 q0 21 12 41 q33 59 98 175.5 q65 116.5 98 174.5 q-2 9 -2 17 q0 33 37 43 q376 659 490 872 q1 28 15 42 q14 14 34 14 q8 2 15 2 q18 0 36 -17 q21 -21 21 -51 q0 -4 0 -8 l0 -4 q14 -384 92 -809 l6 0 q33 2 60.5 -10 q27.5 -12 37.5 -39 q5 -11 5 -21 q0 -13 -9 -25 q-16 -22 -43 -24 q-6 0 -17.5 -1 q-11.5 -1 -17.5 -1 q27 -132 76 -334 q5 -16 5 -29 q0 -24 -16 -42 q-24 -27 -57 -17 q-33 10 -45 55 q-47 182 -82 361 q-28 0 -128 -0.5 q-100 -0.5 -145 -1.5 q-45 -1 -120.5 -7 q-75.5 -6 -136.5 -18 q-39 -67 -109 -190.5 q-70 -123.5 -100 -175.5 q-22 -40 -53 -40 q-7 0 -14 2 q-31 9 -40 45 ZM336 530 q64 5 128.5 7.5 q64.5 2.5 170 3 q105.5 0.5 129.5 0.5 q-57 312 -80 608 q-142 -258 -348 -619 Z" /><glyph glyph-name="B" unicode="b" d="M45 80 q68 229 138.5 666 q70.5 437 113.5 614 q7 29 43 42 q20 7 40 7 q15 0 30 -4 q84 36 184 45 q28 3 56 2 q70 0 136 -16 q92 -23 165 -71.5 q73 -48.5 109 -134.5 q24 -58 25 -126 q0 -34 -6 -70 q-36 -197 -270 -286 q67 -34 106 -76 q53 -58 69 -136 q8 -41 9 -81 q1 -36 -7 -72 q-14 -75 -52 -145 q-29 -57 -73.5 -100.5 q-44.5 -43.5 -93 -70.5 q-48.5 -27 -112 -44.5 q-63.5 -17.5 -119.5 -25.5 q-54 -8 -126 -10 q-48 -1 -87 -1 q-19 0 -37 0 q-52 1 -121 4 q-31 1 -46 2 q-33 3 -45 28 q-31 16 -31 44 q0 8 2 16 ZM221 145 q48 -2 92 -1 q182 0 295 26 q160 36 213 125 q29 47 43 93 q9 29 9 59 q1 17 -3 37 q-8 52 -53 85 q-43 32 -106.5 53 q-63.5 21 -105.5 27.5 q-42 6.5 -120 16.5 q-13 3 -28 14 q-75 -3 -127 -6 q-62 -353 -109 -529 ZM348 795 q68 4 98 8 q19 23 50 20 q8 -1 28 -4 q20 -3 31 -4 q48 8 74 16 q229 51 280 177 q17 49 17 99 q0 13 -2 27 q-6 64 -45.5 118 q-39.5 54 -102.5 71 q-48 12 -101 12 q-36 1 -75 -5 q-95 -14 -166 -60 q-24 -105 -86 -475 Z" /><glyph glyph-name="C" unicode="c" d="M90 430 q-8 60 -8 116 q0 76 14 146 q74 391 275 580 q97 90 219 132 q114 39 229 39 l17 0 q122 -3 256 -42 q35 -10 35 -37 q0 -10 -5 -21 q-14 -37 -56 -58 q-31 -16 -58 -7 q-82 23 -158 30 q-32 3 -65 3 q-44 1 -89 -5 q-78 -10 -147.5 -48 q-69.5 -38 -120.5 -103 q-78 -97 -126 -223.5 q-48 -126.5 -62 -257.5 q-8 -63 -8 -120 q0 -172 77 -286 q101 -148 328 -148 q94 0 209 25 q27 5 48.5 -11.5 q21.5 -16.5 18.5 -43.5 q-3 -29 -25.5 -48 q-22.5 -19 -53.5 -26 q-94 -20 -181 -25 q-25 -1 -50 -1 q-63 0 -129 8 q-92 12 -171 59.5 q-79 47.5 -129 126.5 q-66 105 -84 246 Z" /><glyph glyph-name="D" unicode="d" d="M42 54 q8 44 48 75 q-10 17 -4 47 q76 461 203 1081 q-26 10 -26 48 q1 7 1 13 q4 50 41 73 q73 45 165 57 q79 11 179 10 q16 0 33 0 q116 -4 199 -23 q83 -19 145 -75 q67 -59 106.5 -141.5 q39.5 -82.5 49.5 -172.5 q6 -50 6 -101 q0 -40 -4 -79 q-8 -89 -33 -176 q-119 -401 -377 -571 q-202 -135 -481 -135 q-102 0 -215 18 q-37 7 -37 40 q0 5 1 12 ZM193 135 q71 -9 137 -9 q240 0 407 118 q203 141 285 442 q19 70 27 140 q6 49 6 102 q1 23 -1 46 q-4 77 -34 146 q-30 69 -86 113 q-56 45 -125 61.5 q-69 16.5 -160 18.5 q-7 0 -31 0 q-24 0 -34.5 0 q-10.5 0 -32.5 -0.5 q-22 -0.5 -36.5 -1.5 q-14.5 -1 -33.5 -3 q-19 -2 -36 -5 q-17 -3 -33 -7 q2 -15 -2 -36 q-125 -600 -205 -1098 q-6 -15 -12 -27 Z" /><glyph glyph-name="E" unicode="e" d="M86 40 q-4 11 -4 22 q0 15 8 28 q5 8 16 16 q32 93 133 661.5 q101 568.5 99 598.5 q3 25 27 45.5 q24 20.5 53 26.5 q12 6 28 6 q400 0 601 4 q2 0 5 0 q46 0 46 -39 q0 -37 -35 -69 q-27 -24 -55 -25 q-267 -6 -535 -6 q-49 -320 -82 -500 q127 -1 151.5 -1 q24.5 0 151 6 q126.5 6 150.5 7 q1 0 2 0 q49 0 71 -39 q10 -16 10 -31 q0 -17 -13 -31 q-17 -19 -52 -20 q-52 -1 -164 -6.5 q-112 -5.5 -164 -6.5 q-10 0 -23 0 q-51 0 -140 3 q-53 -282 -117 -561 q-2 -2 -2 -6 q88 -11 192 -11 q104 0 181 5 q77 5 196 16 q6 0 11 0 q38 1 54 -25 q9 -15 10 -30 q0 -16 -10 -32 q-19 -32 -63 -36 q-137 -13 -238 -19 q-64 -4 -137 -4 q-42 -1 -88 1 q-124 4 -237 22 q-28 4 -37 30 Z" /><glyph glyph-name="F" unicode="f" d="M84 63 q46 271 125 613 q-20 21 -16 46 q4 25 34 34 q104 452 127 553 q-10 24 -8.5 53 q1.5 29 19.5 53.5 q18 24.5 45 24.5 l696 0 q38 0 50 -40 q5 -16 5 -31 q1 -24 -11 -49 q-18 -40 -56 -40 l-582 0 q-54 -239 -121 -516 q51 1 214 4.5 q163 3.5 251 3.5 q50 0 75 -40 q12 -18 11.5 -34 q-0.5 -16 -11.5 -28 q-16 -18 -52 -19 q-98 0 -279 -3.5 q-181 -3.5 -238 -4.5 q-78 -337 -122 -610 q-7 -35 -48 -43 q-10 -2 -21 -2 q-31 0 -57 16 q-31 19 -31 49 q0 5 1 10 Z" /><glyph glyph-name="G" unicode="g" d="M82 568 q1 116 27 237 q33 146 103 276 q70 130 173 215 q197 164 466 164 q120 0 255 -33 q36 -8 36 -50 q0 -38 -28 -71 q-23 -28 -51 -28 q-7 0 -14 2 q-107 26 -207 30 q-12 0 -24 0 q-89 0 -181 -26 q-105 -29 -182 -96 q-163 -141 -219 -363 q-16 -71 -24 -139 q-5 -54 -5 -112 q0 -15 0 -31 q2 -75 23 -145 q21 -70 61 -124 q80 -101 225 -139 q42 -10 83 -10 q136 0 257 113 q24 140 84 358 q-16 -3 -62 -3 q-17 0 -38 1 q-48 0 -75 0 q-18 0 -28 0 q-2 0 -4 0 q-38 0 -45 43 q-1 9 -1 17 q0 35 24 66 q22 27 51 28 q9 0 21 0 q25 0 60 -1 q35 -1 66 -1 q16 0 31 0 q43 1 80 8 q8 2 16 2 q28 0 39 -25 q8 -18 8 -40 q0 -15 -4 -32 q-92 -332 -127 -565 q-5 -34 -30 -54 q-25 -20 -51.5 -15.5 q-26.5 4.5 -36.5 32.5 q-120 -84 -260 -84 q-32 0 -64 4 q-76 9 -154.5 48.5 q-78.5 39.5 -128.5 95.5 q-76 86 -111 208 q-35 117 -35 229 q0 5 1 10 Z" /><glyph glyph-name="H" unicode="h" d="M86 86 q67 291 131 606 q-22 19 -29 53 q-7 34 8 61.5 q15 27.5 48 27.5 l2 0 q57 308 114 565 q5 25 29 42 q15 11 31 11 q9 0 18 -4 q27 -14 34.5 -45.5 q7.5 -31.5 -1.5 -54.5 q-26 -121 -106 -514 q232 -2 405.5 -2 q173.5 0 288.5 2 l10 0 q59 298 94 501 q5 32 24.5 56 q19.5 24 49.5 30 q27 5 47 -11 q17 -14 17 -35 q0 -4 -1 -9 q-85 -478 -249 -1303 q-10 -43 -53 -60 q-16 -6 -29 -6 q-22 0 -37 16 q-20 19 -12 57 q81 405 118 610 q-87 -2 -263 -2 q-176 0 -441 2 q-83 -420 -135 -645 q-8 -27 -31 -43 q-14 -10 -29 -10 q-9 0 -18 4 q-38 19 -38 69 q0 14 3 31 Z" /><glyph glyph-name="I" unicode="i" d="M84 72 q129 544 258 1304 q6 35 47 49 q19 7 37 7 q21 0 41 -9 q32 -14 32 -45 q0 -5 -1 -10 q-118 -716 -260 -1307 q-8 -39 -60 -50 q-15 -3 -29 -3 q-30 0 -51 17 q-16 14 -16 33 q0 7 2 14 Z" /><glyph glyph-name="J" unicode="j" d="M-76 53 q-5 14 -5 28 q0 15 5 30 q7 26 29.5 39.5 q22.5 13.5 46.5 -3.5 q35 -27 68 -27 q94 0 171 218 q29 84 64 235 q41 159 93.5 454.5 q52.5 295.5 74.5 399.5 q5 27 29 39 q12 7 24 7 q12 0 25 -7 q24 -17 33 -47 q4 -15 4 -31 q0 -14 -4 -28 q-6 -27 -24 -143 q-82 -515 -163 -786 q-141 -471 -321 -471 q-57 0 -117 46 q-24 19 -33 47 Z" /><glyph glyph-name="K" unicode="k" d="M43 61 q114 435 172 723 q6 32 29 137.5 q23 105.5 32.5 155.5 q9.5 50 22 133 q12.5 83 16.5 152 q3 38 43 56 q24 10 47 10 q17 0 33 -6 q36 -12 35 -43 q0 -2 0 -5 q-3 -53 -9 -108 q-6 -55 -17.5 -119 q-11.5 -64 -19 -103.5 q-7.5 -39.5 -24 -118.5 q-16.5 -79 -22.5 -106 q192 110 365 280.5 q173 170.5 315 373.5 q18 26 36 26 q13 0 27 -13 q30 -28 31 -78 q-1 -30 -14 -50 q-269 -381 -596 -606 q42 -36 86.5 -95.5 q44.5 -59.5 62.5 -90.5 q18 -31 64 -109 q91 -155 203 -371 q9 -16 9 -30 q0 -25 -28 -41 q-24 -15 -50 -15 q-16 0 -32 6 q-27 10 -39 31 q-20 37 -59 110.5 q-39 73.5 -70.5 132 q-31.5 58.5 -60.5 109.5 q-10 16 -34.5 58 q-24.5 42 -39.5 64.5 q-15 22.5 -37.5 56.5 q-22.5 34 -45.5 60 q-23 26 -48 48 q-17 -8 -72 -39 q-8 -4 -12 -4 q-55 -253 -143 -592 q-9 -35 -52 -45 q-15 -4 -30 -4 q-26 0 -48 12 q-28 15 -28 42 q0 7 2 15 Z" /><glyph glyph-name="L" unicode="l" d="M45 68 q7 27 47 47 q53 141 98 315 q45 174 70 299 q25 125 63 334 q38 209 58 309 q9 40 55 58 q21 9 38 9 q20 0 34 -12 q19 -17 12 -51 q-20 -101 -58 -308 q-38 -207 -63 -332.5 q-25 -125.5 -70 -299 q-45 -173.5 -96 -313.5 q72 0 203.5 1 q131.5 1 239 1 q107.5 0 203.5 -2 q27 0 43 -21 q11 -14 11 -29 q0 -9 -3 -18 q-8 -29 -35 -43 q-24 -12 -51 -12 q-4 0 -8 0 q0 2 -208 2 q-69 0 -161 0 l-369 -2 q-26 0 -44 21 q-12 14 -12 30 q0 8 3 17 Z" /><glyph glyph-name="M" unicode="m" d="M84 41 q163 697 278 1341 q6 29 35 48 q13 22 34 36 q15 9 29 10 q8 0 14 -2 q22 -6 30 -36 q0 -2 2 -4 q15 -15 12 -39 q47 -142 122.5 -424 q75.5 -282 119.5 -416 q87 114 226 275.5 q139 161.5 261.5 311.5 q122.5 150 212.5 285 q28 35 53.5 24 q25.5 -11 38.5 -50 q30 -12 30 -41 q0 -5 -1 -10 q-15 -164 -47 -357.5 q-32 -193.5 -59.5 -325 q-27.5 -131.5 -78.5 -361 q-51 -229.5 -73 -331.5 q-7 -39 -59 -53 q-18 -5 -34 -5 q-27 0 -46 15 q-21 16 -15 45 q17 80 76.5 345 q59.5 265 93.5 440.5 q34 175.5 58 347.5 q-89 -116 -302.5 -363 q-213.5 -247 -316.5 -387 q-20 -28 -41 -27 q-21 1 -37 23 q-17 6 -26 33 q-37 106 -72 226.5 q-35 120.5 -74 266.5 q-39 146 -63 228 q-90 -483 -225 -1059 q-9 -40 -62 -57 q-22 -7 -40 -7 q-24 0 -41 13 q-14 11 -14 29 q0 6 1 12 Z" /><glyph glyph-name="N" unicode="n" d="M84 88 q112 686 256 1315 q12 45 45 56 q10 3 18 3 q22 0 39 -19 q17 -20 17 -49 q0 -11 -2 -24 q-4 -12 -4 -16 l0 -4 q87 -172 250 -535.5 q163 -363.5 255 -544.5 q160 662 234 1100 q9 51 46 51 q0 0 1 0 q34 -1 58 -38 q15 -23 15 -47 q0 -7 -1 -15 q-82 -481 -279 -1290 q-12 -50 -51 -50 q-2 0 -4 0 q-36 4 -57 40 q-16 28 -9 57 q1 3 2 8.5 q1 5.5 2 7.5 q-108 202 -283.5 590 q-175.5 388 -221.5 483 q-129 -587 -203 -1071 q-5 -31 -21.5 -55 q-16.5 -24 -44.5 -27 q-28 -1 -44 23 q-13 20 -13 43 q0 4 0 8 Z" /><glyph glyph-name="O" unicode="o" d="M82 592 l0 18 q0 76 7.5 150.5 q7.5 74.5 24 156 q16.5 81.5 47.5 155 q31 73.5 73.5 139.5 q42.5 66 106.5 117.5 q64 51.5 142 80.5 q64 28 126.5 46.5 q62.5 18.5 134.5 25.5 q29 3 57 3 q39 0 75 -6 q62 -10 120.5 -46 q58.5 -36 97.5 -97 q56 -87 86 -201 q29 -112 29 -220 q0 -111 -19 -224 q-30 -152 -118 -293 q-88 -141 -212 -247 q-41 -36 -84 -66.5 q-43 -30.5 -97 -60 q-54 -29.5 -105.5 -43.5 q-51.5 -14 -109.5 -17 q-7 0 -14 0 q-50 0 -94 19 q-269 104 -274 610 ZM199 580 q5 -142 43 -256 q51 -160 155 -191 q35 -13 72 -12 q17 -1 33 1 q56 8 102.5 25 q46.5 17 96.5 50.5 q50 33.5 88.5 66.5 q38.5 33 76.5 72 q217 233 217 544 q0 28 -2 56 q-13 262 -137 346 q-47 30 -102 42 q-32 7 -64 7 q-24 1 -49 -3 q-58 -8 -107 -24 q-49 -16 -106 -40 q-92 -51 -149.5 -105 q-57.5 -54 -94.5 -131 q-37 -77 -55 -188 q-19 -97 -19 -210 q0 -25 1 -50 Z" /><glyph glyph-name="P" unicode="p" d="M84 -33 q53 231 139 645 q-21 7 -57 23 q-26 12 -28.5 38.5 q-2.5 26.5 18.5 43.5 q24 26 62 26 q15 0 32 -4 q79 392 127 643 q-4 23 6 39 q5 25 6 29 q7 32 41 50 q25 13 49 14 q9 0 19 -2 q34 -7 39 -37 q97 15 182 15 q243 0 377 -122 q55 -50 82 -118 q25 -63 25 -128 q0 -5 0 -10 q-2 -71 -29 -141 q-47 -123 -143.5 -218 q-96.5 -95 -221.5 -145 q-130 -55 -275 -55 q-83 0 -172 18 q-65 -321 -131 -604 q-9 -38 -57 -55 q-20 -7 -37 -7 q-24 0 -40 14 q-15 12 -15 32 q0 8 2 16 ZM389 694 q78 -14 155 -16 q5 0 10 1 q72 0 142 20 q76 22 139.5 59 q63.5 37 113 98.5 q49.5 61.5 75.5 140.5 q20 57 22 109 q0 6 0 11 q0 47 -19 92 q-21 51 -66 87 q-95 75 -260 75 q-83 0 -183 -19 q-69 -370 -129 -658 Z" /><glyph glyph-name="Q" unicode="q" d="M92 639 q14 148 58 309 q-20 24 -17 58 q4 77 36 143.5 q32 66.5 82 115.5 q50 49 116 86.5 q66 37.5 135.5 60 q69.5 22.5 142.5 32.5 q62 9 117 9 q138 0 239 -56 q88 -51 139.5 -156 q51.5 -105 73.5 -231 q13 -90 13 -180 q0 -87 -17 -178 q-18 -94 -48.5 -179.5 q-30.5 -85.5 -81 -164 q-50.5 -78.5 -115.5 -136.5 q112 -78 229 -78 q7 0 14 0 q1 0 2 0 q48 0 51 -40 q0 -4 0 -8 q0 -35 -30 -65 q-25 -23 -53 -24 q-9 0 -18 0 q-186 0 -331 117 l-2 4 q-80 -40 -168.5 -62.5 q-88.5 -22.5 -179.5 -23.5 q-2 0 -5 0 q-88 0 -168 36 q-82 38 -134 113 q-89 123 -89 347 q0 70 9 151 ZM203 535 q0 -20 0 -38 q0 -26 1 -47 q1 -34 9 -81.5 q8 -47.5 23.5 -80 q15.5 -32.5 45.5 -63.5 q30 -31 72 -47 q79 -32 162 -32 q94 0 193 40 q-15 12 -39 41 q-5 5 -19 19.5 q-14 14.5 -18.5 18.5 q-4.5 4 -16 13.5 q-11.5 9.5 -18.5 10 q-7 0.5 -18.5 2 q-11.5 1.5 -23.5 -3 q-12 -4.5 -26 -13.5 q-24 -14 -42 -14 q-21 0 -34 18 q-13 16 -13 36 q0 16 9 34 q12 26 37 41 q80 45 137 45 q33 0 58 -14 q19 -9 40 -25.5 q21 -16.5 34 -30 q13 -13.5 35 -36.5 q22 -23 32 -33 q4 -4 14.5 -12.5 q10.5 -8.5 14.5 -12.5 q108 83 170 203 q42 88 65 182 q24 96 24 199 q0 100 -28 188 q-37 112 -89.5 173 q-52.5 61 -151.5 75 q-46 6 -91 6 q-155 0 -294 -67 q-63 -25 -103 -60 q0 -13 -6 -28 q-139 -312 -145 -606 Z" /><glyph glyph-name="R" unicode="r" d="M86 72 q51 198 143.5 596 q92.5 398 143.5 596 q-24 -1 -40.5 21 q-16.5 22 -21 49.5 q-4.5 27.5 7 53.5 q11.5 26 37.5 33 q78 22 142 35 q62 14 142 22 q33 4 65 3 q45 0 88 -7 q73 -12 133 -44 q101 -54 149 -158 q40 -87 40 -187 q0 -19 -1 -38 q-12 -141 -83 -248 q-71 -107 -197 -158 q-77 -29 -115 -37 q29 -43 82 -164 q23 -52 72 -175.5 q49 -123.5 79 -188.5 q7 -16 7 -34 q0 -26 -16 -56 q-23 -41 -52 -41 q-1 0 -3 0 q-22 2 -36 32 q-27 62 -74.5 180.5 q-47.5 118.5 -58.5 145.5 q-5 11 -25.5 61 q-20.5 50 -33 76 q-12.5 26 -36.5 61 q-24 35 -49 52 q-14 8 -20 27 q-88 -5 -152 -5 q-18 0 -34 0 q-83 -355 -136 -552 q-9 -35 -50 -37 q-4 0 -7 -1 q-38 1 -68 25 q-25 20 -25 45 q0 8 3 17 ZM406 729 q65 0 123.5 5 q58.5 5 125.5 16.5 q67 11.5 122 35 q55 23.5 102.5 57.5 q47.5 34 76.5 86.5 q29 52.5 35 119.5 q1 19 1 36 q0 175 -138 215 q-70 19 -154 19 q-72 0 -153 -14 q-51 -190 -141 -576 Z" /><glyph glyph-name="S" unicode="s" d="M-80 49 q0 5 -1 10 q0 35 23 65 q21 28 47 28 q6 0 13 -2 q175 -40 312 -40 q108 0 192 25 q64 18 113.5 56.5 q49.5 38.5 54.5 95.5 q2 16 2 32 q0 61 -26 117 q-32 70 -89.5 127 q-57.5 57 -119 105 q-61.5 48 -128.5 105 q-67 57 -102 106 q-61 85 -68 169 q-1 13 -1 26 q0 69 34 125 q40 66 106.5 122.5 q66.5 56.5 156.5 90.5 q89 32 181 48 q52 9 103 9 q39 0 79 -5 q90 -12 154 -51 q26 -23 26 -56 q0 -3 0 -7 q-3 -38 -34 -68 q-19 -17 -38 -17 q-12 0 -25 7 q-73 44 -179 47 q-9 0 -19 0 q-97 -1 -187 -29 q-100 -32 -166 -84 q-50 -42 -58 -91 q-2 -11 -2 -22 q0 -37 19 -70 q25 -43 72.5 -91.5 q47.5 -48.5 96 -84.5 q48.5 -36 99 -75.5 q50.5 -39.5 70.5 -60.5 q57 -60 97 -129 q40 -70 62 -147 q13 -47 14 -94 q0 -31 -6 -63 q-14 -80 -67 -145 q-142 -175 -440 -175 q-146 0 -330 42 q-37 8 -41 49 Z" /><glyph glyph-name="T" unicode="t" d="M88 1388 q12 38 51 39 q152 0 456 3.5 q304 3.5 454 3.5 q36 0 56 -38 q13 -24 13 -49 q0 -15 -4 -29 q-12 -38 -51 -38 q-67 -1 -202.5 -2 q-135.5 -1 -203.5 -2 q-36 -217 -123 -632.5 q-87 -415.5 -122 -616.5 q-6 -37 -48 -49 q-16 -5 -32 -4 q-24 0 -46 11 q-30 16 -29 45 q0 6 1 13 q36 216 122 627 q86 411 120 606 q-117 -4 -350 -4 q-34 0 -54 39 q-12 25 -13 49 q1 14 5 28 Z" /><glyph glyph-name="U" unicode="u" d="M86 378 q-2 33 -2 68.5 q0 35.5 2 71.5 q7 104 24 208 q17 104 51.5 237 q34.5 133 52 193 q17.5 60 65.5 222 q11 39 61 50 q15 3 27 3 q29 0 48 -17 q21 -19 11 -52 q-7 -25 -30.5 -104.5 q-23.5 -79.5 -32.5 -112.5 q-9 -33 -28 -102.5 q-19 -69.5 -29 -113 q-10 -43.5 -23.5 -104 q-13.5 -60.5 -22 -115 q-8.5 -54.5 -14.5 -108.5 q-4 -44 -6 -77 q-2 -26 -1 -65 q-1 -10 -1 -20 q0 -52 6 -90.5 q6 -38.5 20 -82.5 q14 -44 35.5 -73 q21.5 -29 57.5 -49.5 q36 -20.5 83 -23.5 q18 -1 35 -1 q158 0 252 91 q86 83 137 262 q48 166 102 477.5 q54 311.5 81 427.5 q9 35 50 49 q18 6 34 6 q21 -1 41 -11 q26 -15 26 -43 q0 -8 -2 -17 q-35 -151 -113 -580 q-1 -4 -7.5 -41 q-6.5 -37 -8 -44 q-1.5 -7 -7.5 -40.5 q-6 -33.5 -8.5 -44.5 q-2.5 -11 -9 -40.5 q-6.5 -29.5 -10 -44 q-3.5 -14.5 -10.5 -40 q-7 -25.5 -12.5 -43 q-5.5 -17.5 -13 -39 q-7.5 -21.5 -15.5 -40.5 q-74 -185 -232 -285 q-132 -83 -291 -83 q-32 0 -65 3 q-78 8 -136.5 43 q-58.5 35 -92.5 85.5 q-34 50.5 -53.5 117 q-19.5 66.5 -24.5 132.5 Z" /><glyph glyph-name="V" unicode="v" d="M84 1352 q-1 6 -1 11 q0 37 36 69 q27 23 49 23 q9 0 18 -4 q20 -9 23 -42 q64 -593 164 -1200 q78 138 170 309.5 q92 171.5 145.5 274.5 q53.5 103 169 327.5 q115.5 224.5 148.5 288.5 q12 25 32 36 q14 8 27 8 q5 1 10 -1 q17 -4 31 -18 q15 -13 15 -37 q0 -21 -11 -45 q-50 -96 -170.5 -330 q-120.5 -234 -187.5 -361.5 q-67 -127.5 -170.5 -317 q-103.5 -189.5 -194.5 -343.5 q-13 -23 -38 -37 q-16 -9 -32 -9 q-8 0 -16 2 q-23 8 -29 42 q-106 593 -188 1354 Z" /><glyph glyph-name="W" unicode="w" d="M84 1360 q0 3 0 6 q0 43 38 70 q22 16 40 16 q13 0 24 -8 q20 -13 21 -49 q29 -523 65 -1080 q191 450 525 1090 q16 30 41.5 44 q25.5 14 47.5 2.5 q22 -11.5 27 -50.5 q21 -161 36 -339.5 q15 -178.5 30.5 -410 q15.5 -231.5 24.5 -340.5 q44 89 129.5 252.5 q85.5 163.5 121.5 235.5 q148 307 175 370 q3 8 23 55 q20 47 27 66 q7 19 18 55 q11 36 15 66 q5 49 46 65 q14 5 25 5 q20 0 35 -16 q14 -16 14 -42 q0 -7 -1 -16 q-5 -43 -21 -95 q-16 -52 -28.5 -83.5 q-12.5 -31.5 -38.5 -89.5 q-67 -158 -180 -385 q-22 -44 -153 -297.5 q-131 -253.5 -195 -390.5 q-13 -31 -39.5 -45 q-26.5 -14 -50 -1.5 q-23.5 12.5 -27.5 50.5 q-22 195 -46.5 566 q-24.5 371 -41.5 540 q-342 -668 -532 -1153 q-11 -30 -39 -44 q-15 -8 -29 -8 q-12 0 -23 6 q-24 12 -26 50 q-9 166 -37 624.5 q-28 458.5 -41 708.5 Z" /><glyph glyph-name="X" unicode="x" d="M-111 84 q159 206 560 690 q-158 375 -230 578 q-6 13 -6 26 q0 27 24 55 q25 29 52 29 q7 0 13 -2 q23 -6 34 -37 q56 -148 213 -532 q344 416 436 534 q23 23 57 23 q5 0 10 -1 q40 -5 66 -37 q13 -16 12 -32 q0 -16 -12 -32 q-188 -238 -502 -613 q161 -387 252 -653 q5 -13 5 -26 q0 -29 -25 -58 q-25 -29 -50 -29 q-6 0 -13 2 q-23 8 -33 37 q-88 251 -238 606 q-50 -61 -154.5 -189 q-104.5 -128 -184.5 -228 q-80 -100 -152 -193 q-22 -20 -53 -20 q-7 0 -14 0 q-40 6 -66 38 q-13 17 -13 34 q0 15 12 30 Z" /><glyph glyph-name="Y" unicode="y" d="M85 1424 q5 33 30 49 q9 5 20 5 q13 0 27 -8 q25 -15 35 -40 q31 -99 102 -342.5 q71 -243.5 113 -374.5 q78 100 258.5 349.5 q180.5 249.5 287.5 379.5 q23 27 43 27 q14 0 26 -11 q25 -22 25 -62 q0 -6 -1 -12 q-2 -29 -19 -51 q-108 -132 -294.5 -389 q-186.5 -257 -270.5 -364 q-8 -46 -23.5 -135 q-15.5 -89 -25 -144.5 q-9.5 -55.5 -25 -131.5 q-15.5 -76 -31.5 -140 q-8 -34 -48 -46 q-16 -5 -31 -5 q-23 0 -43 12 q-27 14 -27 43 q0 7 2 16 q21 83 38 174.5 q17 91.5 37 214 q20 122.5 29 174.5 q-45 136 -119.5 391 q-74.5 255 -109.5 365 q-7 15 -7 35 q0 10 2 21 Z" /><glyph glyph-name="Z" unicode="z" d="M-139 60 q12 28 41 42 l0 2 q177 218 523 617 q346 399 495 579 q-681 -6 -687 -6 q-37 0 -57 40 q-13 26 -12 51 q0 13 4 27 q10 40 47 40 q134 0 402.5 2 q268.5 2 402.5 2 q34 0 51 -31 q39 0 55 -23 q6 -9 7 -20 q0 -18 -17 -43 q-178 -219 -530.5 -624.5 q-352.5 -405.5 -509.5 -595.5 q53 1 123 1 q107 0 253 -2 q244 -4 320 -5 q49 -1 64 -31 q6 -12 6 -24 q0 -19 -14 -37 q-23 -31 -66 -31 q-93 0 -263.5 4.5 q-170.5 4.5 -310 4.5 q-139.5 0 -264.5 -9 q-5 0 -10 0 q-34 0 -48 19 q-10 13 -10 28 q0 11 5 23 Z" /><glyph glyph-name="bracketleft" unicode="[" d="M-78 -236 q-12 37 23 60 l2 2 q23 81 46.5 169 q23.5 88 42 160 q18.5 72 42 173.5 q23.5 101.5 37.5 160.5 q14 59 38 174 q24 115 34 161.5 q10 46.5 35.5 174.5 q25.5 128 32.5 161.5 q7 33.5 34.5 175 q27.5 141.5 32.5 165.5 q-2 29 21 60.5 q23 31.5 54 40.5 q8 2 27 2 q18 -1 65 -3.5 q47 -2.5 72 -3.5 q25 -1 62.5 0 q37.5 1 68.5 5 q53 7 61 -36 q8 -39 -22 -75 q-21 -24 -47 -27 q-25 -4 -50 -6 q-25 -2 -54.5 -2.5 q-29.5 -0.5 -47 -0.5 q-17.5 0 -53.5 1.5 q-36 1.5 -49 1.5 q-29 -245 -87 -513 q-58 -268 -142.5 -602.5 q-84.5 -334.5 -122.5 -506.5 q0 -4 -2 -6 l151 0 q31 0 58.5 -14 q27.5 -14 38.5 -41 q6 -26 -11 -46 q-17 -20 -45 -20 l-252 0 q-32 0 -59 13.5 q-27 13.5 -35 41.5 Z" /><glyph glyph-name="backslash" unicode="\" d="M88 1337 q-9 21 -2 41.5 q7 20.5 27 33.5 q20 13 42.5 19.5 q22.5 6.5 44 -0.5 q21.5 -7 31.5 -28 q29 -62 141.5 -306 q112.5 -244 160.5 -345.5 q48 -101.5 139 -292.5 q91 -191 167.5 -342 q76.5 -151 155.5 -299 q18 -32 -12 -63 q-30 -31 -69 -33 q-39 -2 -62 30 q-57 108 -113.5 217.5 q-56.5 109.5 -118 236 q-61.5 126.5 -105 215 q-43.5 88.5 -113 238 q-69.5 149.5 -101 216.5 q-31.5 67 -111 239.5 q-79.5 172.5 -102.5 222.5 Z" /><glyph glyph-name="bracketright" unicode="]" d="M-202 -262 q-8 46 21 83 q21 27 50 27 l244 0 q118 720 297 1582 q-12 1 -91 6 q-79 5 -118 16 q-18 3 -29 25 q-8 20 1 46 q9 26 24 38 q25 20 63 25.5 q38 5.5 69 2 q31 -3.5 79 -11.5 q48 -8 71 -10 q22 0 42.5 -41.5 q20.5 -41.5 15.5 -67.5 q-205 -999 -312 -1640 q13 -37 -7 -81 q-20 -44 -60 -44 l-314 0 q-39 0 -46 45 Z" /><glyph glyph-name="asciicircum" unicode="^" d="M1 794 q-5 26 24 58 q250 296 452 592 q15 24 41.5 42 q26.5 18 53 18.5 q26.5 0.5 38.5 -25.5 q130 -309 271 -555 q17 -30 -10.5 -70 q-27.5 -40 -64.5 -52.5 q-37 -12.5 -58 11.5 q-115 203 -240 481 q-190 -268 -385 -493 q-35 -44 -82 -39 q-35 3 -40 32 Z" /><glyph glyph-name="underscore" unicode="_" d="M-154 -446 q-39 0 -48 38 q-9 38 12.5 76.5 q21.5 38.5 56.5 40.5 q132 4 409.5 -0.5 q277.5 -4.5 407.5 0.5 q43 1 50 -45 q7 -45 -22 -83 q-21 -26 -50 -27 q-128 -5 -406.5 -0.5 q-278.5 4.5 -409.5 0.5 Z" /><glyph glyph-name="grave" unicode="`" d="M115 1337 q-23 18 -29.5 48 q-6.5 30 4.5 59 q9 23 32 35.5 q23 12.5 46 -4.5 q28 -25 49 -58 q21 -33 30 -55 q9 -22 25 -70.5 q16 -48.5 23 -66.5 q25 -73 -14 -107 q-22 -18 -48.5 -9 q-26.5 9 -35.5 36 q-6 16 -18.5 61 q-12.5 45 -27 77.5 q-14.5 32.5 -36.5 53.5 Z" /><glyph glyph-name="a" unicode="a" d="M2 367 q2 79 26 157 q24 78 58 154 q34 76 85 141.5 q51 65.5 108.5 120 q57.5 54.5 127.5 90.5 q70 36 142 52 q41 9 85 9 q34 1 68 -5 q80 -12 158 -52 q31 -18 21 -51 l0 -12 q-4 -58 -11 -94 q3 -12 0 -31 q-3 -8 -7 -26.5 q-4 -18.5 -7 -26.5 q-20 -127 -51 -232 q-31 -162 -31 -280 q0 -3 0 -15.5 q0 -12.5 0 -20.5 q0 -8 0.5 -21.5 q0.5 -13.5 2.5 -23 q2 -9.5 5 -20 q3 -10.5 8.5 -17.5 q5.5 -7 12.5 -11 q11 -6 25 -6 q14 0 26.5 4.5 q12.5 4.5 28.5 12.5 q16 8 27 15 q11 7 25 16.5 q14 9.5 19 12.5 q21 15 50 10.5 q29 -4.5 38 -29.5 q5 -10 5 -21 q1 -15 -9 -31 q-16 -26 -41 -42 q-41 -27 -83.5 -46.5 q-42.5 -19.5 -88.5 -27.5 q-24 -5 -46 -5 q-19 -1 -37 3 q-38 8 -66 41.5 q-28 33.5 -37 92.5 q-1 2 -6 28 q-59 -82 -119 -127 q-66 -54 -148 -70 q-36 -7 -69 -7 q-43 0 -83 12 q-72 20 -128 79.5 q-56 59.5 -74 147.5 q-10 63 -10 130 q0 11 0 22 ZM143 372 q1 -66 23 -134 q24 -57 68.5 -95.5 q44.5 -38.5 99.5 -38.5 q1 0 3 0 q61 0 107 43 q48 44 88 113 q107 183 162 412 q5 32 15 73 q15 78 26 183 q-66 30 -130 30 q-21 0 -41 -4 q-84 -12 -155.5 -61.5 q-71.5 -49.5 -123.5 -128.5 q-39 -57 -69 -118 q-30 -61 -52 -134 q-21 -70 -21 -134 q0 -3 0 -6 Z" /><glyph glyph-name="b" unicode="b" d="M2 105 q0 6 0 13 q0 42 24 63 q18 15 42 7 q45 239 118 557 q-1 10 -1 19 q0 34 20 55 q104 468 129 608 q9 49 44 49 q0 0 1 0 q34 0 59 -39 q16 -24 16 -50 q0 -6 -1 -13 q-35 -185 -91 -428 q162 108 295 131 q28 5 54 5 q35 0 65 -10 q52 -16 84.5 -53 q32.5 -37 51.5 -89 q20 -54 26 -110 q4 -34 4 -68 q0 -23 -2 -47 q-37 -499 -301 -662 q-118 -75 -272 -75 q-144 0 -320 65 q-40 15 -45 72 ZM188 152 q95 -26 178 -26 q110 0 197 46 q206 111 254 490 q0 6 4 44 q5 38 5 60 q0 4 0 7 q0 20 -2 48 q-2 33 -13.5 55.5 q-11.5 22.5 -30.5 34.5 q-28 17 -64 17 q-43 0 -98 -23 q-151 -53 -307 -182 q-96 -423 -123 -571 Z" /><glyph glyph-name="c" unicode="c" d="M0 346 q1 75 20 154 q27 123 92 239.5 q65 116.5 162 206.5 q98 90 218 120 q46 12 93 12 q79 0 165 -31 q31 -19 31 -52 q0 -3 0 -5 q-3 -36 -37 -68 q-24 -21 -48 -21 q-10 0 -20 4 q-66 24 -126 24 q-32 0 -64 -7 q-88 -21 -157 -89 q-69 -68 -114.5 -155 q-45.5 -87 -64.5 -180 q-14 -70 -14 -127 q0 -127 69 -193 q65 -65 170 -65 q91 0 213 49 q18 7 33 7 q27 0 40 -26 q8 -15 8 -32 q0 -21 -13 -42 q-14 -25 -40 -36 q-171 -65 -294 -65 q-146 0 -226 91 q-50 58 -74 135 q-23 74 -22 146 q0 3 0 6 Z" /><glyph glyph-name="d" unicode="d" d="M0 353 q0 3 0 7 q0 70 10 140 q21 136 84.5 254.5 q63.5 118.5 165.5 197.5 q102 76 230 96 q47 7 92 8 q79 0 155 -22 q11 54 86 393 q9 37 51 42 q7 1 14 1 q34 0 64 -22 q27 -20 27 -47 q0 -7 -2 -15 q-178 -767 -236 -1359 q-3 -37 -43 -43 q-7 -1 -15 0 q-32 0 -62 20 q-33 23 -33 55 q0 3 0 7 q0 6 1 19 q1 13 1 19 q-61 -45 -90 -61 q-70 -42 -140 -58 q-31 -7 -63 -7 q-39 0 -81 12 q-74 20 -126 84 q-43 55 -66.5 130.5 q-23.5 75.5 -23.5 148.5 ZM150 436 q0 -7 -1 -14 q1 -94 27 -177 q28 -89 96 -126 q23 -12 52 -12 q35 0 77 18 q88 38 209 168 q52 365 101 602 q-78 23 -149 27 q-9 0 -18 1 q-62 -1 -124 -21 q-72 -24 -125 -77 q-68 -71 -104 -174 q-36 -103 -41 -215 Z" /><glyph glyph-name="e" unicode="e" d="M62 588 q41 170 149 297 q120 142 297 188 q48 12 96 12 q55 1 110 -15 q104 -30 152 -118 q26 -50 26 -102 q0 -17 -2 -34 q-12 -69 -51.5 -126.5 q-39.5 -57.5 -99.5 -99.5 q-181 -128 -448 -128 q-54 0 -111 5 q0 -6 0 -13 q0 -125 56 -221 q44 -73 114 -101 q50 -20 100 -20 q20 0 40 3 q71 11 149 49 q25 13 50 3 q25 -10 28 -38 q4 -29 -14 -55 q-18 -26 -46 -39 q-85 -38 -139 -51 q-56 -14 -107 -14 q-99 0 -181 50 q-126 76 -167 236 q-21 82 -21 166 q0 82 20 166 ZM203 610 q71 -8 131 -9 q7 0 16 0 q53 0 114 6 q70 7 130.5 34 q60.5 27 105.5 72 q48 47 48 97 q0 13 -3 27 q-16 65 -98 93 q-46 17 -92 17 q-77 1 -152 -49 q-119 -78 -174 -208 q-11 -25 -26 -80 Z" /><glyph glyph-name="f" unicode="f" d="M-367 -364 q0 46 30 62 q23 12 54 -3 q46 -27 89 -41 q31 -11 64 -11 q15 0 30 3 q50 6 84 43 q21 23 38.5 56.5 q17.5 33.5 27 57.5 q9.5 24 21 73.5 q11.5 49.5 14 63.5 q2.5 14 11.5 68 q18 112 33 228.5 q15 116.5 34 292.5 q19 176 25 231 q8 63 15 106 q-21 0 -59.5 -2 q-38.5 -2 -57.5 -2 q-28 -1 -39 25 q-11 26 -2 51 q20 60 90 63 q36 5 88 5 q38 189 111 313 q50 84 121 120 q53 27 110 27 q19 0 39 -4 q79 -12 160 -67 q35 -24 35 -76 q0 -2 0 -3 q-1 -49 -30 -62 q-22 -10 -50 10 q-74 49 -135 49 q-154 0 -226 -307 q34 0 100.5 -2.5 q66.5 -2.5 100.5 -2.5 q44 0 44 -38 q0 -1 0 -2 q0 -39 -36 -73 q-27 -26 -57 -26 q-119 0 -178 4 q-28 -188 -35 -299 q-10 -89 -59 -475 q-15 -127 -33.5 -219.5 q-18.5 -92.5 -52.5 -173.5 q-71 -170 -181 -201 q-39 -11 -77 -11 q-34 0 -68 9 q-71 19 -154 64 q-39 22 -39 76 Z" /><glyph glyph-name="g" unicode="g" d="M-76 -328 q-5 11 -5 22 q0 14 9 27 q19 25 52 25 q23 0 53 -12 q97 -38 176 -38 q2 0 5 0 q81 1 138.5 32.5 q57.5 31.5 104 94.5 q46.5 63 76 136.5 q29.5 73.5 53.5 171.5 q-74 -62 -170 -108 q-48 -23 -98 -35 q-29 -6 -61 -6 q-21 0 -43 2 q-54 8 -89 43 q-105 102 -105 297 q0 68 13 147 q22 142 82 270 q60 128 157 213 q76 64 166 88 q60 16 119 16 q31 0 61 -4 q89 -13 177 -57 q9 1 17 1 q34 0 63 -19 q25 -17 25 -39 q0 -9 -5 -20 q-13 -31 -23.5 -67 q-10.5 -36 -17.5 -63.5 q-7 -27.5 -14.5 -73.5 q-7.5 -46 -10.5 -66.5 q-3 -20.5 -9.5 -74 q-6.5 -53.5 -8.5 -67.5 q-2 -11 -9.5 -63 q-7.5 -52 -9.5 -68 q-2 -16 -9.5 -62 q-7.5 -46 -11.5 -68 q-4 -22 -12 -62 q-8 -40 -14.5 -67 q-6.5 -27 -16 -61 q-9.5 -34 -19.5 -65 q-92 -281 -250 -365 q-99 -52 -216 -52 q-129 0 -280 63 q-26 8 -39 34 ZM154 467 q-14 -79 -14 -141 q0 -111 46 -162 q20 -22 61 -24 q5 0 9 0 q36 0 72 11 q40 12 73 31 q115 67 230 189 q7 40 35 230 q28 190 47 267 q-88 35 -165 35 q-115 0 -206 -76 q-144 -124 -188 -360 Z" /><glyph glyph-name="h" unicode="h" d="M2 51 q21 91 127 588 q106 497 174 758 q7 39 56 56 q21 8 39 8 q22 0 38 -12 q22 -16 15 -48 q-78 -319 -105 -453 q195 143 363 146 q13 1 26 0 q37 0 67 -6 q42 -8 78.5 -37.5 q36.5 -29.5 49.5 -77.5 q12 -40 15 -82 q1 -12 1 -25 q0 -32 -6 -69 q-8 -52 -12.5 -79.5 q-4.5 -27.5 -18.5 -88.5 q-12 -57 -60 -265.5 q-48 -208.5 -71 -322.5 q-5 -31 -23 -55 q-18 -24 -46 -25 q-27 0 -43 24 q-16 24 -11 50 q27 140 119 534 q3 16 15.5 70 q12.5 54 18.5 81 q6 28 10 70 q3 26 2 48 q0 15 -1 28 q-3 44 -31 60 q-23 14 -65 14 q-8 0 -16 0 q-105 -3 -203.5 -54 q-98.5 -51 -200.5 -136 q-98 -466 -149 -697 q-10 -39 -61 -55 q-21 -7 -38 -7 q-24 0 -41 14 q-14 12 -14 32 q0 6 2 14 Z" /><glyph glyph-name="i" unicode="i" d="M2 53 q39 183 107 519 q68 336 94 460 q8 37 49 41 q5 1 11 1 q35 0 65 -24 q29 -22 29 -50 q0 -6 -1 -13 q-28 -128 -95.5 -463 q-67.5 -335 -108.5 -518 q-8 -36 -50 -40 q-5 0 -9 0 q-36 0 -66 24 q-27 21 -27 48 q0 7 2 15 ZM238 1336 q-7 20 -7 39 q0 19 7 36 q15 29 34 43 q22 14 56 25 q11 4 28 4 q14 -1 31 -3 q40 -6 53 -24 q41 -56 41 -113 q0 -4 0 -8 q0 -19 -11 -39 q-11 -20 -28 -30 q-34 -18 -69 -18 q-44 0 -92 28 q-29 19 -43 60 Z" /><glyph glyph-name="j" unicode="j" d="M-278 -385 q-8 22 -8 41 q0 23 12 41 q17 24 49 20 q27 -4 78 -4 q31 4 54.5 21 q23.5 17 40.5 47.5 q17 30.5 26 54 q9 23.5 20 60.5 q13 39 24 77.5 q11 38.5 23 89.5 q12 51 17.5 75 q5.5 24 19 90.5 q13.5 66.5 16.5 78.5 q25 115 72 345.5 q47 230.5 72 346.5 q9 49 45 49 q2 0 5 0 q35 -3 57 -42 q17 -29 11 -60 q-28 -128 -79 -383 q-51 -255 -78 -383 q-59 -279 -107 -407 q-44 -119 -118 -173 q-59 -41 -145 -41 q-24 0 -50 3 q-39 4 -57 53 ZM279 1343 q3 21 16 31 q0 1 -2 3 q-2 2 -2 3 q-3 10 0 25 q3 15 10 22 q34 25 74 25 q4 0 8 0 q25 0 49 -14 q38 -30 47 -62 q3 -12 3 -22 q0 -28 -21 -47 q-2 -1 -8 -7 q-6 -6 -11 -8 q-22 -10 -43 -12 q-11 -4 -23 -4 q-12 0 -24 4 q-30 2 -53 18 q-20 15 -20 39 q0 3 0 6 ZM412 1339 q8 4 12 4 q1 1 2 3 q1 2 3 4 q2 2 5 4 q-8 -8 -22 -15 Z" /><glyph glyph-name="k" unicode="k" d="M43 43 q43 199 127.5 644.5 q84.5 445.5 136.5 680.5 q9 39 61 57 q22 7 40 7 q23 0 40 -12 q19 -14 13 -42 q-68 -321 -154 -782 q20 16 41 0 l2 0 q71 37 137 102 q66 65 141.5 159.5 q75.5 94.5 104.5 125.5 q20 22 53 22 q16 0 36 -5 q49 -14 61 -44 q3 -6 3 -13 q0 -13 -12 -25 q-32 -35 -92.5 -107.5 q-60.5 -72.5 -99.5 -117 q-39 -44.5 -98.5 -98 q-59.5 -53.5 -116.5 -87.5 q57 -57 110.5 -146 q53.5 -89 81 -151.5 q27.5 -62.5 70.5 -167.5 q6 -16 6 -32 q0 -29 -20 -57 q-21 -29 -45 -29 q-6 0 -13 2 q-21 6 -34 38 q-19 51 -28 74.5 q-9 23.5 -31 75 q-22 51.5 -37.5 81 q-15.5 29.5 -41 74 q-25.5 44.5 -49.5 72.5 q-24 28 -55.5 57 q-31.5 29 -65.5 47 l-2 0 l-15 -4 q-16 -3 -24 -4 q-49 -269 -73 -385 q-8 -39 -60 -56 q-23 -8 -42 -8 q-24 0 -41 12 q-16 12 -16 32 q0 5 1 10 Z" /><glyph glyph-name="l" unicode="l" d="M84 190 q2 30 5 60.5 q3 30.5 8.5 66 q5.5 35.5 9 58.5 q3.5 23 12.5 66.5 q9 43.5 12 58.5 q3 15 14 65.5 q11 50.5 13 59.5 q19 85 54.5 242.5 q35.5 157.5 63.5 285 q28 127.5 52 242.5 q6 21 26 33 q17 10 36 10 q2 0 6 0 q24 -2 46 -11 q22 -9 35 -28 q9 -14 9 -29 q0 -6 -1 -12 q-24 -110 -82.5 -347.5 q-58.5 -237.5 -97 -420 q-38.5 -182.5 -59.5 -352.5 q0 -2 -3.5 -20.5 q-3.5 -18.5 -4.5 -28.5 q-1 -10 -2.5 -29.5 q-1.5 -19.5 0.5 -31 q2 -11.5 6.5 -25 q4.5 -13.5 14.5 -20 q10 -6.5 24 -7.5 q3 0 51 10 q10 2 19 2 q34 0 61 -28 q22 -22 22 -44 q0 -10 -5 -20 q-11 -22 -46 -31 q-59 -12 -106 -12 q-81 0 -130 35 q-65 48 -65 163 q0 19 2 39 Z" /><glyph glyph-name="m" unicode="m" d="M45 82 q19 83 36.5 169.5 q17.5 86.5 41 215.5 q23.5 129 31.5 170 q-38 10 -50 37 q-3 8 -3 15 q0 20 22 44 q19 19 59 55 q4 17 21 99 q17 82 26 125 q9 25 35.5 32 q26.5 7 46.5 -8 q38 -29 38 -73 q0 -16 -5 -33 l0 -8 q17 14 98 67 q133 74 217 74 q4 0 9 0 q165 -3 209 -189 q213 176 372 181 q6 0 12 0 q85 1 141 -51 q59 -56 71 -150 q4 -34 5 -69 q0 -8 0 -16 q0 -28 -2 -57 q-4 -38 -7.5 -69.5 q-3.5 -31.5 -12 -74 q-8.5 -42.5 -14 -68 q-5.5 -25.5 -15.5 -70.5 q-41 -177 -116 -393 q-14 -40 -69 -45 q-8 -1 -15 -1 q-41 0 -62 25 q-17 19 -8 45 q51 145 79.5 236.5 q28.5 91.5 55.5 226.5 q27 135 27 246 q0 86 -23 133 q-6 16 -18 29 q-8 6 -16 6 q-44 -2 -93.5 -23 q-49.5 -21 -103 -60.5 q-53.5 -39.5 -90 -70 q-36.5 -30.5 -88.5 -77.5 q-4 -104 -23.5 -211.5 q-19.5 -107.5 -61.5 -269 q-42 -161.5 -52 -206.5 q-8 -34 -50 -43 q-12 -3 -24 -3 q-28 0 -53 16 q-28 18 -28 47 q0 7 1 14 q9 40 47 184.5 q38 144.5 56.5 240.5 q18.5 96 23.5 190 q-20 15 -21.5 34.5 q-1.5 19.5 23.5 42.5 l4 2 l0 7 q0 99 -24 153 l-19 33 q-9 6 -16 8 q4 -1 5 -2 q1 -1 -1 -2 q-9 0 -10 4 q-72 -10 -148 -65 q-101 -66 -221 -174 q-15 -76 -38.5 -212 q-23.5 -136 -45 -248.5 q-21.5 -112.5 -45.5 -211.5 q-12 -50 -51 -50 q-2 0 -4 0 q-36 3 -57 38 q-12 19 -12 39 q0 10 3 20 Z" /><glyph glyph-name="n" unicode="n" d="M47 86 q72 245 125 567 q-29 12 -35.5 31.5 q-6.5 19.5 21.5 46.5 q12 12 30 27 q14 107 27 223 q5 46 36 60 q31 15 59 -9 q24 -21 25 -58 q0 -5 -1 -11 q-4 -33 -12 -91 q142 107 243 150 q48 21 100 29 q28 4 55 4 q24 0 48 -3 q51 -7 91.5 -39 q40.5 -32 58.5 -87 q24 -70 26 -156 q0 -10 0 -20 q0 -74 -10 -134 q-11 -68 -33 -159 q-18 -70 -57.5 -209.5 q-39.5 -139.5 -57.5 -208.5 q-10 -41 -63 -53 q-15 -3 -28 -3 q-31 0 -52 18 q-20 18 -14 46 q15 61 67 228 q52 167 74 289 q15 82 16 160 q0 38 -4 75 q-6 104 -43 127 q-16 9 -37 9 q-35 0 -87 -25 q-5 -2 -7 -3 q-119 -62 -313 -229 q-46 -327 -139 -649 q-6 -25 -32 -41 q-14 -8 -27 -9 q-12 0 -23 7 q-33 18 -33 60 q0 18 6 40 Z" /><glyph glyph-name="o" unicode="o" d="M44 364 q-1 20 -2 41 q0 65 12 133 q14 88 46.5 167 q32.5 79 84.5 145.5 q52 66.5 116 105.5 q146 99 278 99 q47 0 93 -13 q64 -18 111.5 -61.5 q47.5 -43.5 72.5 -99.5 q26 -57 41 -123 q14 -60 13 -119 q0 -6 0 -12 q-2 -65 -7 -125 q-29 -191 -119 -305 q-66 -81 -151.5 -143.5 q-85.5 -62.5 -173.5 -78.5 q-28 -3 -55 -3 q-67 0 -123 20 q-79 28 -127.5 82 q-48.5 54 -77 130 q-28.5 76 -32.5 160 ZM207 295 q33 -143 117 -191 q24 -14 52 -14 q1 0 3 0 q27 0 54 10 q28 10 51.5 24 q23.5 14 45.5 32 q128 101 184 245 q41 104 40 217 q0 44 -6 89 q-18 164 -99 215 q-20 14 -47 14 q-6 0 -13 -1 q-35 -4 -70 -18.5 q-35 -14.5 -70.5 -38 q-35.5 -23.5 -61.5 -44.5 q-26 -21 -43 -39 q-98 -103 -134 -236 q-18 -69 -19 -137 q0 -64 16 -127 Z" /><glyph glyph-name="p" unicode="p" d="M-78 -360 q71 265 172 773.5 q101 508.5 121 598.5 q6 26 32 34 q9 3 17 3 q16 0 29 -11 q42 -28 42 -78 q0 -13 -3 -28 q-10 -35 -13 -43 q45 39 84 63 q51 34 101.5 57 q50.5 23 108.5 35 q25 6 49 6 q32 0 64 -10 q54 -16 95 -63 q91 -101 91 -278 q0 -72 -15 -156 q-26 -136 -88.5 -256 q-62.5 -120 -159.5 -199 q-108 -88 -243 -104 q-31 -4 -63 -4 q-101 0 -198 40 q-59 -278 -108 -458 q-11 -40 -39 -40 q-7 0 -15 3 q-34 11 -54 52 q-10 22 -10 41 q0 12 3 22 ZM178 176 q80 -32 154 -38 q16 -2 32 -2 q59 0 118 19 q75 24 134 83 q72 68 116.5 167.5 q44.5 99.5 53.5 200.5 q3 22 3 47 q0 17 -1 35 q-4 45 -11.5 84.5 q-7.5 39.5 -29.5 71 q-22 31.5 -55 43.5 q-26 9 -55 9 q-2 1 -3 1 q-28 0 -54 -9 q-29 -8 -57 -20.5 q-28 -12.5 -57 -32.5 q-29 -20 -53.5 -39 q-24.5 -19 -51 -44 q-26.5 -25 -45 -43 q-18.5 -18 -40.5 -41 q-18 -82 -49.5 -246 q-31.5 -164 -48.5 -246 Z" /><glyph glyph-name="q" unicode="q" d="M42 320 q2 53 7 106 q21 154 90.5 281.5 q69.5 127.5 188.5 210.5 q129 92 276 106 q24 2 48 2 q122 0 237 -59 q5 0 11 0 q32 0 57 -15 q23 -15 23 -39 q0 -6 -1 -12 q-98 -430 -143 -647 q-8 -37 -26 -122 q-18 -85 -27.5 -133 q-9.5 -48 -23 -119 q-13.5 -71 -22 -134 q-8.5 -63 -14.5 -123 q-2 -23 -20 -37.5 q-18 -14.5 -42 -16.5 q-6 -1 -13 -1 q-17 0 -34 4 q-23 6 -38 23 q-15 17 -13 40 q18 160 80 476 q-159 -109 -302 -109 q-40 0 -79 8 q-59 11 -103 41 q-44 30 -67 71.5 q-23 41.5 -37 92.5 q-13 46 -13 94 q0 5 0 11 ZM202 272 q1 -25 7.5 -55 q6.5 -30 18 -48.5 q11.5 -18.5 32.5 -32 q21 -13.5 49 -13.5 q6 0 11 0 q94 0 188 61 q101 65 182 158 q0 4 4 8 q17 75 55.5 248.5 q38.5 173.5 59.5 265.5 q-84 42 -162 42 q-59 0 -113 -24 q-128 -55 -216.5 -182.5 q-88.5 -127.5 -106.5 -267.5 q-4 -28 -6 -46.5 q-2 -18.5 -3 -53.5 q-1 -18 -1 -33 q0 -15 1 -27 Z" /><glyph glyph-name="r" unicode="r" d="M47 47 q27 104 49 209 q22 105 54 272 q32 167 40 207 q-7 17 5 41 q5 24 14 69 q9 45 16.5 82 q7.5 37 12.5 70 q12 49 53 61 q10 3 18 3 q24 0 39 -21 q17 -22 8 -59 q-3 -13 -7 -37.5 q-4 -24.5 -5 -30.5 q38 30 69.5 51.5 q31.5 21.5 72.5 41.5 q40 20 78 28 q34 8 73 8 q5 0 9 -1 q45 -1 91 -15 q40 -14 40 -44 q0 -8 -3 -18 q-12 -36 -52 -54 q-30 -14 -58 -5 q-26 8 -52 8.5 q-26 0.5 -48 -5 q-22 -5.5 -46 -17.5 q-24 -12 -42.5 -25.5 q-18.5 -13.5 -41 -33 q-22.5 -19.5 -38.5 -35 q-16 -15.5 -38 -36.5 q-22 -21 -36 -34 q-1 -1 -7 -6 q-6 -5 -10 -6 q-95 -513 -147 -723 q-6 -26 -32 -42 q-15 -9 -29 -8 q-11 0 -21 5 q-34 17 -34 61 q0 18 5 39 Z" /><glyph glyph-name="s" unicode="s" d="M-77 81 q16 34 59 48 q33 10 59 -2 q53 -23 115 -31 q33 -5 64 -5 q28 -1 57 3 q60 8 109.5 43 q49.5 35 70.5 94 q11 39 11 69 q0 35 -22 69 q-20 32 -44.5 55.5 q-24.5 23.5 -60 49 q-35.5 25.5 -66 44 q-30.5 18.5 -63.5 41.5 q-33 23 -52 41 q-75 77 -75 165 q1 25 7 51 q28 117 146 181 q104 57 226 61 q8 0 16 0 q113 0 210 -52 q32 -17 32 -43 q0 -11 -6 -24 q-17 -34 -58 -46 q-31 -8 -56 6 q-72 38 -147 38 q-40 0 -82 -11 q-65 -20 -109 -71 q-28 -33 -29 -69 q0 -20 9 -41 q20 -46 61.5 -84.5 q41.5 -38.5 88 -66 q46.5 -27.5 92 -57 q45.5 -29.5 81 -72.5 q35.5 -43 47.5 -98 q8 -33 8 -65 q0 -66 -34 -128 q-52 -92 -150 -145 q-111 -61 -241 -62 q-2 0 -5 0 q-127 0 -239 53 q-35 15 -35 41 q0 9 5 20 Z" /><glyph glyph-name="t" unicode="t" d="M2 948 q-1 6 -1 11 q-1 19 15 35 q20 22 47 22 q53 2 160 2 q37 156 45 203 q6 37 56 55 q22 8 40 8 q23 0 39 -12 q22 -16 15 -49 q-7 -37 -23 -105.5 q-16 -68.5 -22 -99.5 q102 0 190 8 q6 1 11 1 q43 0 67 -35 q13 -18 13 -34 q0 -15 -11 -28 q-15 -19 -49 -23 q-82 -8 -250 -8 q-70 -279 -102 -493 q-1 -6 -3 -17 q-9 -59 -13 -95 q-3 -23 -3 -54 q0 -17 0 -37 q2 -55 19 -92 q17 -42 34 -39 q34 0 105 41 q37 22 65 22 q24 0 41 -16 q19 -21 12 -49.5 q-7 -28.5 -30 -42.5 q-43 -26 -79 -43 q-36 -16 -84 -31 q-32 -10 -62 -10 q-15 1 -30 3 q-44 8 -77 38 q-35 34 -51 88 q-14 47 -14 91 q0 7 0 14 q2 51 6 102 q7 98 28.5 216.5 q21.5 118.5 39 192.5 q17.5 74 51.5 211 q-68 0 -101 -2 q-82 0 -94 51 Z" /><glyph glyph-name="u" unicode="u" d="M42 246 q0 6 0 12 q0 24 2 59 q4 45 6.5 64 q2.5 19 8.5 61 q12 86 29.5 172 q17.5 86 51 226 q33.5 140 40.5 172 q8 36 49 38 q2 0 4 0 q39 0 71 -27 q28 -23 28 -51 q0 -7 -2 -14 q-9 -41 -47.5 -203 q-38.5 -162 -55.5 -251 q-24 -148 -24 -228 q-4 -23 -3 -57 q0 -14 0 -30 q2 -55 21 -83 q6 -9 18.5 -12 q12.5 -3 30 1 q17.5 4 34 9.5 q16.5 5.5 37 16 q20.5 10.5 33.5 17.5 q13 7 30.5 17 q17.5 10 19.5 11 q122 71 231 174 q11 11 23 14 q21 117 29 172 q63 352 94 486 q12 52 48 53 q1 0 2 0 q31 0 50 -34 q12 -21 12 -46 q0 -10 -2 -20 q-49 -227 -92 -488 q-4 -24 -13 -78.5 q-9 -54.5 -13 -83.5 q22 -29 -7 -55 q0 -6 -4 -6 q-14 -107 -14 -182 q-1 -46 -31 -63.5 q-30 -17.5 -60 3 q-30 20.5 -30 66.5 q2 20 2 61 q-64 -50 -125.5 -86.5 q-61.5 -36.5 -130.5 -62.5 q-59 -22 -115 -21 q-10 1 -20 1 q-66 4 -121 42 q-26 19 -45 47 q-19 28 -29.5 54.5 q-10.5 26.5 -15 66.5 q-4.5 40 -5.5 66 Z" /><glyph glyph-name="v" unicode="v" d="M84 948 q-2 10 -2 19 q0 21 8 41 q12 28 39 43 q14 8 28 8 q10 0 21 -4 q26 -9 27 -37 q37 -290 133 -778 q122 192 170.5 269.5 q48.5 77.5 140.5 229.5 q92 152 160 275 q14 23 41 31.5 q27 8.5 51 -7.5 q17 -18 17 -45 q0 -27 -17 -63 q-159 -279 -553 -897 q-20 -33 -57 -34 q-1 0 -2 0 q-35 0 -45 40 q-118 565 -160 909 Z" /><glyph glyph-name="w" unicode="w" d="M84 956 q0 3 0 6 q0 43 37 74 q22 19 42 19 q12 0 22 -7 q19 -13 22 -49 q9 -129 41 -372.5 q32 -243.5 41 -354.5 q84 141 239 399.5 q155 258.5 199 332.5 q13 23 38.5 32.5 q25.5 9.5 47 -3 q21.5 -12.5 23.5 -46.5 q3 -87 15 -189.5 q12 -102.5 24 -173 q12 -70.5 33.5 -191 q21.5 -120.5 31.5 -177.5 q32 60 99 181.5 q67 121.5 106 195 q39 73.5 90.5 176.5 q51.5 103 87.5 188 q23 49 67 51 q2 0 5 0 q34 0 46 -29 q4 -10 4 -21 q0 -17 -9 -37 q-82 -190 -267 -533.5 q-185 -343.5 -219 -411.5 q-13 -26 -37 -34 q-8 -3 -16 -2 q-15 0 -29 9 q-20 14 -24 44 q-13 124 -58 368.5 q-45 244.5 -59 368.5 q-44 -74 -202 -337.5 q-158 -263.5 -242 -407.5 q-13 -24 -39.5 -33.5 q-26.5 -9.5 -48.5 3.5 q-22 13 -23 46 q0 173 -40.5 488 q-40.5 315 -47.5 427 Z" /><glyph glyph-name="x" unicode="x" d="M-81 33 q0 26 26 51 q242 265 409 453 q-115 225 -204 430 q-7 15 -7 27 q0 25 29 40 q22 12 45 12 q19 0 39 -8 q28 -11 39 -34 q68 -153 164 -347 q55 61 165.5 186 q110.5 125 166.5 187 q17 22 39 28 q10 3 19 3 q9 -1 19 -5 q16 -8 28 -22 q9 -11 9 -27 q0 -3 -1 -9 q-3 -22 -21 -44 q-68 -75 -192.5 -216 q-124.5 -141 -174.5 -197 q182 -363 240 -486 q6 -14 6 -26 q0 -27 -31 -43 q-23 -12 -47 -12 q-18 0 -37 7 q-27 12 -37 33 q-143 297 -200 410 q-140 -161 -375 -414 q-28 -29 -58 -29 q-12 0 -24 5 q-34 12 -34 47 Z" /><glyph glyph-name="y" unicode="y" d="M-80 -350 q-1 3 -1 6 q0 23 18 39 q17 17 37 20.5 q20 3.5 38.5 0 q18.5 -3.5 37.5 -5 q19 -1.5 40.5 11 q21.5 12.5 40.5 42.5 q18 29 81 127.5 q63 98.5 101 163.5 q-147 547 -188 901 q-1 4 -1 8 q0 30 32 50 q28 18 58 18 q10 0 20 -2 q40 -7 45 -47 q28 -259 143 -729 q47 88 101 195.5 q54 107.5 90.5 183 q36.5 75.5 97.5 202.5 q61 127 90 187 q18 38 73 38 q2 0 3 0 q48 0 67 -29 q7 -11 7 -24 q0 -13 -7 -28 q-229 -471 -399 -795 q-6 -12 -34.5 -66.5 q-28.5 -54.5 -38.5 -73 q-10 -18.5 -35.5 -64.5 q-25.5 -46 -41 -72.5 q-15.5 -26.5 -39 -63 q-23.5 -36.5 -45.5 -67.5 q-28 -42 -55.5 -73.5 q-27.5 -31.5 -63 -60 q-35.5 -28.5 -72.5 -41.5 q-31 -12 -70 -12 q-5 0 -11 0 q-45 2 -92 23 q-25 10 -27 37 Z" /><glyph glyph-name="z" unicode="z" d="M-78 73 q12 29 53 33 q6 3 9 11 q124 132 343.5 392 q219.5 260 317.5 368 q-67 -1 -141 -1 q-74 0 -164 0.5 q-90 0.5 -139 0.5 q-29 -1 -46 23.5 q-17 24.5 -17.5 54 q-0.5 29.5 14.5 55 q15 25.5 43 26.5 q59 0 191 -2 q99 -1 180 -1 q28 1 52 1 q100 0 191 4 q3 0 5 0 q32 0 48 -34 q9 -21 10 -42 q0 -17 -6 -35 q-13 -40 -49 -44 q-133 -140 -360 -409.5 q-227 -269.5 -316 -367.5 l480 0 q46 0 68 -29.5 q22 -29.5 5.5 -59 q-16.5 -29.5 -63.5 -29.5 l-633 0 q-44 0 -66 28 q-15 18 -14 37 q0 10 4 20 Z" /><glyph glyph-name="braceleft" unicode="{" d="M3 602 q11 35 52 58 q31 16 58 12 q66 -13 104 22.5 q38 35.5 64 110.5 q15 40 29 89.5 q14 49.5 22.5 85 q8.5 35.5 22 95 q13.5 59.5 20.5 88.5 q8 37 16.5 70 q8.5 33 21 71 q12.5 38 26.5 69.5 q14 31.5 33 64 q19 32.5 40.5 56.5 q21.5 24 49.5 43 q28 19 59 28.5 q31 9.5 69.5 9.5 q38.5 0 81.5 -12 q52 -15 38 -56 q-12 -35 -53 -55 q-30 -15 -57 -8 q-34 9 -55 6 q-4 0 -16 -12 q-34 -32 -66 -113 q-22 -70 -50 -200.5 q-28 -130.5 -34 -157.5 q-71 -289 -211 -379 q17 -36 24.5 -85 q7.5 -49 4 -111.5 q-3.5 -62.5 -7 -93 q-3.5 -30.5 -10.5 -87.5 q-2 -16 -10 -76 q-8 -60 -11 -89.5 q-3 -29.5 -3 -77.5 q0 -48 7 -85 q23 -108 180 -59 q47 15 66 -31 q16 -42 -5 -82 q-13 -27 -38 -33 q-210 -65 -287 60 q-62 104 -37 317 q3 35 19.5 157 q16.5 122 17.5 191 q0 77 -12 89 q-14 21 -74 12 q-49 -14 -53 49 q-49 10 -36 49 Z" /><glyph glyph-name="bar" unicode="|" d="M43 -213 q93 696 279 1616 q7 42 61 57 q51 14 82 -8 q20 -16 14 -43 q-188 -912 -274 -1616 q-6 -43 -58 -59 q-50 -16 -84 7 q-24 16 -20 46 Z" /><glyph glyph-name="braceright" unicode="}" d="M-164 -319 q-39 17 -40 50.5 q-1 33.5 31 64.5 q32 31 67 22 q70 -22 110.5 -6.5 q40.5 15.5 63.5 79.5 q12 29 21 59.5 q9 30.5 15.5 67 q6.5 36.5 10 60 q3.5 23.5 9 68.5 q5.5 45 7.5 61 q2 14 6.5 62.5 q4.5 48.5 7.5 71.5 q3 23 10 69.5 q7 46.5 14.5 73 q7.5 26.5 21 65.5 q13.5 39 29 65 q15.5 26 38.5 52.5 q23 26.5 51 44.5 q-27 111 15 325 q3 18 12 62.5 q9 44.5 13.5 70 q4.5 25.5 10 63 q5.5 37.5 7.5 70.5 q2 33 0 64 q-7 53 -11 64 q-1 3 -7 10 q-3 3 -1 2 q-34 24 -102 6 q-36 -8 -63 25.5 q-27 33.5 -25 74 q2 40.5 37 49.5 q86 20 154.5 -2 q68.5 -22 103.5 -94 q32 -67 34 -160 q2 -93 -12 -163 q-6 -42 -26 -159.5 q-20 -117.5 -27 -182.5 q-6 -60 -6 -64 q0 -12 4 -18 q3 0 9 2 q6 2 9 2 q35 12 61.5 -20.5 q26.5 -32.5 24.5 -75 q-2 -42.5 -37 -54.5 q-66 -21 -114 0 q-17 -7 -19 -12 q-20 -26 -28 -51 q-25 -66 -35 -146 q-6 -39 -21 -163.5 q-15 -124.5 -28 -192.5 q-12 -67 -32.5 -125.5 q-20.5 -58.5 -54.5 -113 q-34 -54.5 -79 -87 q-45 -32.5 -105.5 -46 q-60.5 -13.5 -134.5 9.5 Z" /><glyph glyph-name="asciitilde" unicode="~" d="M2 619 q-2 26 27 47 q8 6 60.5 43 q52.5 37 72 49 q19.5 12 60.5 32 q41 20 77 29 q43 7 76.5 8.5 q33.5 1.5 75 -7.5 q41.5 -9 73.5 -20 q32 -11 72 -28 q14 -6 49 -22.5 q35 -16.5 54.5 -25 q19.5 -8.5 48.5 -16.5 q29 -8 53 -8 q17 -1 33.5 7 q16.5 8 28 18.5 q11.5 10.5 25 30.5 q13.5 20 19.5 31.5 q6 11.5 17.5 35 q11.5 23.5 13.5 27.5 q15 32 59 36.5 q44 4.5 75 -19 q31 -23.5 15 -60.5 q-63 -135 -163 -192.5 q-100 -57.5 -234 -10.5 q-23 8 -118 50.5 q-95 42.5 -150 52.5 q-18 6 -40.5 3 q-22.5 -3 -39 -6.5 q-16.5 -3.5 -38 -14 q-21.5 -10.5 -37 -19.5 q-15.5 -9 -35.5 -23.5 q-20 -14.5 -34.5 -25.5 q-14.5 -11 -33 -25 q-18.5 -14 -31.5 -23 q-35 -26 -85 -4 q-43 18 -46 50 Z" /><glyph glyph-name="nonbreakingspace" unicode="" d="" /><glyph glyph-name="copyright" unicode="" d="M156.5 214 q-95.5 130 -110.5 294 q-15 164 63 346 q60 130 159.5 239 q99.5 109 225.5 177 q219 125 497 131 q220 6 362.5 -130.5 q142.5 -136.5 149.5 -363.5 q6 -187 -69 -374.5 q-75 -187.5 -220 -329.5 q-172 -169 -395.5 -218.5 q-223.5 -49.5 -412.5 33.5 q-154 66 -249.5 196 ZM178 496 q33 -112 114.5 -199 q81.5 -87 188.5 -132 q107 -45 237.5 -42.5 q130.5 2.5 252.5 61.5 q170 81 279.5 242 q109.5 161 123.5 340 q19 192 -77 326.5 q-96 134.5 -279 169.5 q-145 23 -338.5 -48 q-193.5 -71 -321.5 -196 q-112 -111 -164 -253 q-52 -142 -16 -269 ZM446 555 q-25 111 12.5 223 q37.5 112 133.5 197 q49 41 101 56.5 q52 15.5 106.5 6.5 q54.5 -9 94 -22.5 q39.5 -13.5 96.5 -37.5 q4 -2 6 -2.5 q2 -0.5 5 -2 q3 -1.5 5 -2.5 q35 -15 34 -69 q-1 -52 -31 -74 q-20 -15 -46 -3 q-4 2 -40.5 19 q-36.5 17 -50 22.5 q-13.5 5.5 -47.5 15.5 q-34 10 -54 9.5 q-20 -0.5 -47.5 -7.5 q-27.5 -7 -49.5 -24 q-66 -47 -99.5 -117 q-33.5 -70 -11.5 -133 q16 -45 47 -77.5 q31 -32.5 71 -45.5 q40 -13 82.5 -8.5 q42.5 4.5 84.5 34.5 q42 30 74 83 q30 50 68 29 q31 -17 36 -60 q4 -31 -10 -55 q-58 -97 -145.5 -153.5 q-87.5 -56.5 -182.5 -34.5 q-89 21 -155 83 q-66 62 -87 150 Z" /><glyph glyph-name="guillemotleft" unicode="" d="M47 504 q18 45 49.5 85.5 q31.5 40.5 77.5 89 q46 48.5 66 73.5 q9 11 68 95 q59 84 100 118 q66 44 96 10 q18 -21 12 -49.5 q-6 -28.5 -27 -44.5 q-37 -31 -87 -105 q-50 -74 -64 -90 q-19 -25 -71 -77.5 q-52 -52.5 -74 -84.5 q165 -154 221 -305 q17 -40 -23 -81 q-36 -37 -72 -31 q-24 3 -34 30 q-32 84 -89 155 q-57 71 -141 150 q-24 21 -8 62 ZM442 465 q-19 27 -17 55.5 q2 28.5 19 54.5 q32 48 106 124.5 q74 76.5 99 107.5 q12 16 44.5 63 q32.5 47 58 79 q25.5 32 53.5 59 q36 31 63 -8 q25 -38 16 -88 q-6 -27 -22 -42 q-37 -33 -88 -109 q-51 -76 -78 -104 q-89 -93 -127 -137 q89 -126 150 -270 q18 -43 -11 -85 q-25 -37 -56 -29 q-22 8 -36 38 q-77 170 -174 291 Z" /><glyph glyph-name="uni00AD" unicode="" d="M42 576 q-1 38 36 72 q27 24 55 24 l488 0 q48 0 48 -39 q1 -38 -36 -72 q-27 -24 -55 -24 l-488 0 q-48 0 -48 39 Z" /><glyph glyph-name="dieresis" unicode="" d="M71 508 q-31 105 -28.5 220 q2.5 115 40.5 233.5 q38 118.5 102.5 215 q64.5 96.5 166 163.5 q101.5 67 223.5 81 q105 24 196 5 q91 -19 165 -77 q74 -58 126 -138 q52 -80 78.5 -178 q26.5 -98 22.5 -197 q-6 -163 -88.5 -304 q-82.5 -141 -232.5 -223 q-111 -62 -237.5 -84.5 q-126.5 -22.5 -246 4 q-119.5 26.5 -192.5 105.5 q-64 69 -95 174 ZM188 877 q-17 -78 -8 -161 q9 -83 34.5 -153 q25.5 -70 82.5 -121.5 q57 -51.5 135 -66.5 q57 -9 120 -10 q63 -1 131 16.5 q68 17.5 127.5 45 q59.5 27.5 109 76.5 q49.5 49 75.5 111 q25 63 30.5 135.5 q5.5 72.5 -6.5 141.5 q-12 69 -41 135 q-29 66 -70 119.5 q-41 53.5 -95.5 91 q-54.5 37.5 -115.5 53 q-61 15.5 -133 2 q-72 -13.5 -144 -58.5 q-95 -47 -153.5 -143 q-58.5 -96 -78.5 -213 ZM334 561 q2 10 12 58.5 q10 48.5 13 62 q3 13.5 11 56 q8 42.5 11 62 q3 19.5 9 56 q6 36.5 8.5 61 q2.5 24.5 5.5 55.5 q3 31 4 60 q-12 17 -5 37 q6 18 17 29 q21 40 67 59 q46 19 62 -10 q72 4 135.5 -9 q63.5 -13 110 -56.5 q46.5 -43.5 39.5 -112.5 q-8 -134 -154 -215 q44 -50 72 -131 q11 -37 -24 -67 q-35 -30 -73 -29 q-38 1 -53 32 q-33 83 -74 129 q-7 -1 -18.5 -4 q-11.5 -3 -15.5 -4 q-3 -12 -19 -94 q-7 -41 -55 -67 q-47 -26 -74 -6 q-18 13 -12 48 ZM516 805 q30 6 60 17 q30 11 58 28 q28 17 41 41 q13 24 3 51 q-26 71 -131 78 q-5 -58 -31 -215 Z" /><glyph glyph-name="guillemotright" unicode="" d="M27 123 q-24 12 -26.5 40 q-2.5 28 15.5 46 q38 40 157.5 154 q119.5 114 178.5 182 q-39 66 -99 190.5 q-60 124.5 -81 163.5 q-9 21 -3 42 q6 21 26 35 q20 14 42 21 q22 7 43.5 0.5 q21.5 -6.5 32.5 -26.5 q20 -37 86 -176 q66 -139 111 -209 q9 -17 4.5 -33.5 q-4.5 -16.5 -16.5 -28.5 q-65 -79 -206.5 -214 q-141.5 -135 -160.5 -154 q-20 -23 -48.5 -33 q-28.5 -10 -55.5 0 ZM410 142.5 q-10 14.5 -6.5 37 q3.5 22.5 22.5 43.5 q30 34 96.5 104.5 q66.5 70.5 117 127 q50.5 56.5 91.5 110.5 q0 4 -2 8 q-8 15 -27 49 q-19 34 -28 52 q-51 88 -133 219 q-19 31 4.5 69.5 q23.5 38.5 58 46.5 q34.5 8 60.5 -24 q89 -142 159 -266 q1 -1 13.5 -22 q12.5 -21 14.5 -26 q2 -5 11.5 -23 q9.5 -18 10 -27 q0.5 -9 3 -23.5 q2.5 -14.5 -1.5 -26.5 q-4 -12 -12 -24 q-40 -67 -95.5 -132 q-55.5 -65 -141 -151.5 q-85.5 -86.5 -113.5 -116.5 q-18 -21 -39.5 -27.5 q-21.5 -6.5 -37 1 q-15.5 7.5 -25.5 22 Z" /><glyph glyph-name="afii10023" unicode="&#x401;" d="M93 42.5 q-16 30.5 -7.5 69 q8.5 38.5 35.5 54.5 q14 82 55 359 q41 277 77 457.5 q36 180.5 89 352.5 q-46 14 -52 47 q-6 33 23.5 56 q29.5 23 69.5 12 q29 36 68 26 q39 -10 41 -53 q97 -16 286 -14 q189 2 289 -10 q26 -2 44.5 -24.5 q18.5 -22.5 8.5 -47.5 q-17 -50 -100 -41 q-90 12 -280.5 10.5 q-190.5 -1.5 -280.5 12.5 q-65 -216 -113 -492 q64 2 235 10.5 q171 8.5 265 8.5 q51 0 74 -41 q20 -35 -3 -61 q-17 -19 -55 -19 q-81 -1 -260.5 -9 q-179.5 -8 -275.5 -8 q-17 -92 -43 -265 q-26 -173 -39 -247 q9 1 63.5 7.5 q54.5 6.5 68.5 8 q14 1.5 61.5 5.5 q47.5 4 67.5 3.5 q20 -0.5 61 -1 q41 -0.5 67.5 -5.5 q26.5 -5 61 -12.5 q34.5 -7.5 65.5 -19.5 q40 -17 42 -74 q1 -52 -30 -75 q-21 -15 -47 -5 q-65 25 -146 31.5 q-81 6.5 -139.5 1 q-58.5 -5.5 -155 -18 q-96.5 -12.5 -143.5 -16.5 q-32 -4 -48 26.5 ZM510 1638 q0 44 25 99 q29 49 32 55 q16 25 38.5 35.5 q22.5 10.5 49.5 -4.5 q23 -16 24.5 -49 q1.5 -33 -11.5 -56 q-5 -7 -15.5 -21.5 q-10.5 -14.5 -15.5 -21.5 q0 -7 -6 -16 l0 -2 q0 -6 -2 -8 q0 -28 -20 -54.5 q-20 -26.5 -48 -27.5 q-28 -3 -39.5 19 q-11.5 22 -11.5 52 ZM825 1573 q3 15 10.5 46 q7.5 31 10.5 46 q0 3 1 11 q1 8 1 14 q-32 20 -21 57 q10 27 38 41 q28 14 59 12 q21 -1 36.5 -9 q15.5 -8 24 -17 q8.5 -9 12.5 -26 q4 -17 4.5 -29.5 q0.5 -12.5 -2.5 -34.5 q-3 -22 -5.5 -33 q-2.5 -11 -8 -33.5 q-5.5 -22.5 -6.5 -28.5 q-6 -30 -28.5 -48.5 q-22.5 -18.5 -53.5 -20.5 q-23 -4 -51 11.5 q-28 15.5 -21 41.5 Z" /><glyph glyph-name="afii10051" unicode="&#x402;" d="M84 1266 q0 40 38 76 q27 26 56 26 q151 0 432.5 11.5 q281.5 11.5 403.5 13.5 q43 0 42 -38 q-1 -39 -39 -76 q-29 -28 -59 -28 q-94 0 -282 -8 q-19 -117 -105 -483 q23 9 58 18 q14 2 52.5 9 q38.5 7 59 10.5 q20.5 3.5 51.5 6.5 q31 3 56 3 q46 1 83.5 -0.5 q37.5 -1.5 82 -8 q44.5 -6.5 79.5 -20.5 q35 -14 68 -35.5 q33 -21.5 56 -56.5 q23 -35 34 -80 q26 -110 -19 -221 q-45 -111 -132 -209 q-180 -203 -387 -272 q-52 -17 -69 20 q-15 34 10 70 q18 26 48 35 q65 20 137 69 q72 49 133.5 112.5 q61.5 63.5 100 142 q38.5 78.5 35.5 149.5 q-6 100 -73 139 q-67 39 -177 39 q-61 0 -147 -14 q-29 -3 -68 -13 q-13 -2 -24 -6 q8 6 20 19 q-17 -20 -46 -31 q-29 -11 -52 -6 q-75 -348 -84 -551 q-1 -45 -31 -62 q-30 -17 -59 4 q-29 21 -27 68 q5 172 44 369.5 q39 197.5 92 418 q53 220.5 75 365.5 q-329 -14 -424 -14 q-44 0 -43 39 Z" /><glyph glyph-name="afii10052" unicode="&#x403;" d="M86 66 q39 145 81 321 q42 176 67.5 291 q25.5 115 73 335 q47.5 220 65.5 304 q-46 17 -56 51 q-9 24 9 46 q18 22 43 22 l706 0 q32 0 60 -14 q28 -14 39 -42 q7 -27 -10.5 -48 q-17.5 -21 -43.5 -21 l-626 0 q-17 -80 -65.5 -306.5 q-48.5 -226.5 -74 -341.5 q-25.5 -115 -67.5 -294.5 q-42 -179.5 -80 -327.5 q-13 -45 -48 -57.5 q-35 -12.5 -60 12 q-25 24.5 -13 70.5 ZM678 1556 q-23 17 -21 42 q2 25 21 44 q28 28 107 98.5 q79 70.5 118 114.5 q32 37 83 26 q41 -8 48 -39 q7 -26 -18 -54 q-41 -47 -120.5 -118.5 q-79.5 -71.5 -104.5 -96.5 q-22 -21 -54 -26 q-32 -5 -59 9 Z" /><glyph glyph-name="afii10053" unicode="&#x404;" d="M86 616 q18 378 197 568 q113 123 262.5 192 q149.5 69 307 77 q157.5 8 321.5 -34 q54 -14 51 -53 q-2 -33 -39 -51 q-31 -16 -66 -6 q-206 56 -410 -9 q-204 -65 -333 -233 q-82 -108 -113 -279 q330 -15 543 17 q35 5 56.5 -32.5 q21.5 -37.5 12 -78.5 q-9.5 -41 -48.5 -47 q-129 -18 -290 -19.5 q-161 -1.5 -289 5.5 q-4 -10 -4 -33 q-13 -293 102 -403 q40 -41 96 -63.5 q56 -22.5 109 -27.5 q53 -5 120.5 2.5 q67.5 7.5 115.5 18 q48 10.5 110 27.5 q49 12 90 -23 q36 -31 23 -59 q-8 -20 -41 -29 q-521 -143 -738 74 q-168 163 -145 499 Z" /><glyph glyph-name="afii10054" unicode="&#x405;" d="M-39 0 q-38 8 -41.5 49 q-3.5 41 22.5 75 q26 34 60 26 q314 -72 504 -15 q64 18 113.5 56.5 q49.5 38.5 54.5 95.5 q8 79 -23.5 149.5 q-31.5 70.5 -89.5 127 q-58 56.5 -119.5 104.5 q-61.5 48 -128.5 105 q-67 57 -102 106 q-61 85 -68 169.5 q-7 84.5 32.5 150.5 q39.5 66 106.5 122.5 q67 56.5 157 90 q90 33.5 181.5 49 q91.5 15.5 181 3.5 q89.5 -12 154.5 -51 q29 -25 26 -63.5 q-3 -38.5 -34 -67 q-31 -28.5 -63 -10.5 q-73 44 -179.5 47 q-106.5 3 -206 -28.5 q-99.5 -31.5 -165.5 -84.5 q-51 -42 -58.5 -91 q-7.5 -49 17.5 -92 q25 -43 72.5 -91.5 q47.5 -48.5 96 -84.5 q48.5 -36 99 -75.5 q50.5 -39.5 70.5 -60.5 q57 -60 97.5 -129.5 q40.5 -69.5 62 -146.5 q21.5 -77 7.5 -156.5 q-14 -79.5 -67 -145.5 q-211 -261 -770 -133 Z" /><glyph glyph-name="afii10055" unicode="&#x406;" d="M84 72 q129 544 258 1304 q6 35 47 49 q41 14 78 -2 q37 -16 31 -55 q-118 -716 -260 -1307 q-8 -39 -60 -50 q-50 -11 -80 14 q-21 18 -14 47 Z" /><glyph glyph-name="afii10056" unicode="&#x407;" d="M84 37 q14 110 37 235.5 q23 125.5 41 210 q18 84.5 58.5 239.5 q40.5 155 54.5 207 q14 52 67 238 q53 186 61 213 q11 39 63 58 q51 19 78 -2 q19 -15 11 -45 q-8 -28 -47 -162 q-39 -134 -50 -174 q-11 -40 -44 -159.5 q-33 -119.5 -46.5 -174.5 q-13.5 -55 -39.5 -160.5 q-26 -105.5 -39.5 -176.5 q-13.5 -71 -30 -162 q-16.5 -91 -27.5 -175 q-3 -41 -51 -61 q-47 -18 -78 2 q-23 16 -18 49 ZM283 1712 q0 31 18 58 q18 27 45 36 q19 6 36.5 1 q17.5 -5 25.5 -19 q13 3 26 0 q26 -7 34 -35 q8 -28 -3 -49 l0 -8 q-7 -17 -10 -33 q-30 -52 -82 -72 q-34 -15 -58 19 q-14 13 -21.5 31.5 q-7.5 18.5 -9 32.5 q-1.5 14 -1.5 38 ZM559 1657 q-27 13 -28.5 39.5 q-1.5 26.5 18.5 46.5 q20 34 67 37 q9 6 17 10 q22 12 51 10 q29 -2 45 -22 q15 -15 21 -25 q17 -35 -7 -63 q-24 -46 -67 -58 q-26 -6 -58 0 q-30 9 -59 25 Z" /><glyph glyph-name="afii10057" unicode="&#x408;" d="M-43 6 q-24 19 -33.5 47 q-9.5 28 0.5 58 q7 26 29.5 39.5 q22.5 13.5 46.5 -3.5 q135 -103 239 191 q29 84 64 235 q41 159 93.5 454.5 q52.5 295.5 74.5 399.5 q5 27 29 39.5 q24 12.5 49 -0.5 q24 -17 32.5 -47 q8.5 -30 0.5 -59 q-6 -27 -24 -143 q-82 -515 -163 -786 q-185 -618 -438 -425 Z" /><glyph glyph-name="afii10058" unicode="&#x409;" d="M-120 -2 q-7 34 26 63 q23 21 53 23 q52 3 97 23.5 q45 20.5 76.5 49 q31.5 28.5 60.5 71.5 q29 43 47.5 82 q18.5 39 38.5 91 q49 127 91 270.5 q42 143.5 89.5 329 q47.5 185.5 72.5 273.5 q16 29 33 37 q-14 23 -1 49 q13 26 52 33 q332 54 617 2 q29 -4 42 -24 q13 -20 7 -48 q-112 -384 -143 -508 q88 17 177.5 18.5 q89.5 1.5 179.5 -17 q90 -18.5 159.5 -56 q69.5 -37.5 114 -106.5 q44.5 -69 47.5 -162 q1 -77 -24.5 -143.5 q-25.5 -66.5 -72.5 -116 q-47 -49.5 -109.5 -90 q-62.5 -40.5 -135.5 -67 q-73 -26.5 -150.5 -45 q-77.5 -18.5 -155 -25.5 q-77.5 -7 -148 -7 q-70.5 0 -130.5 8 q-23 3 -38.5 18.5 q-15.5 15.5 -14.5 38.5 q28 256 112 617 q-22 18 -17.5 43 q4.5 25 42.5 43 q47 189 141 520 q-212 27 -424 0 q-4 -4 -4 -12 q-20 -68 -164 -586 q-75 -267 -131 -389 q-146 -314 -450 -336 q-55 -3 -63 35 ZM999 121 q188 -12 394 57 q56 19 100.5 42.5 q44.5 23.5 84.5 58 q40 34.5 62 82.5 q22 48 21 106 q-2 91 -59.5 150 q-57.5 59 -143 79 q-85.5 20 -177.5 17.5 q-92 -2.5 -173 -25.5 q-85 -335 -109 -567 Z" /><glyph glyph-name="afii10059" unicode="&#x40a;" d="M86 84 q107 413 166 661 q-18 18 -12.5 45 q5.5 27 32.5 39 q3 13 9.5 39.5 q6.5 26.5 9.5 38.5 q12 39 32 117 q20 78 31 117 q1 7 13.5 52 q12.5 45 18.5 78 q6 33 1 44 q-19 44 9 88 q24 38 54 31 q23 -5 37 -39 q14 -31 15.5 -73.5 q1.5 -42.5 -3.5 -71 q-5 -28.5 -16 -76.5 q-25 -116 -61 -248 q-3 -13 -11.5 -41.5 q-8.5 -28.5 -11.5 -46.5 q330 6 656 24 q9 29 12 58 q14 57 29 160 q15 103 33.5 188 q18.5 85 50.5 153 q17 35 60.5 37 q43.5 2 74 -24 q30.5 -26 14.5 -60 q-32 -69 -51 -151 q-19 -82 -34.5 -191 q-15.5 -109 -26.5 -160 q63 4 108 4.5 q45 0.5 107.5 -2 q62.5 -2.5 110.5 -15 q48 -12.5 97.5 -32.5 q49.5 -20 87.5 -56 q38 -36 64 -85 q61 -129 25.5 -265.5 q-35.5 -136.5 -142.5 -230.5 q-62 -55 -149.5 -91.5 q-87.5 -36.5 -156.5 -50 q-69 -13.5 -180.5 -31.5 q-111.5 -18 -164.5 -29 q-39 -9 -68.5 13 q-29.5 22 -27.5 52 q-26 30 -21 58 q47 302 121 630 l-6 0 q-307 -20 -653 -20 q-64 -262 -168 -676 q-12 -47 -44.5 -54 q-32.5 -7 -56.5 22.5 q-24 29.5 -14 70.5 ZM1065 117 q22 3 84 11.5 q62 8.5 91 13 q29 4.5 82.5 16 q53.5 11.5 87 24 q33.5 12.5 73 33.5 q39.5 21 69.5 47 q54 49 88.5 118.5 q34.5 69.5 35 149 q0.5 79.5 -45.5 138.5 q-44 56 -111 73 q-67 17 -163 17 q-109 0 -164 -4 q-94 -422 -127 -637 Z" /><glyph glyph-name="afii10060" unicode="&#x40b;" d="M145 1276 q-41 0 -56 40 q-15 40 2 80 q17 40 54 40 q185 0 529 10 q344 10 485 12 q40 0 54.5 -39.5 q14.5 -39.5 -2.5 -79 q-17 -39.5 -52 -39.5 q-80 0 -475 -10 q-26 -104 -77.5 -294 q-51.5 -190 -63.5 -236 q68 28 110.5 44 q42.5 16 108 34.5 q65.5 18.5 113.5 22 q48 3.5 104 -6 q56 -9.5 102 -37.5 q85 -51 113.5 -153 q28.5 -102 17.5 -220 q-12 -93 -66 -261.5 q-54 -168.5 -59 -188.5 q-14 -53 -54 -46 q-34 6 -53 44 q-16 31 -7 63 q6 20 25 73 q19 53 36 105 q17 52 36 117 q19 65 25 121 q6 56 1.5 106 q-4.5 50 -33.5 81.5 q-29 31.5 -80 37.5 q-48 5 -97 0 q-49 -5 -104 -20.5 q-55 -15.5 -91.5 -28 q-36.5 -12.5 -101.5 -37.5 q-65 -25 -91 -35 q-71 -301 -107 -548 q-5 -38 -45.5 -43.5 q-40.5 -5.5 -77.5 19 q-37 24.5 -32 60.5 q32 230 100 525 q-10 27 -4 60.5 q6 33.5 28 47.5 q46 177 158 588 q-250 -8 -373 -8 Z" /><glyph glyph-name="afii10061" unicode="&#x40c;" d="M88 92 q57 197 131 610 q0 15 4 19 q30 159 50 254 q20 95 56.5 232 q36.5 137 78.5 249 q20 49 60 30 q35 -16 50 -61 q12 -33 2 -61 q-82 -205 -151 -559 q62 22 123.5 56.5 q61.5 34.5 109 68 q47.5 33.5 105 89 q57.5 55.5 92.5 92 q35 36.5 91.5 106.5 q56.5 70 82 103.5 q25.5 33.5 82.5 109.5 q16 26 44 40 q28 14 56 7 q27 -10 34 -37 q7 -27 -9 -47 q-82 -110 -139 -181.5 q-57 -71.5 -136.5 -161 q-79.5 -89.5 -162.5 -158.5 q-83 -69 -173 -122 q245 -396 365 -698 q18 -40 -14 -89 q-27 -41 -58 -39 q-24 2 -37 33 q-118 302 -381 730 q-56 -24 -104 -41 q-8 -43 -30.5 -160.5 q-22.5 -117.5 -34.5 -178.5 q-12 -61 -33.5 -155 q-21.5 -94 -42.5 -170 q-7 -26 -35.5 -31 q-28.5 -5 -48.5 11 q-45 37 -27 110 ZM836 1614 q-26 9 -33 34 q-7 25 12 46 q2 2 18 18.5 q16 16.5 19.5 19.5 q3.5 3 18.5 17.5 q15 14.5 20.5 19 q5.5 4.5 19.5 16.5 q14 12 22 17 q8 5 21.5 14.5 q13.5 9.5 24 14.5 q10.5 5 23.5 10.5 q13 5.5 26 9.5 q27 8 55 -2.5 q28 -10.5 35 -36.5 q7 -28 -13 -48 q-20 -20 -50 -29 l-11 -6 q-7 -5 -18 -15.5 q-11 -10.5 -18 -15.5 l-62 -62 q-22 -21 -52 -27 q-30 -6 -58 5 Z" /><glyph glyph-name="afii10062" unicode="&#x40e;" d="M88 141 q16 40 48 43 q27 3 52 -26 q5 -9 23.5 -12.5 q18.5 -3.5 40.5 4.5 q61 30 131 100 q74 85 109 131 q-2 2 -5.5 7 q-3.5 5 -5.5 7 q-18 48 -147 373.5 q-129 325.5 -187 499.5 q-20 16 -20 41 l-6 30 q-2 38 31.5 71 q33.5 33 70.5 26 q28 -7 44.5 -36 q16.5 -29 29 -78.5 q12.5 -49.5 16.5 -59.5 q43 -123 99 -263 q31 -80 93 -236 q62 -156 91 -231 q19 27 84 136 q163 286 250 479 q52 117 80 186 q3 12 9 28.5 q6 16.5 7 20.5 q1 5 4 18 l4 15 l0 -8 q1 54 40 62 q34 7 61 -24 q21 -25 20 -59 q-1 -40 -16 -91 q-15 -51 -28.5 -83 q-13.5 -32 -43 -93.5 q-29.5 -61.5 -37.5 -78.5 q-133 -288 -287 -534 q-109 -178 -169 -259 q-288 -387 -462 -205 q-6 6 -12 13 q-31 37 -12 86 ZM361 1610 q-7 44 22 81 q21 27 51 27 l522 0 q41 0 50.5 -38 q9.5 -38 -13 -76.5 q-22.5 -38.5 -57.5 -38.5 l-524 0 q-44 0 -51 45 Z" /><glyph glyph-name="afii10145" unicode="&#x40f;" d="M96.5 31.5 q-17.5 20.5 -12.5 45.5 q5 25 27 40 l0 10 q30 147 83 399.5 q53 252.5 96.5 464.5 q43.5 212 78.5 398 q7 42 59 58 q50 17 81 -5 q21 -15 15 -43 q-64 -346 -256 -1264 l-6 -18 q379 -35 666 -11 q51 184 89.5 391.5 q38.5 207.5 77.5 473.5 q39 266 62 397 q8 40 60 57.5 q52 17.5 83 -4.5 q20 -15 15 -43 q-25 -138 -66 -408.5 q-41 -270.5 -80.5 -484.5 q-39.5 -214 -91.5 -403 q-1 -1 -5.5 -10 q-4.5 -9 -8.5 -13 q8 -25 -7.5 -44.5 q-15.5 -19.5 -54.5 -22.5 q-149 -17 -376 -17 q-15 -55 -31 -174.5 q-16 -119.5 -33 -177.5 q-12 -42 -62 -57 q-47 -14 -72 10 q-18 18 -7 53 q17 61 32.5 180 q15.5 119 28.5 173 q-140 5 -331 26 q-36 3 -53.5 23.5 Z" /><glyph glyph-name="afii10017" unicode="&#x410;" d="M-59 -1 q-7 26 14 58 q74 108 142.5 250.5 q68.5 142.5 138 299.5 q69.5 157 126.5 259 q14 26 44.5 80.5 q30.5 54.5 48.5 87 q18 32.5 42.5 79.5 q24.5 47 43.5 87 q5 11 17.5 36.5 q12.5 25.5 20 41.5 q7.5 16 16.5 39 q9 23 15 43 l0 147 q0 29 26 47 q26 18 60 21 q28 15 52.5 7 q24.5 -8 25.5 -42 q3 -49 -6 -98 q2 -126 21.5 -275.5 q19.5 -149.5 38.5 -247.5 q19 -98 57 -272 q3 0 8 -1 q5 -1 6 -1 q32 -5 45.5 -36.5 q13.5 -31.5 5.5 -66.5 q-8 -35 -32 -50 q63 -270 88 -502 q2 -23 -13 -40 q-15 -17 -38 -23 q-23 -6 -46 -5 q-23 1 -41 14 q-18 13 -20 35 q-22 213 -92 531 q-201 6 -391 -33 q-4 -35 -33 -53 q-21 -12 -45 -2 q-134 -278 -224 -414 q-31 -42 -77 -36 q-37 4 -45 35 ZM383 633 q201 28 338 26 q-66 326 -86 455 q-53 -106 -143 -264 q-62 -118 -109 -217 Z" /><glyph glyph-name="afii10018" unicode="&#x411;" d="M27 -37 q-18 12 -23.5 31.5 q-5.5 19.5 2.5 36.5 q-1 17 0 35 q1 18 6 42.5 q5 24.5 6.5 33.5 q1.5 9 10 40.5 q8.5 31.5 8.5 32.5 q30 117 113 354 q15 40 50.5 133 q35.5 93 55 148 q19.5 55 44 135 q24.5 80 37.5 152.5 q13 72.5 15 142.5 q-26 11 -34 46.5 q-8 35.5 6.5 68.5 q14.5 33 44.5 37 l4 0 q28 28 63.5 34 q35.5 6 52.5 -20 q383 51 609 51 q38 0 48 -39 q10 -39 -11 -78.5 q-21 -39.5 -60 -40.5 q-246 0 -577 -47 q-11 -180 -88 -409 q285 22 454 -76 q117 -72 160 -197 q43 -125 -14 -254 q-95 -209 -420 -321 q-261 -89 -486 -86 q-53 -17 -77 14 ZM154 70 q170 9 348 69 q57 20 101.5 39.5 q44.5 19.5 95 48.5 q50.5 29 89 67.5 q38.5 38.5 62.5 84.5 q32 61 33.5 127.5 q1.5 66.5 -31 125 q-32.5 58.5 -94.5 87.5 q-146 71 -385 37 l-8 0 q-38 -101 -48 -133 q-81 -217 -127 -363 q-2 -7 -14 -53.5 q-12 -46.5 -18.5 -80.5 q-6.5 -34 -3.5 -56 Z" /><glyph glyph-name="afii10019" unicode="&#x412;" d="M47 -49 q-35 2 -43.5 21.5 q-8.5 19.5 4.5 44 q13 24.5 37 42.5 q0 21 2 33 q49 162 197 582 q-15 32 -5 68.5 q10 36.5 42 45.5 q107 326 149 555 q-16 21 -21 48.5 q-5 27.5 5.5 49.5 q10.5 22 36.5 25 q66 10 108.5 15.5 q42.5 5.5 108.5 8.5 q66 3 115 -3 q49 -6 105 -24.5 q56 -18.5 101 -49.5 q64 -45 111.5 -119 q47.5 -74 61.5 -157 q14 -83 -23 -158 q-70 -143 -279 -225 q39 -19 68 -45 q71 -51 112 -127.5 q41 -76.5 38.5 -164.5 q-2.5 -88 -56.5 -161 q-74 -100 -195 -158.5 q-121 -58.5 -276 -95.5 q-274 -62 -504 -51 ZM176 78 q145 3 309 35 q84 18 136.5 31.5 q52.5 13.5 124.5 45.5 q72 32 118 74 q72 69 63 163 q-9 94 -87 157 q-97 78 -222 96 q-124 -29 -251 -41 q-145 -414 -191 -561 ZM422 803 q145 22 233 49 q80 23 125.5 38 q45.5 15 111 49.5 q65.5 34.5 103.5 76.5 q59 72 35 153.5 q-24 81.5 -108 120.5 q-54 26 -121.5 35.5 q-67.5 9.5 -120.5 7.5 q-53 -2 -127 -10 q-46 -246 -131 -520 Z" /><glyph glyph-name="afii10020" unicode="&#x413;" d="M84 53 q134 720 274 1338 q10 38 59.5 49 q49.5 11 78.5 -10 q62 0 149 8.5 q87 8.5 152 16.5 q65 8 147.5 6.5 q82.5 -1.5 151.5 -17.5 q34 -7 45.5 -49.5 q11.5 -42.5 -8 -78 q-19.5 -35.5 -58.5 -26.5 q-67 15 -147 15.5 q-80 0.5 -144 -8.5 q-64 -9 -149 -18 q-85 -9 -146 -9 q-118 -534 -249 -1229 q-8 -35 -50.5 -48 q-42.5 -13 -78 4.5 q-35.5 17.5 -27.5 55.5 Z" /><glyph glyph-name="afii10021" unicode="&#x414;" d="M-164 -324 q1 73 31 211 q30 138 33 203 q0 26 22 54 q22 28 52.5 37 q30.5 9 62.5 -15 q14 -1 39 -2.5 q25 -1.5 45.5 -2.5 q20.5 -1 38.5 -1 q23 14 41 39 q41 55 75 127 q83 171 148 368 q61 208 102 375 q2 10 9 39 q7 29 10.5 44.5 q3.5 15.5 7 40.5 q3.5 25 4.5 46 q2 11 4 10 q0 25 6 37 l-12 0 q-45 0 -48 42 q-4 42 30 78 q25 25 53 26 l520 0 q29 0 41.5 -21.5 q12.5 -21.5 9.5 -50.5 q-24 -151 -79.5 -368.5 q-55.5 -217.5 -100 -418.5 q-44.5 -201 -55.5 -372 q138 -3 243 -29 q32 -8 42 -39.5 q10 -31.5 1 -66.5 q-10 -39 -35 -108 q-25 -69 -39.5 -125.5 q-14.5 -56.5 -15.5 -111.5 q-1 -54 -40 -65 q-34 -9 -59 21 q-19 24 -17 61 q0 25 4 52.5 q4 27.5 7 45 q3 17.5 13.5 53 q10.5 35.5 13 44 q2.5 8.5 16.5 51.5 q14 43 15 45 q-46 20 -194 17 q-148 -3 -299.5 -16.5 q-151.5 -13.5 -294.5 -23.5 q-143 -10 -178 -4 l-7 0 q-25 0 -75 4 q-4 -20 -19 -86.5 q-15 -66.5 -21.5 -112 q-6.5 -45.5 -6.5 -90.5 q0 -40 -47 -69 q-46 -29 -77 -13 q-20 11 -20 41 ZM322 164 q73 4 231.5 19 q158.5 15 241.5 18 q13 162 53 348 q40 186 92.5 394 q52.5 208 77.5 343 l-332 0 q1 -27 1.5 -42 q0.5 -15 -5.5 -44 q-6 -29 -9.5 -43.5 q-3.5 -14.5 -11.5 -40.5 q-8 -26 -10 -35 q-50 -229 -123 -444 q-97 -290 -180 -432 q-8 -10 -26 -41 ZM561 1245 q2 -2 2 -4 q0 1 -1 2 q-1 1 -1 2 Z" /><glyph glyph-name="afii10022" unicode="&#x415;" d="M86 94 q47 165 130.5 572 q83.5 407 154.5 618 q-13 38 10 81 q23 43 65 42 q69 -4 165 5 q96 9 169 19 q73 10 164 6 q91 -4 166 -30 q34 -13 39 -56.5 q5 -43.5 -17.5 -77 q-22.5 -33.5 -56.5 -22.5 q-85 31 -175.5 33 q-90.5 2 -222 -14 q-131.5 -16 -181.5 -19 q-66 -185 -121 -426 q35 1 250 18.5 q215 17.5 329 10.5 q40 -3 52.5 -42.5 q12.5 -39.5 -6.5 -77.5 q-19 -38 -54 -36 q-118 7 -333.5 -9.5 q-215.5 -16.5 -268.5 -18.5 q-8 -39 -35 -171 q-27 -132 -46 -218.5 q-19 -86.5 -40 -169.5 q82 3 258.5 24.5 q176.5 21.5 268.5 22.5 q50 0 74 -40 q21 -35 -2 -61 q-16 -18 -52 -18 q-97 -2 -286.5 -25.5 q-189.5 -23.5 -282.5 -25.5 q-1 0 -31 6 q-33 -15 -65 20 q-32 35 -19 80 Z" /><glyph glyph-name="afii10024" unicode="&#x416;" d="M-78 90 q25 67 77.5 140 q52.5 73 99.5 121.5 q47 48.5 116 113.5 q96 92 176.5 154.5 q80.5 62.5 169.5 99.5 q-122 128 -209.5 299 q-87.5 171 -128.5 348 q-7 36 30 52.5 q37 16.5 79.5 4 q42.5 -12.5 50.5 -48.5 q35 -160 118 -320 q83 -160 197 -274 q67 385 140 592 q9 25 35.5 34.5 q26.5 9.5 46.5 -7.5 q45 -35 20 -109 q-68 -196 -131 -540 q140 71 287 221 q201 208 286 377 q19 43 67 47 q42 4 59 -25 q13 -24 -3 -59 q-98 -205 -325 -424 q-134 -130 -230 -193 q115 -35 174 -121 q45 -63 84 -145.5 q39 -82.5 79.5 -184 q40.5 -101.5 66.5 -155.5 q20 -43 -21 -85 q-36 -36 -73 -31 q-24 3 -35 26 q-16 33 -86.5 202.5 q-70.5 169.5 -122.5 250.5 q-75 119 -234 129 q-61 -386 -104 -553 q-14 -53 -54 -52 q-34 0 -54 35 q-16 29 -7 64 q52 189 103 520 q-9 9 -9 22 q-46 -16 -91 -43 q-45 -27 -94.5 -70 q-49.5 -43 -74 -66.5 q-24.5 -23.5 -75.5 -74.5 q-2 -2 -32.5 -31.5 q-30.5 -29.5 -37.5 -36.5 q-7 -7 -33.5 -34.5 q-26.5 -27.5 -36.5 -39.5 q-10 -12 -30.5 -37.5 q-20.5 -25.5 -31 -43 q-10.5 -17.5 -23 -40.5 q-12.5 -23 -19.5 -44 q-14 -34 -57.5 -39 q-43.5 -5 -77 17.5 q-33.5 22.5 -21.5 56.5 Z" /><glyph glyph-name="afii10025" unicode="&#x417;" d="M-61 39 q-26 25 -15.5 59 q10.5 34 50.5 56 q40 22 71 2 q79 -54 198.5 -57 q119.5 -3 229.5 45.5 q110 48.5 156 134.5 q53 109 21.5 197.5 q-31.5 88.5 -120 143.5 q-88.5 55 -192.5 54 q-41 -15 -74 -21 q-44 -13 -61 33 q-16 44 5 87 q13 27 38 34 q88 23 144 41 q56 18 136.5 50.5 q80.5 32.5 141 76 q60.5 43.5 100.5 98.5 q30 46 20 93.5 q-10 47.5 -45.5 87 q-35.5 39.5 -80.5 57.5 q-31 13 -67.5 18 q-36.5 5 -64.5 5.5 q-28 0.5 -71.5 -7 q-43.5 -7.5 -65.5 -12 q-22 -4.5 -71 -17 q-49 -12.5 -64 -16.5 q-44 -11 -60 36 q-16 45 6 86 q15 26 40 32 q165 41 225 49 q179 22 289 -58 q89 -63 131.5 -166.5 q42.5 -103.5 5.5 -201.5 q-64 -178 -303 -293 q68 -33 108 -76 q87 -88 98 -219.5 q11 -131.5 -55 -237.5 q-56 -92 -154.5 -159 q-98.5 -67 -209.5 -95.5 q-111 -28.5 -229.5 -14.5 q-118.5 14 -210.5 75 Z" /><glyph glyph-name="afii10026" unicode="&#x418;" d="M86 135 q36 114 66 230.5 q30 116.5 57 267.5 q27 151 40 226 q13 75 42 270 q29 195 35 237 q7 42 59 63 q50 20 80 1 q20 -13 16 -41 q-7 -46 -38 -253.5 q-31 -207.5 -45 -292 q-14 -84.5 -43.5 -237 q-29.5 -152.5 -59.5 -274.5 q493 625 858 999 q21 23 46 32 q25 9 54 -3 l2 -2 q39 -3 62.5 -25 q23.5 -22 9.5 -55 q-20 -47 -37.5 -102 q-17.5 -55 -28 -93 q-10.5 -38 -24 -109 q-13.5 -71 -18 -96 q-4.5 -25 -18 -111 q-13.5 -86 -15.5 -99 q-3 -19 -13.5 -81 q-10.5 -62 -14.5 -85.5 q-4 -23.5 -14 -79.5 q-10 -56 -16.5 -85.5 q-6.5 -29.5 -17 -79 q-10.5 -49.5 -20 -84.5 q-9.5 -35 -22 -77.5 q-12.5 -42.5 -26.5 -81.5 q-11 -34 -54 -40 q-43 -6 -76 17.5 q-33 23.5 -19 61.5 q26 76 49 172 q23 96 33.5 152 q10.5 56 31.5 184.5 q21 128.5 27 161.5 q54 303 76 389 q-77 -82 -160.5 -177.5 q-83.5 -95.5 -146 -169 q-62.5 -73.5 -156.5 -189 q-94 -115.5 -140.5 -173.5 q-46.5 -58 -152 -191 q-105.5 -133 -141.5 -177 q-32 -41 -78 -34 q-37 6 -45 37 q-5 20 8 44 q-19 19 -12 53 Z" /><glyph glyph-name="afii10027" unicode="&#x419;" d="M84 82 q17 144 57.5 325 q40.5 181 78.5 324 q38 143 74 323 q36 180 48 330 q4 48 46 69 q38 20 63 -5 q17 -17 14 -53 q-15 -165 -54.5 -350.5 q-39.5 -185.5 -94 -400 q-54.5 -214.5 -80.5 -345.5 q98 117 401 477 q43 50 148 176.5 q105 126.5 184.5 216.5 q79.5 90 158.5 168 q24 21 64 21 q11 43 56 62 q42 18 63 -7 q15 -17 10 -49 q-12 -79 -26 -164.5 q-14 -85.5 -26.5 -154 q-12.5 -68.5 -31.5 -166.5 q-19 -98 -30.5 -154 q-11.5 -56 -35 -166 q-23.5 -110 -33 -153.5 q-9.5 -43.5 -36.5 -166.5 q-27 -123 -35 -157 q-5 -29 -25 -53 q-20 -24 -49 -25 q-27 -4 -43.5 17.5 q-16.5 21.5 -11.5 48.5 q163 731 225 1110 q-65 -70 -128.5 -145 q-63.5 -75 -157.5 -189.5 q-94 -114.5 -123 -149.5 q-43 -52 -160 -189 q-117 -137 -197.5 -234.5 q-80.5 -97.5 -154.5 -192.5 q-16 -23 -54 -31 q-17 -25 -44.5 -33 q-27.5 -8 -46.5 9.5 q-19 17.5 -13 56.5 ZM608 1716 q-7 41 40 72 q45 30 80 16 q23 -9 28 -37 q11 -62 58 -81.5 q47 -19.5 106.5 -3.5 q59.5 16 114 43.5 q54.5 27.5 89.5 56.5 q42 32 88 15 q37 -13 37 -45 q0 -25 -30 -50 q-46 -38 -114 -74 q-68 -36 -149 -58.5 q-81 -22.5 -152.5 -23 q-71.5 -0.5 -126 41.5 q-54.5 42 -69.5 128 Z" /><glyph glyph-name="afii10028" unicode="&#x41a;" d="M88 70 q118 355 180 664.5 q62 309.5 54 611.5 q0 74 53 96 q25 11 50 0.5 q25 -10.5 26 -37.5 q8 -274 -43 -592 q155 41 317 231 q164 188 197 328 q11 42 56 62 q44 18 66 -5 q17 -18 7 -55 q-47 -198 -258 -432 q-108 -119 -199 -178 q33 -17 65 -47.5 q32 -30.5 60 -73 q28 -42.5 44 -70.5 q16 -28 38 -69 q160 -294 215 -504 q9 -37 -25.5 -60.5 q-34.5 -23.5 -77 -17 q-42.5 6.5 -51.5 42.5 q-37 144 -157 389 q-71 141 -123 217 q-32 49 -58 70 q-2 1 -7 7 q-5 6 -7 7 q-50 -3 -80 23 q-16 -4 -29 -4 q-8 -4 -24 -4 q-50 -258 -168 -617 q-14 -46 -58 -58 q-41 -11 -60 16 q-15 22 -3 59 Z" /><glyph glyph-name="afii10029" unicode="&#x41b;" d="M-56.5 46.5 q-26.5 31.5 -25 73.5 q1.5 42 34.5 70 q21 16 43 9 q22 -7 33 -29 q111 10 204 135 q108 130 205 359 q91 220 135 403 q43 200 35 291 l0 22 q-24 35 19 62 q41 27 88 16 q20 -5 33 -18 q19 -19 46.5 -26 q27.5 -7 61.5 -2.5 q34 4.5 60.5 10.5 q26.5 6 63.5 17.5 q37 11.5 50 14.5 q57 12 98 17.5 q41 5.5 94 4 q53 -1.5 99 -15.5 q27 -9 37 -34 q10 -25 -4 -48 q-78 -143 -139.5 -325.5 q-61.5 -182.5 -94.5 -333 q-33 -150.5 -80 -350.5 q-47 -200 -90 -336 q-13 -39 -68 -44 q-53 -6 -79 23 q-17 19 -8 47 q43 134 89 325 q46 191 79 337 q33 146 89.5 322.5 q56.5 176.5 125.5 316.5 q-52 0 -151 -25.5 q-99 -25.5 -124 -29.5 q-90 -19 -176 2 q2 -55 -7.5 -123.5 q-9.5 -68.5 -19.5 -111.5 q-10 -43 -30 -118 q-83 -298 -193 -510 q-34 -65 -58.5 -107.5 q-24.5 -42.5 -62.5 -98.5 q-38 -56 -81 -98.5 q-43 -42.5 -91 -71.5 q-94 -64 -172 -56 q-42 3 -68.5 34.5 Z" /><glyph glyph-name="afii10030" unicode="&#x41c;" d="M84 76 q18 141 61.5 397.5 q43.5 256.5 70 468 q26.5 211.5 28.5 401.5 q0 29 26.5 53 q26.5 24 56.5 27 q30 3 50 -14 q16 3 29.5 -3.5 q13.5 -6.5 17.5 -21.5 q42 -110 162.5 -366.5 q120.5 -256.5 167.5 -401.5 q90 103 209 263.5 q119 160.5 233 306 q114 145.5 223 254.5 q22 21 60.5 23.5 q38.5 2.5 65.5 -18.5 q27 -21 18 -59 q-36 -143 -102.5 -428 q-66.5 -285 -124 -509 q-57.5 -224 -122.5 -422 q-7 -21 -27.5 -32 q-20.5 -11 -44.5 -9.5 q-24 1.5 -45 10 q-21 8.5 -32 28 q-11 19.5 -4 42.5 q34 99 64.5 201.5 q30.5 102.5 62.5 227.5 q32 125 49.5 198.5 q17.5 73.5 53.5 231 q36 157.5 48 208.5 q-63 -79 -166 -218 q-103 -139 -193.5 -254 q-90.5 -115 -178.5 -208 q0 -14 -7 -27 q-7 -13 -19 -23 q-12 -10 -26 -17.5 q-14 -7.5 -29.5 -9.5 q-15.5 -2 -28.5 0.5 q-13 2.5 -23.5 13 q-10.5 10.5 -14.5 26.5 q0 1 -2 5.5 q-2 4.5 -2 6.5 q-35 25 -14 55 q-18 62 -40.5 124 q-22.5 62 -53 132 q-30.5 70 -51 115.5 q-20.5 45.5 -60 129.5 q-39.5 84 -55.5 118 q-16 -185 -72 -522.5 q-56 -337.5 -72 -470.5 q-7 -42 -57 -68 q-49 -25 -77 -5 q-16 12 -13 40 Z" /><glyph glyph-name="afii10031" unicode="&#x41d;" d="M84 59 q10 97 29 195 q19 98 55 253 q36 155 45 195 q6 30 32.5 145 q26.5 115 37 168 q10.5 53 22 142.5 q11.5 89.5 10.5 161.5 q-2 42 44 72 q43 28 75 13 q22 -11 23 -44 q2 -92 -13.5 -204.5 q-15.5 -112.5 -31 -182 q-15.5 -69.5 -47.5 -201.5 q78 -11 172.5 -13 q94.5 -2 168.5 1.5 q74 3.5 174.5 8.5 q100.5 5 168.5 5 l12 0 q71 318 76 559 q0 36 37.5 58.5 q37.5 22.5 74.5 12.5 q37 -10 37 -52 q-2 -155 -32.5 -335 q-30.5 -180 -68.5 -321.5 q-38 -141.5 -83 -327.5 q-45 -186 -66 -325 q-5 -38 -54 -59 q-49 -21 -79 -2 q-21 14 -16 45 q33 202 139 602 q-69 -1 -172 -6.5 q-103 -5.5 -178.5 -10 q-75.5 -4.5 -170 -2.5 q-94.5 2 -173.5 13 q-3 -12 -14 -60 q-11 -48 -15 -64 q-4 -16 -14 -59.5 q-10 -43.5 -14 -64.5 q-4 -21 -12 -60 q-8 -39 -12.5 -64.5 q-4.5 -25.5 -10.5 -60 q-6 -34.5 -10 -65.5 q-4 -31 -7 -62 q-4 -41 -49 -60.5 q-45 -19.5 -73 3.5 q-21 16 -17 53 Z" /><glyph glyph-name="afii10032" unicode="&#x41e;" d="M84 506 q-13 337 94 624 q125 310 316 322 q32 3 40 -24 q8 -27 -6 -58 q159 127 332 135 q124 3 213.5 -70.5 q89.5 -73.5 124.5 -195.5 q44 -146 31 -309 q-13 -163 -66 -316.5 q-53 -153.5 -146 -289.5 q-93 -136 -210 -228 q-59 -48 -124 -83 q-65 -35 -138.5 -57.5 q-73.5 -22.5 -147.5 -10 q-74 12.5 -133 62.5 q-167 139 -180 498 ZM223 801 q-50 -364 56 -568 q40 -80 105 -112 q65 -32 136.5 -20.5 q71.5 11.5 149.5 57.5 q141 81 248.5 234.5 q107.5 153.5 155.5 335.5 q48 182 22 345 q-48 276 -242 281 q-103 1 -199.5 -54 q-96.5 -55 -169.5 -143 q-32 -37 -65 -27 q-33 10 -38.5 45 q-5.5 35 19.5 70 q27 34 50 55 q-34 -8 -70 -47 q-35 -40 -66 -104 q-69 -153 -92 -348 Z" /><glyph glyph-name="afii10033" unicode="&#x41f;" d="M84 98 q64 671 238 1211 q-18 21 -15 51 q3 37 47 41 q11 22 32.5 30 q21.5 8 43.5 -4 q20 -11 27 -36 q36 -5 84 -5 q19 1 112 4 q93 3 142 7 q301 8 448 35 q46 9 80 -28 q31 -34 15 -64 q-11 -22 -46 -29 q-4 0 -12.5 -1 q-8.5 -1 -13.5 -1 l4 -4 q11 -149 -15 -325 q-26 -176 -64.5 -316 q-38.5 -140 -82.5 -322.5 q-44 -182.5 -61 -316.5 q-5 -36 -45.5 -50.5 q-40.5 -14.5 -77.5 2.5 q-37 17 -31 56 q16 132 59.5 309.5 q43.5 177.5 81.5 314.5 q38 137 63.5 308.5 q25.5 171.5 14.5 316.5 l0 6 q-98 -9 -403 -18 q-8 0 -66.5 -3.5 q-58.5 -3.5 -102 -4 q-43.5 -0.5 -108.5 5.5 q-168 -504 -227 -1149 q-2 -33 -17 -58.5 q-15 -25.5 -43 -29.5 q-25 -4 -44 18.5 q-19 22.5 -17 48.5 Z" /><glyph glyph-name="afii10034" unicode="&#x420;" d="M84 8 q5 37 11.5 72.5 q6.5 35.5 16 78.5 q9.5 43 15 69 q5.5 26 19.5 77 q14 51 18.5 67.5 q4.5 16.5 21 77 q16.5 60.5 19.5 70.5 q-30 11 -76 39 q-24 18 -21.5 44.5 q2.5 26.5 23.5 39.5 q49 35 109 -2 q8 31 25.5 91 q17.5 60 27.5 96 q10 36 24.5 92 q14.5 56 21.5 98.5 q7 42.5 13 93 q6 50.5 5 99 q-1 48.5 -7 94.5 q-15 17 -18 36.5 q-3 19.5 11.5 36.5 q14.5 17 45.5 23 q94 17 152 25.5 q58 8.5 145.5 14 q87.5 5.5 161.5 -7.5 q74 -13 137 -44 q129 -64 181.5 -205 q52.5 -141 -11.5 -271 q-66 -129 -196.5 -223 q-130.5 -94 -288.5 -149 q-194 -59 -334 -49 q-89 -300 -111 -474 q-7 -42 -53 -62 q-46 -20 -73 3 q-19 15 -15 49 ZM369 602 q117 -2 276 66 q278 113 359 282 q23 49 24.5 105.5 q1.5 56.5 -15.5 106.5 q-17 50 -56.5 89.5 q-39.5 39.5 -94.5 53.5 q-129 32 -362 -7 q3 -67 -2.5 -137.5 q-5.5 -70.5 -22.5 -149 q-17 -78.5 -30 -132 q-13 -53.5 -39.5 -146 q-26.5 -92.5 -36.5 -131.5 Z" /><glyph glyph-name="afii10035" unicode="&#x421;" d="M84 702 q10 386 295 601 q110 83 226 125.5 q116 42.5 246 35.5 q130 -7 247 -75 q47 -27 21 -63 q-22 -33 -70 -39 q-31 -4 -54 9 q-95 56 -197.5 51 q-102.5 -5 -192.5 -48.5 q-90 -43.5 -167 -118.5 q-205 -199 -196 -502 q12 -331 178 -490 q177 -169 438 0 q43 26 89 1 q39 -21 35 -53 q-3 -23 -32 -42 q-103 -66 -210.5 -95 q-107.5 -29 -221.5 -8.5 q-114 20.5 -203 99.5 q-120 107 -178 272 q-58 165 -53 340 Z" /><glyph glyph-name="afii10036" unicode="&#x422;" d="M98 1285 q-13 17 -14 40 q-1 23 4.5 46 q5.5 23 22.5 38 q17 15 39 14 q141 -6 507.5 6.5 q366.5 12.5 507.5 -6.5 q22 -2 35 -19 q13 -17 14 -40.5 q1 -23.5 -5.5 -46.5 q-6.5 -23 -23.5 -38 q-17 -15 -40 -13 q-178 18 -416 8 q0 -19 -6 -31 l4 6 q-1 -1 -4 -12 q-4 -16 -4 -18 q-9 -21 -12 -48 q-25 -89 -33 -137 q-45 -205 -78 -370 q-9 -39 -56 -267 q-47 -228 -77 -348 q-14 -55 -54 -54 q-33 1 -52 37 q-15 28 -7 62 q30 125 79 363.5 q49 238.5 60 287.5 q8 38 31 161 q23 123 41.5 206 q18.5 83 42.5 160 q-312 -12 -471 -6 q-22 2 -35 19 Z" /><glyph glyph-name="afii10037" unicode="&#x423;" d="M5 95 q13 35 53 50 q32 13 59 0 q29 -12 59 -12 q30 0 54.5 9 q24.5 9 51.5 28 q27 19 46 36 q19 17 43 42 q51 53 112 139 q-2 2 -5.5 6.5 q-3.5 4.5 -4.5 5.5 q-23 36 -44 80 q-21 44 -35 79 q-14 35 -31.5 90 q-17.5 55 -25 83 q-7.5 28 -24.5 91 q-17 63 -22 83 q-14 50 -36 143.5 q-22 93.5 -42.5 168.5 q-20.5 75 -44.5 139 q-14 39 18 63.5 q32 24.5 75 18.5 q43 -6 56 -41 q34 -88 76 -258.5 q42 -170.5 53 -208.5 q2 -6 13 -49 q11 -43 14 -53.5 q3 -10.5 13.5 -48.5 q10.5 -38 15.5 -54 q5 -16 15 -48.5 q10 -32.5 18 -53 q8 -20.5 18.5 -46.5 q10.5 -26 21.5 -49 q44 73 58 103 q106 187 225 446 q108 230 150 299 q22 38 76 38 q47 0 62 -30 q12 -21 -7 -51 q-23 -40 -48 -88.5 q-25 -48.5 -41.5 -84 q-16.5 -35.5 -42.5 -93 q-26 -57.5 -40 -86.5 q-146 -306 -252 -485 q-31 -50 -54.5 -86 q-23.5 -36 -63 -92.5 q-39.5 -56.5 -75 -95.5 q-35.5 -39 -81.5 -84.5 q-46 -45.5 -92 -72 q-46 -26.5 -96.5 -45 q-50.5 -18.5 -105.5 -15.5 q-55 3 -110 26 q-49 21 -32 64 Z" /><glyph glyph-name="afii10038" unicode="&#x424;" d="M90 739 q20 133 82 251 q62 118 153.5 204 q91.5 86 216 130 q124.5 44 259.5 30 q25 90 53 141 q21 40 80 32 q50 -7 70 -39 q13 -20 2 -42 q-12 -21 -33 -68 q233 40 366 -106 q144 -162 123 -434 q-11 -133 -66 -257.5 q-55 -124.5 -147 -218.5 q-205 -199 -518 -186 q-33 -179 -35 -190 q-7 -36 -47 -39 q-40 -3 -74.5 24 q-34.5 27 -27.5 64 q4 25 14 79 q10 54 14 83 q-259 -34 -382 114 q-72 83 -95.5 195.5 q-23.5 112.5 -7.5 232.5 ZM240 743 q-12 -92 3.5 -182 q15.5 -90 65.5 -151 q100 -116 291 -88 q29 190 76 456 q62 321 92 445 l0 8 l-23 0 q-102 13 -192.5 -25.5 q-90.5 -38.5 -153.5 -110.5 q-63 -72 -104.5 -163.5 q-41.5 -91.5 -54.5 -188.5 ZM758 332 q153 -6 282 57.5 q129 63.5 209.5 183.5 q80.5 120 91.5 273 q8 88 -14.5 171.5 q-22.5 83.5 -77.5 137.5 q-114 114 -321 53 q-2 -7 -7 -23.5 q-5 -16.5 -6 -25.5 q-37 -162 -88 -430 q-46 -266 -69 -397 Z" /><glyph glyph-name="afii10039" unicode="&#x425;" d="M-76 29 q-20 55 39 106 q138 110 260.5 245 q122.5 135 259.5 314 l0 2 q-177 375 -178 377 q-55 108 -61 117 q-11 22 -25 39 l-6 6 q-20 16 -21 41 q-1 25 21 41 q30 18 58 17.5 q28 -0.5 46 -10.5 q18 -10 38.5 -36.5 q20.5 -26.5 29.5 -43 q9 -16.5 25 -48.5 q54 -97 178 -365 q8 10 50 67.5 q42 57.5 53.5 72 q11.5 14.5 49.5 65.5 q38 51 54.5 71.5 q16.5 20.5 50.5 64.5 q34 44 56 70 q22 26 53 62.5 q31 36.5 59 67.5 q28 31 57 62 q40 43 75 18 q29 -20 24 -62 q-3 -29 -23 -51 q-38 -41 -75.5 -83 q-37.5 -42 -78.5 -92 q-41 -50 -68.5 -83.5 q-27.5 -33.5 -75 -95 q-47.5 -61.5 -66 -85.5 q-18.5 -24 -73 -96 q-54.5 -72 -67.5 -89 q55 -120 152.5 -339.5 q97.5 -219.5 134.5 -301.5 q19 -41 -25 -62 q-43 -21 -89 -4 q-27 11 -38 33 q-136 311 -239 534 q-277 -359 -529 -563 q-20 -16 -48 -12 q-28 4 -38 29 Z" /><glyph glyph-name="afii10040" unicode="&#x426;" d="M84 82 q33 159 67.5 345 q34.5 186 52.5 290.5 q18 104.5 58.5 350.5 q40.5 246 52.5 316 q4 30 36 54.5 q32 24.5 66.5 21.5 q34.5 -3 43.5 -41 q12 -42 12 -110 q0 -39 -35 -56 q-106 -650 -202 -1120 q39 0 129.5 -3 q90.5 -3 146.5 -3 q155 -2 377 8 q-7 20 -4 45 q25 129 128.5 549 q103.5 420 131.5 655 q5 29 24 53.5 q19 24.5 48 30.5 q25 4 42.5 -15.5 q17.5 -19.5 14.5 -45.5 q-21 -184 -70 -399.5 q-49 -215.5 -108 -448.5 q-59 -233 -88 -393 q-3 -19 -11 -27 q117 0 174 -4 q28 0 52 -18.5 q24 -18.5 24 -44.5 q-2 -72 -45 -195.5 q-43 -123.5 -51 -165.5 q-7 -37 -49 -48.5 q-42 -11.5 -79 7.5 q-37 19 -30 56 q10 51 44 147.5 q34 96.5 44 144.5 q-99 2 -289.5 -5.5 q-190.5 -7.5 -279.5 -6.5 q-20 0 -130.5 5 q-110.5 5 -135.5 -1 q-8 0 -28 -1.5 q-20 -1.5 -38 -2.5 q-18 -1 -38.5 2 q-20.5 3 -34 9.5 q-13.5 6.5 -21 23 q-7.5 16.5 -2.5 41.5 Z" /><glyph glyph-name="afii10041" unicode="&#x427;" d="M173.5 826.5 q-10.5 64.5 -6 147.5 q4.5 83 16.5 149.5 q12 66.5 27 152.5 q15 86 20 139 q2 23 19.5 36.5 q17.5 13.5 40.5 14.5 q23 1 46 -5.5 q23 -6.5 37.5 -24.5 q14.5 -18 12.5 -41 q-4 -63 -26.5 -184.5 q-22.5 -121.5 -28.5 -178.5 q-6 -57 -7.5 -92 q-1.5 -35 2 -88 q3.5 -53 22.5 -94 q19 -41 54 -70 q89 -70 267 17 q127 69 190 137 q66 297 156 592 q15 51 52 40 q31 -10 48 -50 q14 -34 4 -64 q-87 -306 -119 -447 q33 -11 45 -36.5 q12 -25.5 -10 -57.5 q-36 -48 -73 -76 q-75 -373 -78 -702 q0 -46 -29.5 -67.5 q-29.5 -21.5 -58.5 -4.5 q-29 17 -29 64 q0 283 55 602 q-83 -53 -167 -80 q-84 -27 -173.5 -21.5 q-89.5 5.5 -158.5 54.5 q-65 45 -102.5 109.5 q-37.5 64.5 -48 129 Z" /><glyph glyph-name="afii10042" unicode="&#x428;" d="M127 -29 q-43 1 -44.5 47.5 q-1.5 46.5 30.5 77.5 q5 47 11 93 q6 46 16.5 99 q10.5 53 17.5 89 q7 36 23 98 q16 62 22.5 88.5 q6.5 26.5 27 97 q20.5 70.5 25 87.5 q4.5 17 28.5 96.5 q24 79.5 27 89.5 q16 54 40.5 154.5 q24.5 100.5 35.5 142.5 q2 7 9 36 q7 29 10 41 q3 12 11 36.5 q8 24.5 15 39 q7 14.5 18.5 32 q11.5 17.5 24.5 30.5 q38 34 64 -7 q25 -39 15 -90 q-6 -27 -22 -42 q10 8 11 7 q1 -1 -6 -12 q-8 -13 -9 -18 q0 -2 -5.5 -17.5 q-5.5 -15.5 -6.5 -23.5 q-28 -99 -33 -129 q-49 -195 -75 -280 q-5 -17 -23 -76.5 q-18 -59.5 -24.5 -81 q-6.5 -21.5 -22.5 -75.5 q-16 -54 -23 -82 q-7 -28 -20 -76.5 q-13 -48.5 -20.5 -82 q-7.5 -33.5 -16.5 -77 q-9 -43.5 -15.5 -83.5 q-6.5 -40 -11.5 -79 q211 -7 553 8 l0 14 q37 161 73.5 400.5 q36.5 239.5 76 458.5 q39.5 219 94.5 397 q17 53 57 42 q33 -10 50 -50 q13 -31 4 -60 q-53 -171 -90.5 -375.5 q-37.5 -204.5 -72.5 -440 q-35 -235.5 -65 -380.5 q379 16 424 17 q54 526 287 1181 q19 52 58 44 q31 -6 45 -44 q12 -31 1 -63 q-220 -633 -272 -1114 l27 0 q41 0 46 -43 q4 -43 -28 -81 q-23 -28 -53 -28 q-142 -1 -605 -22.5 q-463 -21.5 -714 -10.5 Z" /><glyph glyph-name="afii10043" unicode="&#x429;" d="M90.5 25.5 q-12.5 17.5 -6 41 q6.5 23.5 24.5 44.5 q40 153 120.5 562 q80.5 409 149.5 625 q-23 38 14 78 q7 12 21 21 q24 39 68 49 q44 11 55 -24 q5 -16 0 -40 q-6 -21 -15 -36 q-74 -225 -157.5 -649 q-83.5 -424 -116.5 -554 q144 -4 440 -8 l0 8 q8 144 65 409 q57 265 66 318 q4 21 15 84 q11 63 16.5 91.5 q5.5 28.5 18 83.5 q12.5 55 24.5 89.5 q12 34.5 30 77.5 q18 43 40 78 q24 36 77 35 q49 0 63 -31 q11 -21 -7 -51 q-39 -61 -61 -136 q-22 -75 -40.5 -190 q-18.5 -115 -25.5 -147 q-13 -72 -45.5 -216 q-32.5 -144 -53 -259 q-20.5 -115 -26.5 -221 q0 -13 -8 -29 q385 -10 464 -10 q9 146 46 318.5 q37 172.5 79 309 q42 136.5 89 312.5 q47 176 69 313 q8 39 59 54 q52 15 83 -9 q20 -15 16 -43 q-23 -137 -70.5 -313 q-47.5 -176 -90 -312 q-42.5 -136 -80 -309 q-37.5 -173 -46.5 -321 q14 0 40 2 q26 2 40 2 q27 0 40.5 -19 q13.5 -19 8.5 -49 q-22 -183 -131 -315 q-34 -42 -80 -34 q-37 7 -44 38 q-6 27 18 57 q64 78 86 185 q-232 -3 -668.5 9.5 q-436.5 12.5 -628.5 12.5 q-32 0 -44.5 17.5 Z" /><glyph glyph-name="afii10044" unicode="&#x42a;" d="M135 1307 q-40 3 -49.5 43 q-9.5 40 12.5 77.5 q22 37.5 58 34.5 q188 -12 376 0 q36 5 48 -28 q43 -15 34 -54 q-21 -92 -58.5 -265.5 q-37.5 -173.5 -55.5 -252.5 q74 17 121 24.5 q47 7.5 116.5 12.5 q69.5 5 126.5 -9.5 q57 -14.5 101 -47.5 q53 -38 87.5 -97 q34.5 -59 46.5 -125 q12 -66 6.5 -135 q-5.5 -69 -28.5 -131 q-37 -91 -108 -164 q-71 -73 -158 -116 q-87 -43 -189.5 -71.5 q-102.5 -28.5 -201.5 -31.5 q-99 -3 -193 6 q-26 4 -34.5 20 q-8.5 16 -1 36.5 q7.5 20.5 25.5 40.5 q-31 21 -24 49 q25 138 58.5 302.5 q33.5 164.5 58 281 q24.5 116.5 66.5 309.5 q42 193 62 289 q-101 -6 -303 2 ZM348 106 q85 -5 172.5 7 q87.5 12 172.5 40.5 q85 28.5 152.5 84.5 q67.5 56 96.5 131 q18 43 21.5 97.5 q3.5 54.5 -7.5 107 q-11 52.5 -40.5 97.5 q-29.5 45 -73.5 66 q-23 11 -47.5 17.5 q-24.5 6.5 -54 7.5 q-29.5 1 -49.5 1.5 q-20 0.5 -55.5 -5 q-35.5 -5.5 -50 -8 q-14.5 -2.5 -54.5 -11 q-40 -8.5 -48 -10.5 q-4 -4 -12 -4 q-95 -464 -121 -610 q0 -2 -1 -5 q-1 -3 -1 -4 Z" /><glyph glyph-name="afii10045" unicode="&#x42b;" d="M86 61 q10 42 66 54 q33 118 63.5 239 q30.5 121 64 268.5 q33.5 147.5 52.5 231.5 q19 84 58.5 269.5 q39.5 185.5 51.5 240.5 q7 31 26.5 55 q19.5 24 49.5 27 q26 4 42.5 -18.5 q16.5 -22.5 10.5 -49.5 q-19 -88 -56.5 -265 q-37.5 -177 -57.5 -265 q104 30 222 16.5 q118 -13.5 204 -71.5 q80 -51 124.5 -134 q44.5 -83 45 -173 q0.5 -90 -34.5 -181 q-21 -50 -51.5 -91 q-30.5 -41 -64 -71.5 q-33.5 -30.5 -78 -54 q-44.5 -23.5 -85 -39.5 q-40.5 -16 -95 -26.5 q-54.5 -10.5 -97.5 -16.5 q-43 -6 -102.5 -9 q-59.5 -3 -100.5 -3 q-41 0 -100 0 q-25 -34 -63 -34 q-38 0 -50 34 q-24 5 -39 25 q-15 20 -6 42 ZM279 115 q66 0 134 -2 q68 -2 138.5 7.5 q70.5 9.5 130 27 q59.5 17.5 108 57 q48.5 39.5 72.5 96.5 q30 71 34.5 143.5 q4.5 72.5 -25.5 140.5 q-30 68 -95 105 q-79 45 -172.5 51.5 q-93.5 6.5 -175.5 -26.5 q-99 -419 -149 -600 ZM1223 10.5 q-16 7.5 -23 29 q-7 21.5 0 48.5 q37 157 116 589.5 q79 432.5 146 665.5 q14 44 49 56 q35 12 59 -12.5 q24 -24.5 9 -69.5 q-68 -234 -148.5 -673.5 q-80.5 -439.5 -113.5 -582.5 q-7 -26 -24 -41.5 q-17 -15.5 -35.5 -16 q-18.5 -0.5 -34.5 7 Z" /><glyph glyph-name="afii10046" unicode="&#x42c;" d="M117 43 q-24 6 -31.5 29 q-7.5 23 4.5 43 q-9 18 0 45 q41 131 76.5 296.5 q35.5 165.5 52 263 q16.5 97.5 48 317.5 q31.5 220 40.5 278 q5 39 54.5 59.5 q49.5 20.5 78.5 0.5 q21 -14 15 -46 q-10 -62 -33.5 -227.5 q-23.5 -165.5 -38.5 -257.5 q101 27 212.5 9.5 q111.5 -17.5 197.5 -77.5 q110 -76 162 -199 q52 -123 8 -245 q-34 -90 -106.5 -157 q-72.5 -67 -162 -102.5 q-89.5 -35.5 -192.5 -51 q-103 -15.5 -201 -9 q-98 6.5 -184 30.5 ZM231 147 q58 -13 124.5 -16 q66.5 -3 137.5 7 q71 10 132.5 32.5 q61.5 22.5 111 66 q49.5 43.5 70.5 101.5 q19 55 17.5 107 q-1.5 52 -24.5 97.5 q-23 45.5 -57.5 83 q-34.5 37.5 -81.5 63.5 q-47 26 -97 39 q-50 13 -104 9.5 q-54 -3.5 -102 -24.5 q-51 -311 -127 -566 Z" /><glyph glyph-name="afii10047" unicode="&#x42d;" d="M-38 80 q9 36 49 59 q29 16 57 11 q114 -23 221.5 -23.5 q107.5 -0.5 215.5 39.5 q108 40 191 119 q158 142 224 370 q0 1 -244.5 0.5 q-244.5 -0.5 -245.5 -0.5 q-46 0 -62.5 29.5 q-16.5 29.5 5.5 58.5 q22 29 67 29 q68 0 240 2.5 q172 2.5 266 1.5 q52 299 -67 418 q-52 53 -126.5 77.5 q-74.5 24.5 -157 20 q-82.5 -4.5 -155.5 -20 q-73 -15.5 -147 -42.5 q-52 -20 -84 12 q-27 27 -10 59 q12 21 43 33 q72 27 141 46 q69 19 154.5 31 q85.5 12 160 8.5 q74.5 -3.5 149.5 -30 q75 -26.5 130 -77.5 q54 -47 86 -112.5 q32 -65.5 41 -139 q9 -73.5 5.5 -143.5 q-3.5 -70 -17.5 -144 q-67 -373 -324 -590 q-107 -87 -236.5 -133 q-129.5 -46 -260 -49 q-130.5 -3 -267.5 25 q-52 12 -42 55 Z" /><glyph glyph-name="afii10048" unicode="&#x42e;" d="M86 94 q68 265 129 590 q-13 52 18 94 q10 60 105 635 q7 52 45 51 q35 -1 61 -38 q19 -29 15 -60 q-78 -475 -94 -569 q59 -1 80 -1 q21 0 80 2 q59 2 79 3 q33 207 144 338 q2 3 34 22 q104 114 232 185 q63 34 128 55 q65 21 135 29.5 q70 8.5 138.5 -7.5 q68.5 -16 124.5 -57 q87 -63 137 -163.5 q50 -100.5 60 -213.5 q10 -113 -2.5 -222.5 q-12.5 -109.5 -44.5 -211.5 q-26 -83 -64.5 -160 q-38.5 -77 -92.5 -148.5 q-54 -71.5 -118 -126.5 q-64 -55 -144.5 -92.5 q-80.5 -37.5 -168.5 -47.5 q-102 -12 -189.5 17.5 q-87.5 29.5 -148.5 91 q-61 61.5 -100.5 145 q-39.5 83.5 -55.5 182.5 q-18 105 -18 227 q-197 -5 -254 -2 q-44 -252 -129 -596 q-12 -52 -53 -50 q-36 2 -58 38 q-18 29 -10 61 ZM754 504 q29 -241 131 -336 q64 -60 139.5 -71 q75.5 -11 143.5 18 q68 29 132 82 q64 53 111 117 q47 64 76 128 q101 210 98 441 q-9 293 -162 389 q-88 53 -182.5 38.5 q-94.5 -14.5 -183 -77 q-88.5 -62.5 -158 -145 q-69.5 -82.5 -106.5 -164.5 l-7 -21 q-60 -193 -32 -399 Z" /><glyph glyph-name="afii10049" unicode="&#x42f;" d="M47 47 q52 108 82.5 166 q30.5 58 85 150.5 q54.5 92.5 114 161 q59.5 68.5 126.5 120.5 q-68 23 -122 53 q-54 30 -97 71.5 q-43 41.5 -60 97.5 q-17 56 -2 122 q22 96 79.5 175 q57.5 79 134.5 131.5 q77 52.5 172 88.5 q95 36 188.5 52.5 q93.5 16.5 187.5 17.5 q71 0 92 -45 q21 -21 23 -43 q13 -36 9 -88 q-4 -52 -12 -87 q-8 -35 -24 -85 q-31 -93 -88 -318 q-43 -151 -67 -246 q-24 -95 -48 -231 q-24 -136 -30 -254 q-1 -55 -41 -64 q-35 -8 -62 23 q-19 24 -18 58 q7 208 82 526 q-2 0 -8 -2 q-6 -2 -9 -2 q-15 2 -49 4 q-34 2 -51 4 l-14 -14 q-60 -38 -116 -96 q-56 -58 -95 -110.5 q-39 -52.5 -85 -134.5 q-46 -82 -70 -131 q-24 -49 -65 -136 q-12 -24 -41 -29 q-29 -5 -56 5.5 q-27 10.5 -42.5 35.5 q-15.5 25 -3.5 53 ZM338 993 q-19 -63 3 -113 q22 -50 68.5 -79.5 q46.5 -29.5 110.5 -49.5 q64 -20 120.5 -27 q56.5 -7 107.5 -7 q4 0 34 -6 q16 62 21 75 q9 32 35 138 q26 106 43 161 q4 13 14 38.5 q10 25.5 15.5 41 q5.5 15.5 14 43 q8.5 27.5 10.5 44 q2 16.5 4.5 43 q2.5 26.5 -3.5 40.5 q-92 -3 -181 -23 q-89 -20 -175.5 -58 q-86.5 -38 -151 -105.5 q-64.5 -67.5 -90.5 -155.5 Z" /><glyph glyph-name="afii10065" unicode="&#x430;" d="M2 336 q-1 93 19 191.5 q20 98.5 59 192.5 q39 94 103.5 174.5 q64.5 80.5 144.5 127.5 q179 100 346 45 q46 -16 86 -47 q30 0 50.5 -32.5 q20.5 -32.5 10.5 -69.5 q-93 -274 -86 -629 q0 -160 58 -154 q26 1 49 26.5 q23 25.5 33.5 47.5 q10.5 22 24.5 57 q2 6 3 8 q24 55 64 37 q33 -14 45 -59 q9 -32 -2 -59 q-86 -211 -209 -222 q-57 -7 -98.5 35.5 q-41.5 42.5 -63.5 106.5 q-20 51 -27 137 q-81 -166 -200 -244 q-46 -31 -93.5 -45.5 q-47.5 -14.5 -99.5 -6.5 q-52 8 -92 46 q-118 110 -125 336 ZM139 240 q14 -57 48.5 -95 q34.5 -38 88.5 -30 q34 6 67 26 q33 20 62 52 q29 32 48.5 58.5 q19.5 26.5 42.5 61.5 q45 78 72.5 180 q27.5 102 51 216.5 q23.5 114.5 50.5 187.5 q-1 2 -6 4 q-5 2 -7 4 q-3 1 -51 13 q-64 15 -127 0 q-139 -42 -221 -158 q-82 -114 -117.5 -254 q-35.5 -140 -1.5 -266 Z" /><glyph glyph-name="afii10066" unicode="&#x431;" d="M104 208.5 q-24 74.5 -21.5 147.5 q2.5 73 15.5 148 q12 69 60.5 248.5 q48.5 179.5 77.5 214.5 q37 93 75.5 162 q38.5 69 102 137 q63.5 68 141.5 106 q46 25 114.5 36.5 q68.5 11.5 124 14 q55.5 2.5 117.5 24 q62 21.5 103 66.5 q38 38 85 24 q37 -12 40 -45 q2 -27 -25 -56 q-30 -32 -66.5 -56 q-36.5 -24 -64 -37.5 q-27.5 -13.5 -77.5 -25.5 q-50 -12 -71.5 -15.5 q-21.5 -3.5 -83.5 -11.5 q-62 -8 -79 -10 q-57 -8 -104.5 -39.5 q-47.5 -31.5 -83 -82.5 q-35.5 -51 -58.5 -96 q-23 -45 -47 -106 q-15 -34 -27 -69 q115 99 219 131 q102 29 177.5 7 q75.5 -22 124.5 -83.5 q49 -61.5 72 -142 q23 -80.5 20 -170.5 q-3 -90 -31 -168 q-22 -60 -58 -123.5 q-36 -63.5 -84.5 -124 q-48.5 -60.5 -104 -110.5 q-55.5 -50 -119.5 -82 q-64 -32 -128 -40.5 q-64 -8.5 -132.5 17 q-68.5 25.5 -129.5 86.5 q-50 50 -74 124.5 ZM248 528 q-9 -57 -11.5 -99.5 q-2.5 -42.5 2 -98 q4.5 -55.5 28.5 -98.5 q24 -43 67 -70 q57 -37 115 -38 q58 -1 106.5 28.5 q48.5 29.5 88.5 72 q40 42.5 73 97.5 q136 219 84 411 q-18 69 -49.5 108 q-31.5 39 -69.5 48 q-38 9 -83.5 -1.5 q-45.5 -10.5 -89.5 -35.5 q-44 -25 -88.5 -60 q-44.5 -35 -80 -69.5 q-35.5 -34.5 -64.5 -69.5 q-20 -69 -28 -125 Z" /><glyph glyph-name="afii10067" unicode="&#x432;" d="M92 133 q-37 91 -28.5 226.5 q8.5 135.5 61.5 265.5 q22 56 37.5 93 q15.5 37 43.5 90.5 q28 53.5 55.5 90.5 q27.5 37 67 73.5 q39.5 36.5 83.5 57.5 q62 28 132 33.5 q70 5.5 137 -20 q67 -25.5 103 -82.5 q34 -49 37.5 -105 q3.5 -56 -19 -106 q-22.5 -50 -58.5 -93.5 q-36 -43.5 -82 -76.5 q14 -3 34 -17 q54 -26 85.5 -68 q31.5 -42 37.5 -90.5 q6 -48.5 -7.5 -100.5 q-13.5 -52 -45.5 -101 q-60 -91 -156.5 -154 q-96.5 -63 -203.5 -80 q-103 -14 -190 28.5 q-87 42.5 -124 135.5 ZM195 412 q-5 -48 -7 -93.5 q-2 -45.5 15.5 -90 q17.5 -44.5 54.5 -70.5 q36 -25 84 -30.5 q48 -5.5 91.5 4 q43.5 9.5 86.5 30.5 q18 9 43 24.5 q25 15.5 54.5 39 q29.5 23.5 49.5 48.5 q20 25 28.5 51 q8.5 26 -9.5 48 q-22 31 -60 49.5 q-38 18.5 -81 24 q-43 5.5 -84 3.5 q-41 -2 -78 -10 q-15 -6 -27 0 q-83 -25 -161 -28 ZM236 573 q150 13 323 109 q219 135 82 199 q-51 23 -99 23.5 q-48 0.5 -87 -19.5 q-39 -20 -73 -51.5 q-34 -31.5 -61.5 -76 q-27.5 -44.5 -48 -89.5 q-20.5 -45 -36.5 -95 Z" /><glyph glyph-name="afii10068" unicode="&#x433;" d="M77.5 138.5 q-39.5 79.5 -36 167.5 q3.5 88 56.5 155 q32 38 73.5 70 q41.5 32 91.5 57.5 q50 25.5 91.5 43 q41.5 17.5 101.5 41 q60 23.5 93 38.5 q6 3 27 12 q21 9 33 15 q12 6 26 17.5 q14 11.5 20 24.5 q13 36 -7 70 q-20 34 -54 53 q-23 11 -47.5 16.5 q-24.5 5.5 -43 8 q-18.5 2.5 -47.5 -2 q-29 -4.5 -42 -6 q-13 -1.5 -46.5 -13.5 q-33.5 -12 -42 -15 q-8.5 -3 -46.5 -19 q-38 -16 -43 -18 q-38 -15 -66.5 17.5 q-28.5 32.5 -27.5 76.5 q1 44 36 58 q16 7 44 18.5 q28 11.5 45.5 19 q17.5 7.5 47 18.5 q29.5 11 47.5 15.5 q18 4.5 48 11.5 q30 7 49 5.5 q19 -1.5 49 -2.5 q74 -9 136 -48 q62 -39 99 -104 q37 -58 40.5 -135.5 q3.5 -77.5 -31.5 -138.5 q-13 -22 -31.5 -40 q-18.5 -18 -45.5 -33 q-27 -15 -45.5 -23.5 q-18.5 -8.5 -53 -22.5 q-34.5 -14 -46.5 -19 q-16 -7 -60.5 -23.5 q-44.5 -16.5 -80 -30.5 q-35.5 -14 -81 -37 q-45.5 -23 -76 -46 q-30.5 -23 -51 -54.5 q-20.5 -31.5 -19.5 -64.5 q4 -62 40.5 -102.5 q36.5 -40.5 90.5 -54 q54 -13.5 113.5 -11 q59.5 2.5 114.5 23 q55 20.5 89 50.5 q35 29 68 5.5 q33 -23.5 37.5 -64.5 q4.5 -41 -19.5 -70 q-109 -94 -251 -108.5 q-142 -14.5 -261 67.5 q-67 51 -106.5 130.5 Z" /><glyph glyph-name="afii10069" unicode="&#x434;" d="M-121 -555 q16 133 160 250 q92 77 286.5 172.5 q194.5 95.5 256.5 134.5 l4 2 q3 2 4 4 q8 59 10 86 q-58 -64 -121 -98 q-184 -101 -313 6 q-58 53 -94 130.5 q-36 77.5 -47 160.5 q-23 177 34.5 360 q57.5 183 182.5 295 q162 147 333 131 q76 -7 132.5 -44 q56.5 -37 56.5 -103 q37 10 60 -11 q23 -21 10 -69 q-6 -21 -25 -109 q9 -9 6 -43 q-33 -188 -55 -260 q-6 -61 -19 -226 q-13 -165 -27.5 -279.5 q-14.5 -114.5 -39.5 -221.5 q-34 -140 -84.5 -249 q-50.5 -109 -136.5 -191 q-54 -52 -119 -85 q-65 -33 -140.5 -41.5 q-75.5 -8.5 -142.5 28.5 q-80 42 -131.5 115 q-51.5 73 -40.5 155 ZM16 -516 q-13 -37 10.5 -77 q23.5 -40 62 -66 q38.5 -26 73.5 -35 q100 -19 190.5 47 q90.5 66 128.5 166 q55 135 88 323 q-46 -26 -184.5 -93.5 q-138.5 -67.5 -208.5 -115.5 q-3 -2 -21 -13.5 q-18 -11.5 -24 -15.5 q-6 -4 -23 -15.5 q-17 -11.5 -24.5 -18 q-7.5 -6.5 -20.5 -18.5 q-13 -12 -20.5 -21.5 q-7.5 -9.5 -15 -22 q-7.5 -12.5 -11.5 -24.5 ZM246 756 q-58 -106 -77 -224.5 q-19 -118.5 9 -236.5 q45 -157 131 -191 q52 -23 104 0 q52 23 91 74 q93 111 135 326 q36 234 57 315 q-14 -5 -16 -6 q-28 -2 -48 15.5 q-20 17.5 -16 45.5 q6 28 -16.5 43.5 q-22.5 15.5 -57 17 q-34.5 1.5 -67.5 -2 q-33 -3.5 -51 -10.5 q-110 -42 -178 -166 Z" /><glyph glyph-name="afii10070" unicode="&#x435;" d="M70 186 q-67 192 28 457 q100 269 254 369 q69 43 146.5 63 q77.5 20 161 10.5 q83.5 -9.5 149.5 -55.5 q80 -57 117.5 -139 q37.5 -82 7.5 -170 q-59 -157 -342 -215 q-155 -29 -375 -29 q-22 -134 0 -219 q25 -91 99 -138 q74 -47 162.5 -35.5 q88.5 11.5 154.5 77.5 q31 31 85 19 q48 -11 57 -43 q8 -24 -17 -50 q-55 -55 -133 -89 q-78 -34 -161.5 -39 q-83.5 -5 -161.5 14.5 q-78 19.5 -140.5 74.5 q-62.5 55 -91.5 137 ZM250 600 q149 0 242 14 q62 8 99.5 14.5 q37.5 6.5 94 31 q56.5 24.5 78.5 61.5 q34 61 11 124 q-23 63 -85 95 q-75 36 -151 17.5 q-76 -18.5 -133 -80.5 q-103 -106 -156 -277 Z" /><glyph glyph-name="afii10072" unicode="&#x436;" d="M-40 15 q-5 37 30 69 q25 24 57 25 q44 1 81 25.5 q37 24.5 63 66 q26 41.5 46 87 q20 45.5 33.5 101 q13.5 55.5 21.5 96 q8 40.5 13 82.5 q30 208 -8 289 q-11 19 -34 28 q-23 9 -40.5 10 q-17.5 1 -52 -1 q-34.5 -2 -41.5 -2 q-55 0 -60 41 q-4 37 29 67 q26 23 58 23 q11 0 41 0.5 q30 0.5 46.5 0.5 q16.5 0 44.5 -2 q28 -2 46 -7.5 q18 -5.5 39 -14.5 q21 -9 36 -24.5 q15 -15.5 25 -36.5 q59 -108 29 -338 q44 10 172 10 q39 215 119 412 q15 34 59 40.5 q44 6.5 75 -17.5 q31 -24 15 -64 q-72 -174 -108 -375 q61 -2 178 -2 q2 0 5.5 -2 q3.5 -2 6.5 -2 q15 70 35 130 q20 60 54 121 q34 61 76.5 104.5 q42.5 43.5 104 71 q61.5 27.5 134.5 28.5 q49 0 55 -46 q6 -43 -26 -81 q-23 -26 -52 -27 q-52 0 -94 -21.5 q-42 -21.5 -68.5 -54 q-26.5 -32.5 -47 -80 q-20.5 -47.5 -30.5 -90 q-10 -42.5 -18 -94.5 q-8 -55 -8.5 -107.5 q-0.5 -52.5 10 -110 q10.5 -57.5 32.5 -101.5 q22 -44 65 -76.5 q43 -32.5 102 -40.5 q44 -7 39 -56 q-5 -47 -43 -79 q-26 -23 -54 -19 q-82 13 -141 58.5 q-59 45.5 -90.5 113 q-31.5 67.5 -44.5 142 q-13 74.5 -10 155.5 q-33 0 -98 2 q-65 2 -99 2 q-4 -33 -43 -442 q-5 -36 -47 -50 q-42 -14 -80 4 q-38 18 -33 60 q22 265 43 430 q-110 8 -159 -24 q-12 -6 -23 -6 q-18 -68 -41.5 -126.5 q-23.5 -58.5 -59.5 -117 q-36 -58.5 -78.5 -100 q-42.5 -41.5 -101 -67.5 q-58.5 -26 -125.5 -28 q-54 -2 -60 38 Z" /><glyph glyph-name="afii10073" unicode="&#x437;" d="M-77 99 q13 35 52 52 q33 14 60 1 q74 -34 165.5 -48 q91.5 -14 187.5 4 q96 18 151 76 q47 47 58 124 q11 77 -36 128 q-46 43 -155 47 q-30 -9 -56 -22 q-21 -9 -41 0.5 q-20 9.5 -33 30.5 q-19 6 -28 24 q-9 18 -2 39 q2 13 18 29 q8 21 33 30 q25 12 97 43 q72 31 110 52 q27 14 44 24 q17 10 43.5 28 q26.5 18 40.5 39 q14 21 15 42 q2 27 -8 47 q-10 20 -30.5 30.5 q-20.5 10.5 -44 16.5 q-23.5 6 -56.5 4.5 q-33 -1.5 -60 -3 q-27 -1.5 -63.5 -9 q-36.5 -7.5 -57.5 -11.5 q-21 -4 -50.5 -11.5 q-29.5 -7.5 -34.5 -8.5 q-38 -9 -67 25.5 q-29 34.5 -28 77 q1 42.5 37 51.5 q9 2 44 11 q35 9 47 11.5 q12 2.5 43.5 9.5 q31.5 7 47.5 9 q16 2 44 5.5 q28 3.5 47 3 q19 -0.5 43 -2 q24 -1.5 45 -6.5 q92 -18 159.5 -84 q67.5 -66 71.5 -156 q8 -164 -166 -272 q58 -19 99 -70 q55 -82 46.5 -183 q-8.5 -101 -69.5 -177 q-74 -97 -208.5 -142 q-134.5 -45 -271.5 -35.5 q-137 9.5 -249 58.5 q-51 22 -34 68 Z" /><glyph glyph-name="afii10074" unicode="&#x438;" d="M47 418 q9 109 51.5 302 q42.5 193 53.5 263 q6 37 47.5 41 q41.5 4 78.5 -22.5 q37 -26.5 31 -65.5 q-12 -74 -45.5 -218 q-33.5 -144 -44.5 -216 q-23 -150 -12 -234 q5 -112 45 -141 q41 -30 190 68 q116 80 187 159 q3 8 12 13 q10 47 32 145 q22 98 34 155.5 q12 57.5 23.5 141.5 q11.5 84 12.5 156 q0 43 48 70 q46 25 79 8 q24 -13 23 -48 q-1 -101 -19 -210 q-18 -109 -51 -250 q-33 -141 -45 -207 q11 -25 -6 -47 q-18 -95 -18 -199 q0 -41 -49 -68 q-47 -26 -80 -8 q-24 12 -23 45 q0 51 4 74 q-257 -196 -438 -94 q-149 87 -121 387 Z" /><glyph glyph-name="afii10075" unicode="&#x439;" d="M61.5 98 q-19.5 50 -18.5 100 q1 50 1 102 q0 5 0.5 7 q0.5 2 0.5 5.5 q0 3.5 0 6.5 q5 120 47 336 q42 216 51 295 q7 47 53 73 q44 25 69 2 q18 -15 14 -52 q-10 -79 -45.5 -251.5 q-35.5 -172.5 -45.5 -264.5 q-12 -79 -12 -197 q0 -75 19 -94 q48 -48 242 91 q3 3 5 4.5 q2 1.5 4 2.5 q56 38 80.5 55.5 q24.5 17.5 67.5 54 q43 36.5 70 68.5 q9 167 30.5 289 q21.5 122 75.5 230 q20 39 75 48 q51 9 70 -18 q13 -19 -2 -49 q-78 -158 -92 -387 q18 -13 21 -36.5 q3 -23.5 -13 -53.5 q-3 -4 -7 -14.5 q-4 -10.5 -7 -14.5 q-1 -25 -4 -96.5 q-3 -71.5 -4.5 -107 q-1.5 -35.5 -6.5 -90.5 q-5 -55 -12 -99 q-6 -41 -56.5 -62.5 q-50.5 -21.5 -80.5 0.5 q-21 15 -16 48 q14 103 20 229 q-58 -53 -194 -141 q-8 -5 -44.5 -28 q-36.5 -23 -58 -35.5 q-21.5 -12.5 -60 -30.5 q-38.5 -18 -65.5 -23.5 q-27 -5.5 -58 -2.5 q-31 3 -54 21 q-40 30 -59.5 80 ZM342 1378 q-3 43 44 71 q45 26 80 10 q24 -12 26 -44 q4 -45 27 -67.5 q23 -22.5 57 -22 q34 0.5 73 11 q39 10.5 79 31.5 q40 21 71 41 q31 20 51 37 q36 32 69.5 19 q33.5 -13 35 -48.5 q1.5 -35.5 -30.5 -68.5 q-40 -35 -95 -67 q-55 -32 -118.5 -57 q-63.5 -25 -126 -32 q-62.5 -7 -114.5 5 q-52 12 -87 58 q-35 46 -41 123 Z" /><glyph glyph-name="afii10076" unicode="&#x43a;" d="M43 37 q56 541 211 999 q19 55 60 49 q34 -4 50 -42 q14 -32 3 -66 q-71 -207 -113 -399 q39 17 77.5 43 q38.5 26 69 51 q30.5 25 65.5 64 q35 39 57 66.5 q22 27.5 55.5 75.5 q33.5 48 49.5 73 q16 25 49.5 77.5 q33.5 52.5 45.5 71.5 q32 49 68 25 q31 -20 34 -67 q3 -34 -14 -59 q-7 -10 -35 -54 q-28 -44 -38 -59 q-10 -15 -37 -55 q-27 -40 -41.5 -60 q-14.5 -20 -40 -54.5 q-25.5 -34.5 -45 -57.5 q-19.5 -23 -44.5 -50.5 q-25 -27.5 -49 -51.5 q20 -13 40.5 -36.5 q20.5 -23.5 32.5 -42 q12 -18.5 30.5 -49 q18.5 -30.5 23.5 -38.5 q5 -8 21 -33.5 q16 -25.5 22.5 -35.5 q6.5 -10 20.5 -33 q14 -23 21.5 -35.5 q7.5 -12.5 19 -34 q11.5 -21.5 18.5 -37 q7 -15.5 15 -34.5 q8 -19 14 -37 q12 -37 -23 -61 q-35 -24 -80 -17.5 q-45 6.5 -57 43.5 q-33 93 -119 219 q-63 100 -84 125 q-13 22 -24 33 q0 1 -2 2.5 q-2 1.5 -2 3.5 q-3 0 -7 1 q-4 1 -6 1 q-49 -27 -84 -41 q-30 -12 -49 4 q-36 -179 -59 -406 q-6 -47 -38 -62 q-32 -15 -60 9 q-28 24 -23 72 Z" /><glyph glyph-name="afii10077" unicode="&#x43b;" d="M-70 20 q-18 22 -10.5 49 q7.5 27 33.5 33 q67 16 124 51.5 q57 35.5 97.5 80 q40.5 44.5 75 106 q34.5 61.5 57 120.5 q22.5 59 44 133 q21.5 74 35 133.5 q13.5 59.5 31.5 132.5 q18 73 32 120 q6 26 33.5 35 q27.5 9 54.5 0 q12 9 26 12 q57 14 135.5 16.5 q78.5 2.5 140 -1.5 q61.5 -4 136.5 1 q28 3 41 -25 q13 -28 8 -54 q-62 -218 -91.5 -325 q-29.5 -107 -73 -289.5 q-43.5 -182.5 -68.5 -328.5 q-9 -49 -52 -66 q-39 -15 -64 12 q-19 21 -13 61 q56 315 210 856 q-24 0 -89 2 q-65 2 -109.5 0.5 q-44.5 -1.5 -85.5 -8.5 q-11 -39 -27 -104 q-16 -65 -27.5 -110.5 q-11.5 -45.5 -29.5 -109 q-18 -63.5 -34.5 -109.5 q-16.5 -46 -41.5 -102.5 q-25 -56.5 -51 -97.5 q-26 -41 -61.5 -85 q-35.5 -44 -75.5 -75 q-40 -31 -91.5 -56.5 q-51.5 -25.5 -109.5 -39.5 q-70 -18 -109 32 Z" /><glyph glyph-name="afii10078" unicode="&#x43c;" d="M47 115 q103 313 131 415 q3 9 15 50.5 q12 41.5 18 62 q6 20.5 15 61 q9 40.5 12.5 67 q3.5 26.5 3.5 59 q0 32.5 -6 57.5 q-30 34 -10 91 q17 47 50 58 q23 7 43 -12 q43 -37 52 -98 q11 -4 22.5 -13.5 q11.5 -9.5 20.5 -20 q9 -10.5 18.5 -27.5 q9.5 -17 15.5 -28.5 q6 -11.5 14.5 -31.5 q8.5 -20 12 -29 q3.5 -9 10 -28 q6.5 -19 7.5 -21 q10 -23 32.5 -80.5 q22.5 -57.5 44.5 -104 q22 -46.5 47 -79.5 q38 45 119 136.5 q81 91.5 128.5 147 q47.5 55.5 109.5 139 q62 83.5 106 158.5 q27 40 53 36.5 q26 -3.5 42.5 -37.5 q16.5 -34 9.5 -70 q-13 -67 -44.5 -225 q-31.5 -158 -48 -246.5 q-16.5 -88.5 -37 -221 q-20.5 -132.5 -30.5 -243.5 q-3 -48 -35 -65.5 q-32 -17.5 -61.5 5 q-29.5 22.5 -24.5 70.5 q26 286 103 658 q-65 -80 -191 -223 q-126 -143 -162 -185 q-27 -41 -71 -6 q-19 13 -36.5 32.5 q-17.5 19.5 -29 35.5 q-11.5 16 -27 46.5 q-15.5 30.5 -21.5 43 q-6 12.5 -21 48.5 q-15 36 -17 42 q-11 23 -33.5 76.5 q-22.5 53.5 -36.5 82.5 q-6 9 -6 17 q-36 -128 -41 -154 q-44 -167 -151 -485 q-15 -45 -50 -54 q-35 -9 -58 19.5 q-23 28.5 -7 73.5 Z" /><glyph glyph-name="afii10079" unicode="&#x43d;" d="M47 76 q67 186 115 418 q-14 64 20 94 q30 199 37 276 q-10 17 -2 43 q1 6 4 21 q3 15 4 24 q6 35 54 60 q50 26 79 6 q17 -13 15 -41 q-10 -156 -51 -387 q68 0 204 8 q136 8 205 8 q30 230 125 389 q23 42 75 45 q45 3 60 -25 q12 -23 -8 -57 q-53 -92 -83 -213 q-30 -121 -38 -223 q-8 -102 -21.5 -235.5 q-13.5 -133.5 -33.5 -223.5 q-10 -42 -58 -60 q-47 -18 -74 6 q-22 18 -13 57 q10 43 18.5 96 q8.5 53 12.5 89.5 q4 36.5 10.5 101.5 q6.5 65 9.5 93 q-41 -1 -191.5 -9 q-150.5 -8 -230.5 -7 q-43 -187 -113 -379 q-16 -43 -63 -53 q-44 -9 -65 19 q-16 23 -3 59 Z" /><glyph glyph-name="afii10080" unicode="&#x43e;" d="M115 233 q-47 156 -24 338 q23 182 116 318 q24 34 71.5 33.5 q47.5 -0.5 67.5 -29.5 q87 78 168.5 123.5 q81.5 45.5 165.5 44.5 q119 -4 204.5 -86.5 q85.5 -82.5 100.5 -200.5 q20 -148 -21 -301.5 q-41 -153.5 -140 -281 q-99 -127.5 -236 -191.5 q-164 -71 -294.5 -4 q-130.5 67 -178.5 237 ZM287 729 q-34 -92 -41.5 -199.5 q-7.5 -107.5 12.5 -199.5 q5 -24 12.5 -48 q7.5 -24 19.5 -53 q12 -29 25.5 -52.5 q13.5 -23.5 32 -46 q18.5 -22.5 39.5 -33.5 q21 -11 47 -15 q26 -4 55 10 q153 65 245 222.5 q92 157.5 97 330.5 q1 39 -6.5 85 q-7.5 46 -24.5 95.5 q-17 49.5 -51.5 80.5 q-34.5 31 -80.5 28 q-32 -2 -63.5 -14.5 q-31.5 -12.5 -64 -36.5 q-32.5 -24 -54.5 -42.5 q-22 -18.5 -56.5 -51 q-34.5 -32.5 -48.5 -44.5 q-39 -39 -94 -16 Z" /><glyph glyph-name="afii10081" unicode="&#x43f;" d="M45 86 q71 220 117 444 q38 204 43 258 q4 28 2 70.5 q-2 42.5 -17 61.5 q-31 37 9 69 q36 29 86 24 q32 -3 49 -24 q33 -37 33 -133 q129 80 297 143 q113 43 198 35 q19 -2 38 -7 q19 -5 39 -14 q20 -9 33.5 -24.5 q13.5 -15.5 16.5 -34.5 q4 -46 3.5 -77 q-0.5 -31 -11 -80.5 q-10.5 -49.5 -19 -81 q-8.5 -31.5 -22 -79 q-13.5 -47.5 -20.5 -75.5 q-3 -11 -14 -53 q-11 -42 -14 -57 q-3 -15 -12 -53 q-9 -38 -11.5 -57 q-2.5 -19 -8 -53.5 q-5.5 -34.5 -5 -58 q0.5 -23.5 1 -53.5 q0.5 -30 5 -58 q4.5 -28 12.5 -55 q13 -42 -32 -79 q-40 -34 -78 -25 q-25 6 -33 33 q-23 80 -24.5 167 q-1.5 87 14.5 173 q16 86 36 163 q20 77 44 171 q24 94 35 163 q1 5 4 16.5 q3 11.5 4 16 q1 4.5 1.5 12 q0.5 7.5 -2 11 q-2.5 3.5 -8 7.5 q-5.5 4 -14.5 5 q-6 4 -25.5 1 q-19.5 -3 -27 -3.5 q-7.5 -0.5 -27 -6 q-19.5 -5.5 -26.5 -7.5 q-7 -2 -26 -8.5 q-19 -6.5 -25 -8.5 q-154 -56 -299 -153 q-1 -1 -3 -2 q-2 -1 -3.5 -2 q-1.5 -1 -2.5 -1.5 q-1 -0.5 -2 -0.5 q-7 -62 -28 -150 q-45 -225 -129 -496 q-14 -40 -67 -48 q-51 -7 -77 21 q-19 21 -8 54 Z" /><glyph glyph-name="afii10082" unicode="&#x440;" d="M-80 -362 q26 130 98 413 q72 283 111 501.5 q39 218.5 41 424.5 q1 22 17.5 37 q16.5 15 40.5 19 q24 4 47.5 0.5 q23.5 -3.5 40 -20 q16.5 -16.5 16.5 -40.5 q0 -6 -1 -17.5 q-1 -11.5 -1 -17.5 q82 51 181.5 76 q99.5 25 188.5 16 q135 -17 204 -118 q69 -101 61 -242 q-4 -88 -37.5 -180 q-33.5 -92 -88.5 -172.5 q-55 -80.5 -128.5 -149 q-73.5 -68.5 -158.5 -110 q-85 -41.5 -178.5 -56.5 q-93.5 -15 -187.5 12 q-6 6 -14 6 q-63 -259 -92 -387 q-8 -40 -60 -54 q-52 -14 -83 11 q-23 17 -17 48 ZM209 168 q101 -29 211 7.5 q110 36.5 196.5 113 q86.5 76.5 147.5 178 q61 101.5 74 199.5 q16 132 -35 170 q-53 42 -158 34 q-88 -8 -172 -41.5 q-84 -33.5 -141 -89.5 q-10 -10 -15 -10 q-25 -205 -108 -561 Z" /><glyph glyph-name="afii10083" unicode="&#x441;" d="M2 379 q5 119 45.5 231 q40.5 112 109.5 200.5 q69 88.5 163 151 q94 62.5 206.5 82.5 q112.5 20 239.5 -6 q43 -9 45 -48 q2 -39 -29 -71.5 q-31 -32.5 -67 -25.5 q-72 13 -142 13 q-70 0 -140.5 -25 q-70.5 -25 -121.5 -74 q-80 -77 -123 -181.5 q-43 -104.5 -45 -219.5 q0 -98 39.5 -170 q39.5 -72 126.5 -97 q141 -41 365 56 q53 24 71 -16 q16 -35 -8 -77 q-16 -28 -43 -39 q-300 -141 -497 -51 q-103 45 -153 145.5 q-50 100.5 -42 221.5 Z" /><glyph glyph-name="afii10084" unicode="&#x442;" d="M45 14 q37 162 94.5 474.5 q57.5 312.5 89.5 459.5 q10 43 55 63 q44 20 69 -4 q19 -18 12 -57 q-5 -21 -13.5 -61.5 q-8.5 -40.5 -13.5 -59.5 q21 12 89.5 53.5 q68.5 41.5 116.5 68 q48 26.5 97 48.5 q1 0 15 6 q14 6 16.5 7 q2.5 1 15.5 5.5 q13 4.5 17.5 5 q4.5 0.5 16 3.5 q11.5 3 18 2.5 q6.5 -0.5 16 -1 q9.5 -0.5 17 -3 q7.5 -2.5 15.5 -6.5 q32 -16 51.5 -56.5 q19.5 -40.5 24.5 -84.5 q8 -31 8 -99 q170 119 242 159 q255 140 313 -26 q8 -22 13 -51 q7 -42 7 -91.5 q0 -49.5 -2.5 -85 q-2.5 -35.5 -12.5 -96 q-10 -60.5 -14.5 -84 q-4.5 -23.5 -18.5 -89.5 q-8 -39 -27 -119.5 q-19 -80.5 -32 -143.5 q-13 -63 -21 -120 q-6 -37 -48 -48.5 q-42 -11.5 -80 9.5 q-38 21 -32 61 q13 87 45.5 223.5 q32.5 136.5 55 258 q22.5 121.5 24.5 227.5 q0 3 0.5 25.5 q0.5 22.5 0.5 34.5 q0 12 -3.5 29 q-3.5 17 -9.5 26 l-18 -7 l1 0 q-20 -7 -71 -34 q-35 -22 -146.5 -108 q-111.5 -86 -179.5 -116 q-3 -27 -35 -194 q-49 -222 -92 -387 q-14 -54 -55 -46 q-34 8 -55 48 q-16 33 -9 65 q6 23 33.5 121.5 q27.5 98.5 38.5 142 q11 43.5 26.5 120 q15.5 76.5 22.5 139.5 q-15 18 -11.5 40.5 q3.5 22.5 21.5 36.5 q7 72 5 119 q0 32 -5 47 q-45 -11 -133 -61 q-47 -24 -147 -82.5 q-100 -58.5 -154 -85.5 q-2 0 -5 -2 q-3 -2 -5 -2 q-74 -410 -121 -613 q-10 -44 -56 -64 q-45 -19 -68 5 q-17 18 -9 55 Z" /><glyph glyph-name="afii10085" unicode="&#x443;" d="M-45 -389 q-36 22 -36.5 51 q-0.5 29 25 48 q25.5 19 58.5 16 q23 -2 44 8 q21 10 38 31 q17 21 29.5 40 q12.5 19 27.5 44.5 q15 25.5 21 35.5 q62 87 141 221 q-33 10 -41 56 q-32 126 -74.5 394.5 q-42.5 268.5 -78.5 404.5 q-13 44 11.5 73 q24.5 29 58.5 19.5 q34 -9.5 46 -56.5 q37 -137 78.5 -399 q41.5 -262 67.5 -373 q17 32 57 103 q66 126 183.5 366.5 q117.5 240.5 172.5 347.5 q21 41 81 39 q54 -1 76 -32 q14 -20 1 -45 q-40 -78 -185.5 -371.5 q-145.5 -293.5 -230.5 -448.5 q-64 -114 -92 -163.5 q-28 -49.5 -86.5 -138 q-58.5 -88.5 -111.5 -152.5 q-161 -189 -281 -119 Z" /><glyph glyph-name="afii10086" unicode="&#x444;" d="M52.5 228.5 q-19.5 94.5 -7.5 187.5 q12 93 51 178 q32 68 62.5 123 q30.5 55 73.5 117 q43 62 95.5 110 q52.5 48 110.5 74 q45 22 94 34.5 q49 12.5 102.5 8 q53.5 -4.5 82.5 -36.5 q1 4 13.5 46.5 q12.5 42.5 15 52 q2.5 9.5 12.5 45.5 q10 36 13 52.5 q3 16.5 9 45.5 q6 29 8 52.5 q2 23.5 3 47.5 q2 34 16.5 61.5 q14.5 27.5 44.5 32.5 q29 4 47 -19 q18 -23 16 -52 q-3 -64 -17 -139.5 q-14 -75.5 -27.5 -125 q-13.5 -49.5 -39.5 -135.5 q29 2 85 19.5 q56 17.5 69 19.5 q118 15 199 -63 q80 -82 103.5 -210.5 q23.5 -128.5 -7.5 -238.5 q-31 -125 -106 -258 q-6 -11 -22.5 -41.5 q-16.5 -30.5 -26 -46.5 q-9.5 -16 -24 -40 q-14.5 -24 -29 -42.5 q-14.5 -18.5 -30.5 -34.5 q-137 -137 -383 -108 q-35 -204 -67 -320 q-11 -45 -45.5 -58.5 q-34.5 -13.5 -60 11 q-25.5 24.5 -13.5 70.5 q48 211 62 303 l-7 0 q-17 0 -59.5 -1 q-42.5 -1 -65.5 -0.5 q-23 0.5 -61.5 2.5 q-38.5 2 -64 9.5 q-25.5 7.5 -56 19 q-30.5 11.5 -54 31.5 q-23.5 20 -42.5 47 q-53 75 -72.5 169.5 ZM190 498 q-19 -53 -20.5 -121 q-1.5 -68 21.5 -134.5 q23 -66.5 69 -99.5 q28 -20 70 -29 q42 -9 72.5 -9.5 q30.5 -0.5 83.5 2 q53 2.5 71 2.5 q11 71 30 217 q19 146 31 219 q24 174 54 305 q-38 -7 -47 41 q-9 24 -51 17.5 q-42 -6.5 -87.5 -25 q-45.5 -18.5 -60.5 -31.5 q-76 -69 -138.5 -162.5 q-62.5 -93.5 -97.5 -191.5 ZM682 109 q226 -31 313 96 q49 77 74.5 121 q25.5 44 58 117.5 q32.5 73.5 43.5 134.5 q2 31 2 69.5 q0 38.5 -12.5 79.5 q-12.5 41 -29.5 74 q-17 33 -48.5 52.5 q-31.5 19.5 -70.5 14.5 q-23 -2 -100.5 -22 q-77.5 -20 -118.5 -17 q-45 -229 -54 -305 q-9 -73 -28.5 -211.5 q-19.5 -138.5 -28.5 -203.5 Z" /><glyph glyph-name="afii10087" unicode="&#x445;" d="M14.5 -13 q-36.5 4 -48 38 q-11.5 34 8.5 75 q32 51 102.5 134 q70.5 83 94.5 116 q74 101 139 176 q-31 48 -55 92 q-25 49 -80 179 q-14 37 -39 90 q-1 4 -5.5 13 q-4.5 9 -8 16.5 q-3.5 7.5 -2.5 9.5 q-23 13 -8 59 l2 0 q12 38 48.5 61 q36.5 23 69.5 -4 q16 -14 27 -35 q11 -21 22.5 -55.5 q11.5 -34.5 14.5 -40.5 q64 -150 84 -184 q19 -42 41 -74 q32 36 115 134.5 q83 98.5 144 166.5 q61 68 124 127 q22 19 48 10 q26 -9 36 -34 q18 -64 -35 -113 q-61 -56 -120.5 -122.5 q-59.5 -66.5 -135 -158.5 q-75.5 -92 -109.5 -131 q40 -74 121 -219 q81 -145 121 -219 q18 -33 -8 -72.5 q-26 -39.5 -62 -47.5 q-36 -8 -61 24 q-40 76 -223 405 q-73 -86 -127 -161 q-23 -33 -85 -104.5 q-62 -71.5 -87 -112.5 q-27 -42 -63.5 -38 Z" /><glyph glyph-name="afii10088" unicode="&#x446;" d="M48 148.5 q-5 40.5 -5.5 69.5 q-0.5 29 8 83.5 q8.5 54.5 12 73 q3.5 18.5 18 80 q14.5 61.5 15.5 65.5 q8 34 26.5 107 q18.5 73 29 117 q10.5 44 18.5 107.5 q8 63.5 6 117.5 q0 28 25.5 44.5 q25.5 16.5 56.5 17 q31 0.5 56.5 -16 q25.5 -16.5 25.5 -45.5 q3 -99 -22 -217 q-25 -118 -58.5 -245 q-33.5 -127 -42.5 -216 q0 -7 -7 -51.5 q-7 -44.5 -6.5 -77 q0.5 -32.5 13.5 -47.5 q6 -5 24 -5 q18 0 39.5 2.5 q21.5 2.5 24.5 2.5 q160 27 328 131 q22 13 51 20 q6 33 28.5 171.5 q22.5 138.5 33.5 197 q11 58.5 35.5 161.5 q24.5 103 52.5 185 q14 43 61 56 q45 14 67 -12 q17 -21 3 -60 q-18 -54 -33 -110 q-15 -56 -28 -122.5 q-13 -66.5 -20.5 -108 q-7.5 -41.5 -21 -124 q-13.5 -82.5 -18.5 -113.5 q-4 -17 -13 -69.5 q-9 -52.5 -16 -79.5 q-2 -12 -12.5 -47 q-10.5 -35 -11.5 -54 q0 -14 41.5 -16 q41.5 -2 94 1.5 q52.5 3.5 60.5 2.5 q36 -3 44.5 -37 q8.5 -34 -11.5 -59 q-27 -40 -50 -93 q-23 -53 -34 -85.5 q-11 -32.5 -31 -98.5 q-12 -42 -58 -57 q-45 -14 -69 12 q-18 22 -8 60 q44 143 78 210 q-34 -2 -64 -3.5 q-30 -1.5 -61.5 9.5 q-31.5 11 -54.5 37 q-26 29 -23 82 q-162 -86 -321 -108 q-213 -25 -258 84 q-13 30 -18 70.5 Z" /><glyph glyph-name="afii10089" unicode="&#x447;" d="M100 499.5 q-23 60.5 -16 127.5 q7 67 23.5 129 q16.5 62 35.5 137.5 q19 75.5 21 126.5 q1 56 41 63 q34 6 62 -27 q22 -26 20 -61 q-1 -32 -7.5 -68 q-6.5 -36 -13.5 -61.5 q-7 -25.5 -19 -67.5 q-12 -42 -18 -63 q-1 -3 -7 -27.5 q-6 -24.5 -8 -34.5 q-2 -10 -6 -33 q-4 -23 -2 -36.5 q2 -13.5 5.5 -31 q3.5 -17.5 13.5 -29 q10 -11.5 25 -19.5 q143 -71 422 97 q11 41 27.5 121 q16.5 80 19.5 94 q1 8 16 57.5 q15 49.5 13 69.5 q-5 43 44 70 q46 25 83 9 q25 -10 28 -38 q4 -24 0.5 -49.5 q-3.5 -25.5 -12.5 -60 q-9 -34.5 -12 -50.5 q-30 -152 -62 -281 q-8 -36 -29 -130 q-21 -94 -33 -145 q-12 -51 -33 -127 q-21 -76 -42 -138 q-14 -39 -68 -48 q-53 -8 -78 20 q-18 20 -8 50 q44 127 101 371 q-298 -137 -445 -23 q-59 46 -82 106.5 Z" /><glyph glyph-name="afii10090" unicode="&#x448;" d="M47.5 174 q-2.5 27 -5 44.5 q-2.5 17.5 0.5 50 q3 32.5 3 45 q0 12.5 7 50.5 q7 38 8 44.5 q1 6.5 10 48.5 q9 42 9 43 q8 48 23.5 144 q15.5 96 23.5 144 q2 10 10.5 37.5 q8.5 27.5 13 44.5 q4.5 17 8.5 44 q4 27 -3 36 q-17 45 4.5 73.5 q21.5 28.5 57 19.5 q35.5 -9 52.5 -54 q13 -31 13.5 -72.5 q0.5 -41.5 -5 -71.5 q-5.5 -30 -17 -78 q-11.5 -48 -15.5 -69 q-8 -48 -24.5 -133 q-16.5 -85 -28.5 -156 q-12 -71 -17 -133 q0 -2 -1.5 -11.5 q-1.5 -9.5 -2.5 -15.5 q-1 -6 -2 -17.5 q-1 -11.5 -1.5 -19.5 q-0.5 -8 -0.5 -19 q0 -11 1.5 -19 q1.5 -8 3.5 -16 q2 -8 6 -14 q4 -6 9 -9 q37 -19 121 33 q144 95 215 207 q23 34 64 20 l0 6 q9 36 37.5 128 q28.5 92 38.5 143 q8 40 25 145 q17 105 30 162 q5 31 25.5 55.5 q20.5 24.5 50.5 28.5 q28 5 49 -12.5 q21 -17.5 14 -44.5 q-10 -52 -26 -148 q-16 -96 -31 -172.5 q-15 -76.5 -35 -144.5 q-60 -189 -64 -303 l0 -22 q-1 -21 -0.5 -30.5 q0.5 -9.5 2.5 -28 q2 -18.5 7.5 -31 q5.5 -12.5 13.5 -20.5 q5 -4 11 -7 q6 -3 11.5 -5 q5.5 -2 13 -2 q7.5 0 12.5 0 q5 0 13.5 1.5 q8.5 1.5 12.5 2.5 q4 1 13.5 4 q9.5 3 12.5 4 q3 1 13 4.5 q10 3.5 12 4.5 q165 79 235 174 q45 52 80 47 q10 43 13 74 q61 393 100 587 q8 44 42.5 61 q34.5 17 62.5 -3.5 q28 -20.5 20 -69.5 q-59 -289 -96 -582 q-3 -23 -17 -105 q-14 -82 -19.5 -136 q-5.5 -54 -2.5 -105 q2 -48 -40 -75 q-39 -25 -68 -5 q-21 16 -23 52 q-3 60 4 141 q-115 -118 -273 -186 q-40 -16 -78.5 -24.5 q-38.5 -8.5 -81 -8.5 q-42.5 0 -76 22.5 q-33.5 22.5 -48.5 67.5 q-22 71 -25 135 q-36 -39 -75.5 -73.5 q-39.5 -34.5 -85.5 -66 q-46 -31.5 -91.5 -46.5 q-45.5 -15 -88 -15.5 q-42.5 -0.5 -80.5 27 q-38 27.5 -64 82.5 q-10 21 -17 43 q-7 22 -9.5 49 Z" /><glyph glyph-name="afii10091" unicode="&#x449;" d="M49 154 q-7 34 -7.5 75.5 q-0.5 41.5 1.5 73 q2 31.5 10.5 82.5 q8.5 51 13 73 q4.5 22 16.5 76 q1 6 1.5 9 q0.5 3 1.5 7.5 q1 4.5 2 8.5 q30 149 105 453 q9 38 53 42.5 q44 4.5 79.5 -21.5 q35.5 -26 24.5 -64 q-4 -17 -22.5 -85.5 q-18.5 -68.5 -24.5 -91.5 q-6 -23 -21.5 -85 q-15.5 -62 -22 -92.5 q-6.5 -30.5 -17.5 -86 q-11 -55.5 -16.5 -93.5 q-5.5 -38 -11 -86 q-5.5 -48 -7.5 -91 q-6 -43 0 -86 q0 -4 1 -11 q0 -11 1 -15 q1 -4 3.5 -6 q2.5 -2 8.5 -1 q58 8 160 66 q36 21 73 46.5 q37 25.5 86.5 62 q49.5 36.5 71.5 51.5 q11 8 29 8 q13 91 30 192.5 q17 101.5 40 229 q23 127.5 34 192.5 q7 40 59 64 q51 24 81 5 q19 -13 14 -44 q-10 -55 -38 -206.5 q-28 -151.5 -45.5 -258.5 q-17.5 -107 -29.5 -209 q-12 -102 -14 -154 q0 -4 -0.5 -14 q-0.5 -10 0 -13.5 q0.5 -3.5 1.5 -10 q1 -6.5 3.5 -9.5 q2.5 -3 7.5 -6.5 q5 -3.5 13 -5.5 q16 -1 24.5 -3 q8.5 -2 25.5 3 q17 5 26 7 q9 2 26 9.5 q17 7.5 25 11.5 q8 4 23.5 12 q15.5 8 21.5 11 q36 19 101 56 q65 37 95 53 q75 410 162 704 q8 28 33.5 39 q25.5 11 50.5 -6 q46 -33 25 -113 q-84 -283 -162 -719 q0 -3 -2 -7 q-2 -4 -2 -7 q8 0 32.5 2.5 q24.5 2.5 36.5 2.5 q12 0 30 -4.5 q18 -4.5 32 -14.5 q18 -13 30 -29.5 q12 -16.5 16 -37 q4 -20.5 5.5 -38.5 q1.5 -18 -4.5 -42.5 q-6 -24.5 -10.5 -41.5 q-4.5 -17 -16 -43.5 q-11.5 -26.5 -17.5 -39.5 q-6 -13 -19.5 -39 q-13.5 -26 -16.5 -33 q-23 -53 -64 -38 q-32 12 -45 52 q-10 35 5 66 q6 13 47 102 q0 3 1 5.5 q1 2.5 2.5 5.5 q1.5 3 2.5 5 q-98 -14 -137 15 q-41 30 -41 96 q-110 -71 -201.5 -109.5 q-91.5 -38.5 -175.5 -29.5 q-45 4 -74.5 21 q-29.5 17 -43.5 45.5 q-14 28.5 -19 58.5 q-5 30 -4 71 q-140 -94 -220 -131 q-49 -22 -102.5 -31 q-53.5 -9 -105 -2 q-51.5 7 -91 41 q-39.5 34 -53.5 93 Z" /><glyph glyph-name="afii10092" unicode="&#x44a;" d="M94 932 q-17 23 -9.5 47 q7.5 24 34.5 35 q8 4 21 6.5 q13 2.5 16 3.5 l2 0 q118 23 278 23 q16 0 23 -5 q35 8 56.5 -12.5 q21.5 -20.5 2.5 -62.5 q0 -16 -6 -19 q-61 -145 -115 -387 q108 45 232 51 q200 4 264 -96 q37 -61 33.5 -123 q-3.5 -62 -31.5 -118 q-28 -56 -76.5 -106 q-48.5 -50 -101 -87 q-52.5 -37 -105.5 -62 q-198 -90 -311 -24 q-53 32 -75 89.5 q-22 57.5 -17 123.5 q6 137 63 381 q41 196 95 330 q-42 0 -146 -17 q-6 -4 -14 -4 l0 -2 l0 2 l-4 -2 l4 0 q-34 -8 -64.5 1 q-30.5 9 -48.5 34 ZM352 302.5 q-4 -26.5 -3.5 -70 q0.5 -43.5 12.5 -66 q12 -22.5 42.5 -37 q30.5 -14.5 79.5 -6.5 q38 7 99.5 35.5 q61.5 28.5 121.5 71 q60 42.5 82 91.5 q22 49 -20 97 q-11 11 -24.5 19 q-13.5 8 -31 12.5 q-17.5 4.5 -29.5 7.5 q-12 3 -34.5 3.5 q-22.5 0.5 -31 0.5 q-8.5 0 -34.5 -1 q-26 -1 -30 -1 q-98 -8 -184 -68 q-1 -5 -3 -15 q-8 -47 -12 -73.5 Z" /><glyph glyph-name="afii10093" unicode="&#x44b;" d="M43 150 q-5 49 5 100 q10 51 33 122.5 q23 71.5 30 96.5 q4 15 20.5 80.5 q16.5 65.5 21.5 87.5 q5 22 17 78 q12 56 17 89 q5 33 10 79.5 q5 46.5 6 87.5 q0 38 39.5 58.5 q39.5 20.5 79.5 8 q40 -12.5 40 -54.5 q-5 -182 -63 -401 q74 30 146.5 41 q72.5 11 145 -6.5 q72.5 -17.5 120.5 -67.5 q55 -60 59.5 -133.5 q4.5 -73.5 -31.5 -139.5 q-36 -66 -88 -121 q-52 -55 -112 -92 q-43 -26 -102.5 -47 q-59.5 -21 -126.5 -29 q-67 -8 -124.5 1.5 q-57.5 9.5 -97.5 50.5 q-40 41 -45 111 ZM199.5 226 q-4.5 -27 -3 -43.5 q1.5 -16.5 10 -34.5 q8.5 -18 24.5 -27 q38 -20 83 -16 q45 4 83 26 q32 15 64 37 q32 22 65.5 52 q33.5 30 53.5 63.5 q20 33.5 27.5 71.5 q7.5 38 -11.5 75 q-20 48 -66.5 63 q-46.5 15 -99 1.5 q-52.5 -13.5 -101 -37.5 q-48.5 -24 -79.5 -51 q-8 -32 -19 -64 q-1 -5 -10 -32 q-9 -27 -13 -42 q-4 -15 -8.5 -42 ZM870 76 q-2 32 4 67.5 q6 35.5 18.5 82 q12.5 46.5 16.5 65.5 q18 122 52 239 q89 334 110 469 q8 37 49.5 40.5 q41.5 3.5 78 -24 q36.5 -27.5 30.5 -67.5 q-8 -45 -17.5 -90.5 q-9.5 -45.5 -24 -101 q-14.5 -55.5 -22.5 -86.5 q-8 -31 -27.5 -101 q-19.5 -70 -25.5 -90 q-39 -171 -51 -237 q-2 -19 -17.5 -84 q-15.5 -65 -13.5 -99 q1 -40 -38.5 -50.5 q-39.5 -10.5 -80 10.5 q-40.5 21 -41.5 57 Z" /><glyph glyph-name="afii10094" unicode="&#x44c;" d="M49 377 q17 24 29 43 q14 54 47 170.5 q33 116.5 56 207.5 q23 91 38 173 q7 37 49 52 q42 15 80 -2 q38 -17 33 -58 q0 -2 -2 -14 q-2 -12 -4 -19 q0 -1 -6 -19 q-10 -50 -24.5 -105 q-14.5 -55 -33.5 -122.5 q-19 -67.5 -28 -103.5 q68 27 108 34 q64 10 129.5 12.5 q65.5 2.5 134.5 -20 q69 -22.5 109 -69.5 q36 -38 39 -96 q3 -58 -15 -107 q-18 -49 -47 -96 q-121 -195 -305 -232 q-60 -10 -123 -12.5 q-63 -2.5 -128 20.5 q-65 23 -101 70 q-64 79 -29 235 q-25 19 -6 58 ZM221 369 q-51 -196 19 -232 q65 -33 133 -20.5 q68 12.5 124.5 51.5 q56.5 39 95.5 100 q39 61 46 125 q5 40 -14.5 66.5 q-19.5 26.5 -52 35 q-32.5 8.5 -70.5 11 q-38 2.5 -70 -5.5 q-134 -31 -211 -131 Z" /><glyph glyph-name="afii10095" unicode="&#x44d;" d="M-71 91 q23 34 70 40 q31 5 54 -10 q84 -55 192 -41 q108 14 179 88 q85 95 139 258 q-39 -1 -157 -4.5 q-118 -3.5 -185 -3.5 q-38 0 -50.5 40.5 q-12.5 40.5 6.5 81 q19 40.5 59 40.5 q60 0 362 10 q33 260 -98 321 q-74 32 -150 28.5 q-76 -3.5 -151 -34.5 q-39 -18 -72 1.5 q-33 19.5 -31.5 54 q1.5 34.5 45.5 53.5 q108 52 239 53 q131 1 238 -61 q56 -37 91 -93 q35 -56 47 -121.5 q12 -65.5 10.5 -130.5 q-1.5 -65 -14.5 -133 q-14 -71 -37 -139.5 q-23 -68.5 -56.5 -136.5 q-33.5 -68 -82.5 -125.5 q-49 -57.5 -107 -93.5 q-79 -47 -168 -68 q-89 -21 -183.5 -8 q-94.5 13 -170.5 63 q-46 31 -18 71 Z" /><glyph glyph-name="afii10096" unicode="&#x44e;" d="M43 70 q18 158 88 469 q10 45 33.5 129.5 q23.5 84.5 38.5 154.5 q15 70 18 131 q2 37 43.5 53.5 q41.5 16.5 81.5 1 q40 -15.5 39 -56.5 q-4 -56 -17.5 -118.5 q-13.5 -62.5 -35.5 -144 q-22 -81.5 -31 -118.5 q10 2 29 2 q110 7 184 17 q17 0 23 -2 q2 6 12.5 31 q10.5 25 15.5 38 q8 16 27.5 58.5 q19.5 42.5 32.5 67.5 q13 25 35 58.5 q22 33.5 45 55.5 q15 35 43 47 q72 47 164 69.5 q92 22.5 180.5 15.5 q88.5 -7 157.5 -64 q69 -57 89 -158 q33 -182 -48 -386 q-81 -204 -226 -327 q-203 -168 -352 -123 q-92 27 -151 103.5 q-59 76.5 -68 173.5 q-12 94 2 176 q-105 -9 -199 -12 q-23 0 -35 -4 q-43 -206 -59 -342 q-5 -36 -47 -52 q-42 -16 -80 0 q-38 16 -33 56 ZM633 297 q14 -75 62 -132.5 q48 -57.5 120 -53.5 q64 4 128 46.5 q64 42.5 112 100.5 q81 101 129.5 249.5 q48.5 148.5 11.5 252.5 q-20 55 -60.5 86 q-40.5 31 -91 36.5 q-50.5 5.5 -101 -3 q-50.5 -8.5 -101.5 -29.5 q-20 -32 -43 -39 q-6 -2 -11 -6 q-5 -4 -9 -7.5 q-4 -3.5 -9 -11 q-5 -7.5 -7 -11 q-2 -3.5 -6.5 -13 q-4.5 -9.5 -5.5 -11.5 q-1 -2 -5.5 -12.5 q-4.5 -10.5 -4.5 -11.5 q-47 -92 -67 -137 q-71 -168 -41 -293 Z" /><glyph glyph-name="afii10097" unicode="&#x44f;" d="M39 -31 q-24 9 -33.5 34.5 q-9.5 25.5 4.5 47.5 q121 146 301 295 q-106 19 -170 98 q-67 94 -57 197.5 q10 103.5 84 192.5 q75 87 186 138.5 q111 51.5 230 59.5 q253 18 268 -102 q0 -29 -21 -47 q-63 -250 -174 -840 q-8 -36 -31 -52 q-23 -16 -45.5 -11 q-22.5 5 -37 29 q-14.5 24 -8.5 59 q15 74 49.5 251 q34.5 177 62 308 q27.5 131 58.5 250 q-13 17 -13 30 q0 -2 1 -6 q0 -7 -1 -7 q0 0 -2 1 q-8 5 -18 6 q-14 4 -51 4 q-45 4 -76 -4 q-79 -10 -151.5 -46 q-72.5 -36 -114.5 -97 q-32 -49 -35.5 -101.5 q-3.5 -52.5 17.5 -91.5 q21 -39 58 -67.5 q37 -28.5 87.5 -31 q50.5 -2.5 105.5 18.5 q44 20 73 -0.5 q29 -20.5 21 -57.5 q-8 -37 -51 -56 l-4 0 l-2 -3 q-2 -3 -4 -3 q-2 -1 -6 -6.5 q-4 -5.5 -7 -6.5 q-5 -9 -28 -20 q-223 -163 -354 -326 q-50 -57 -111 -37 Z" /><glyph glyph-name="afii10071" unicode="&#x451;" d="M43 408 q5 177 78.5 339 q73.5 162 208.5 259 q84 59 179 87.5 q95 28.5 181 6.5 q82 -17 137.5 -73 q55.5 -56 75 -132 q19.5 -76 2.5 -158 q-10 -54 -41 -96 q-31 -42 -77 -69 q-46 -27 -92 -43.5 q-46 -16.5 -103 -28.5 q-58 -11 -250 -25 q-11 -1 -44 -3 q-33 -2 -58.5 -5 q-25.5 -3 -46.5 -8 q-10 -137 45 -238 q42 -74 110 -103 q68 -29 143 -15 q75 14 144.5 46 q69.5 32 132.5 80 q23 17 46.5 18.5 q23.5 1.5 37.5 -10.5 q14 -12 21 -29.5 q7 -17.5 -2 -39.5 q-9 -22 -33 -39 q-114 -84 -252.5 -135 q-138.5 -51 -257.5 -31 q-99 18 -166.5 91.5 q-67.5 73.5 -94 164 q-26.5 90.5 -24.5 189.5 ZM211 600 q57 11 169 15.5 q112 4.5 148 9.5 q125 11 199 51 q31 17 36.5 69 q5.5 52 -5.5 84 q-19 71 -70 106.5 q-51 35.5 -114 34 q-63 -1.5 -125 -35.5 q-110 -56 -179 -184 q-34 -66 -59 -150 ZM426 1241 q-29 4 -37.5 29 q-8.5 25 2.5 51 q0 9 6 18 l0 9 q0 2 2 2 q0 6 2 13 q2 7 2 9 l0 1 l0 9 q3 32 21.5 58 q18.5 26 46.5 35 q26 10 53 -1 q27 -11 27 -40 q-6 -66 -29 -131 q-9 -29 -38 -48 q-29 -19 -58 -14 ZM745 1354 q3 10 15 44 q12 34 18 54 q7 27 29 41 q22 14 47 0 q26 -13 39 -45.5 q13 -32.5 2 -58.5 q-4 -17 -15.5 -51 q-11.5 -34 -15.5 -48 q-12 -29 -33.5 -44 q-21.5 -15 -46.5 1 q-24 12 -36 46 q-12 34 -3 61 Z" /><glyph glyph-name="afii10099" unicode="&#x452;" d="M43 49 q57 249 209 828 q-55 -3 -115 -3 q-34 0 -53.5 18.5 q-19.5 18.5 -19.5 40 q0 21.5 19.5 40 q19.5 18.5 53.5 18.5 q99 0 150 4 q5 20 90 330 q10 39 62 51 q51 12 78 -12 q19 -17 11 -45 q-13 -47 -40.5 -153 q-27.5 -106 -43.5 -162 q225 10 271 10 q34 0 53.5 -18.5 q19.5 -18.5 19.5 -41 q0 -22.5 -19.5 -41 q-19.5 -18.5 -53.5 -18.5 q-101 0 -305 -12 q-24 -98 -86 -330 q119 116 247 149 q175 48 263 -22 q74 -58 92 -188 q41 -273 -72 -584 q-19 -49 -36.5 -87 q-17.5 -38 -47.5 -87 q-30 -49 -61 -81 q-31 -32 -75 -55.5 q-44 -23.5 -93 -25.5 q-45 -1 -67 28.5 q-22 29.5 -6 59.5 q16 30 62 31 q3 0 7 0 q9 0 12.5 1.5 q3.5 1.5 14.5 9.5 l1 1 q31 28 53 55 q51 78 91 197 q84 256 67 471 q0 3 -3 29.5 q-3 26.5 -5 36 q-2 9.5 -6.5 30 q-4.5 20.5 -11.5 34.5 q-7 14 -17 26 q-4 5 -10 9.5 q-6 4.5 -10 6.5 l-4 2 q-49 7 -115 -18 q-76 -32 -141 -92.5 q-65 -60.5 -111 -137.5 q-46 -77 -78.5 -154.5 q-32.5 -77.5 -54.5 -160.5 q-7 -25 -33 -38 q-26 -13 -57 -13 q-35 -2 -58.5 15 q-23.5 17 -17.5 48 Z" /><glyph glyph-name="afii10100" unicode="&#x453;" d="M131 33 q-123 89 -129.5 212.5 q-6.5 123.5 107.5 223.5 q58 53 149.5 102.5 q91.5 49.5 179 98.5 q87.5 49 142.5 106 q36 38 46.5 73 q10.5 35 -12 63.5 q-22.5 28.5 -79.5 41.5 q-70 13 -155 -8.5 q-85 -21.5 -151 -64.5 q-40 -28 -86 -4 q-39 20 -37 53 q2 24 31 43 q81 57 194.5 87 q113.5 30 232 13.5 q118.5 -16.5 184.5 -90.5 q39 -41 44 -87.5 q5 -46.5 -14 -87 q-19 -40.5 -57 -82.5 q-38 -42 -74.5 -70.5 q-36.5 -28.5 -77.5 -55.5 q-41 -25 -125 -66.5 q-84 -41.5 -125 -66.5 q-90 -62 -122 -99 q-45 -49 -45 -96 q3 -75 61.5 -124 q58.5 -49 136.5 -52 q140 0 303 103 q39 25 85 1 q39 -21 37 -53 q-2 -27 -34 -47 q-88 -55 -190 -90 q-102 -35 -220 -34.5 q-118 0.5 -200 57.5 ZM526 1225 q-29 7 -40 30 q-11 23 1 48 q31 63 78 145 q2 3 9 13.5 q7 10.5 10 15 q3 4.5 10 14 q7 9.5 11 14.5 q4 5 10.5 13 q6.5 8 12 13.5 q5.5 5.5 12 11.5 q6.5 6 13.5 11 q22 20 53 23.5 q31 3.5 56 -16.5 q18 -22 10 -48 q-8 -26 -31 -43 q0 -2 -8 -10 l-4 -6 q-4 -5 -6 -6 q-28 -47 -37 -57 q-28 -58 -59 -115 q-12 -25 -42.5 -40.5 q-30.5 -15.5 -58.5 -10.5 Z" /><glyph glyph-name="afii10101" unicode="&#x454;" d="M76 182.5 q-32 70.5 -33.5 144 q-1.5 73.5 14.5 150.5 q30 129 101 245.5 q71 116.5 173.5 199 q102.5 82.5 229 111.5 q126.5 29 266.5 -17 q52 -19 45 -58 q-5 -33 -42 -49 q-32 -14 -66 -2 q-86 26 -162.5 8.5 q-76.5 -17.5 -145 -73.5 q-68.5 -56 -119 -126.5 q-50.5 -70.5 -85.5 -150.5 q405 10 485 10 q50 0 50 -39 q1 -37 -36 -71 q-27 -25 -57 -25 q-68 0 -458 -10 q-12 -4 -27 -10 q-33 -189 57 -268 q109 -98 418 20 q66 25 111 -20 q18 -20 14 -47 q-4 -27 -29 -37 q-414 -157 -612 -2 q-60 46 -92 116.5 Z" /><glyph glyph-name="afii10102" unicode="&#x455;" d="M-77 81 q16 34 59 48 q33 10 59 -2 q53 -23 114.5 -31.5 q61.5 -8.5 121.5 -1 q60 7.5 109.5 42.5 q49.5 35 70.5 94 q12 42 11 74 q-1 32 -21.5 64 q-20.5 32 -45 55.5 q-24.5 23.5 -60 49 q-35.5 25.5 -66 44 q-30.5 18.5 -63.5 41.5 q-33 23 -52 41 q-96 99 -68.5 216 q27.5 117 146.5 181 q104 57 226 61 q122 4 226 -52 q47 -25 26 -67 q-17 -34 -58 -46 q-31 -8 -56 6 q-110 58 -229 27 q-65 -20 -109 -71 q-44 -51 -20 -110 q20 -46 61.5 -84.5 q41.5 -38.5 88 -66 q46.5 -27.5 92 -57 q45.5 -29.5 81 -72.5 q35.5 -43 47.5 -98 q25 -101 -26.5 -192.5 q-51.5 -91.5 -149.5 -145.5 q-111 -61 -241 -62 q-130 -1 -244 53 q-48 21 -30 61 Z" /><glyph glyph-name="afii10103" unicode="&#x456;" d="M2 53 q39 183 107 519 q68 336 94 460 q8 37 49 41 q41 4 76.5 -22.5 q35.5 -26.5 27.5 -63.5 q-28 -128 -95.5 -463 q-67.5 -335 -108.5 -518 q-8 -36 -49.5 -39.5 q-41.5 -3.5 -75.5 23 q-34 26.5 -25 63.5 ZM281 1276 q-30 19 -43.5 60 q-13.5 41 0.5 75 q15 29 34 43 q22 14 56 25 q19 7 59 1.5 q40 -5.5 53 -24.5 q44 -60 41 -121 q0 -19 -11 -39 q-11 -20 -28 -30 q-76 -40 -161 10 Z" /><glyph glyph-name="afii10104" unicode="&#x457;" d="M82 14 q1 41 6.5 87.5 q5.5 46.5 10 78.5 q4.5 32 17.5 90.5 q13 58.5 17.5 78 q4.5 19.5 22.5 89.5 q18 70 20 80 q5 21 28 121.5 q23 100.5 34 153.5 q3 19 9 54.5 q6 35.5 9 53.5 l0 23 l0 8 q-10 20 -1 45.5 q9 25.5 28.5 42 q19.5 16.5 42.5 23.5 q23 7 43 -9 q17 -13 25 -30.5 q8 -17.5 7 -42.5 q-1 -25 -2.5 -38 q-1.5 -13 -7.5 -42 q-8 -62 -53 -267 q-10 -40 -34.5 -131 q-24.5 -91 -37.5 -146 q-13 -55 -25.5 -133.5 q-12.5 -78.5 -13.5 -142.5 q-2 -43 -51 -74 q-47 -29 -76 -12 q-18 11 -18 39 ZM203 1305 q-18 37 4 59 q0 2 1 5 q1 3 1 5 q2 0 4 2.5 q2 2.5 4 3.5 q6 28 6 29 q9 28 31 53 q19 22 53 26 q34 4 58 -9 q25 -13 33.5 -36.5 q8.5 -23.5 -9.5 -47.5 q0 -4 -4 -6 q30 -34 4 -68 l-4 -4 q-6 -9 -6 -17 q-23 -32 -47 -43 q-36 -12 -73.5 1.5 q-37.5 13.5 -55.5 46.5 ZM500 1409 q0 29 14.5 52 q14.5 23 42.5 22 q29 -3 48.5 -29 q19.5 -26 19.5 -55 q0 -25 2 -35 l0 -6 q19 -24 22 -54.5 q3 -30.5 -14 -54.5 q-21 -23 -45 -18.5 q-24 4.5 -43 26.5 q-38 40 -47 152 Z" /><glyph glyph-name="afii10105" unicode="&#x458;" d="M-278 -385 q-17 49 4 82 q17 24 49 20 q27 -4 78 -4 q31 4 54.5 21 q23.5 17 40.5 47.5 q17 30.5 26 54 q9 23.5 20 60.5 q13 39 24 77.5 q11 38.5 23 89.5 q12 51 17.5 75 q5.5 24 19 90.5 q13.5 66.5 16.5 78.5 q25 115 72 345.5 q47 230.5 72 346.5 q10 53 50 49 q35 -3 57 -42 q17 -29 11 -60 q-28 -128 -79 -383 q-51 -255 -78 -383 q-59 -279 -107 -407 q-44 -119 -118.5 -172.5 q-74.5 -53.5 -194.5 -38.5 q-39 4 -57 53 ZM279 1343 q3 21 16 31 q0 1 -2 3 q-2 2 -2 3 q-3 10 0 25 q3 15 10 22 q38 28 82 25 q25 0 49 -14 q38 -30 47 -62 q11 -43 -18 -69 q-2 -1 -8 -7 q-6 -6 -11 -8 q-22 -10 -43 -12 q-23 -7 -47 0 q-30 2 -53 18.5 q-23 16.5 -20 44.5 ZM412 1339 q8 4 12 4 q1 1 2 3 q1 2 3 4 q2 2 5 4 q-8 -8 -22 -15 Z" /><glyph glyph-name="afii10106" unicode="&#x459;" d="M-79 74 q11 39 51 61 q30 17 57 8 q25 -8 48.5 -8 q23.5 0 42.5 6.5 q19 6.5 37.5 21 q18.5 14.5 32 30 q13.5 15.5 27 38.5 q13.5 23 23 42.5 q9.5 19.5 19.5 46 q10 26.5 16 44.5 q6 18 14 42 q17 53 32.5 117 q15.5 64 24 107 q8.5 43 24 123.5 q15.5 80.5 21.5 112.5 l4 4 q-15 24 -7 64.5 q8 40.5 36 58.5 q17 13 38.5 21 q21.5 8 50.5 11 q29 3 45 3.5 q16 0.5 53 0 q37 -0.5 44 -0.5 q15 0 94.5 -2.5 q79.5 -2.5 94.5 -2 q15 0.5 92 2.5 q24 3 36.5 -15 q12.5 -18 11.5 -41 q-1 -23 -5 -40 q-86 -220 -125 -371 q70 37 147.5 54.5 q77.5 17.5 153 13 q75.5 -4.5 140.5 -45.5 q65 -41 100 -116 q41 -92 24 -171 q-17 -79 -78 -141.5 q-61 -62.5 -140.5 -103.5 q-79.5 -41 -162.5 -57 q-121 -23 -198.5 8 q-77.5 31 -104 107.5 q-26.5 76.5 -31.5 165.5 q-5 89 20 206 q25 117 50 205.5 q25 88.5 60 185.5 q-29 0 -84.5 1 q-55.5 1 -81.5 1 q-89 11 -133 7 q0 -1 -1.5 -6 q-1.5 -5 -1.5 -7 q-10 -45 -28 -139 q-18 -94 -30 -149.5 q-12 -55.5 -35 -133.5 q-23 -78 -50 -141 q-23 -56 -52.5 -105 q-29.5 -49 -70 -94 q-40.5 -45 -87.5 -70.5 q-47 -25.5 -104 -34 q-57 -8.5 -120 14.5 q-47 14 -34 60 ZM821 385 q-22 -254 135 -254 q35 1 81.5 10 q46.5 9 99 28.5 q52.5 19.5 93 45 q40.5 25.5 59 64.5 q18.5 39 1.5 83 q-25 62 -85 90.5 q-60 28.5 -129 24 q-69 -4.5 -136 -27.5 q-67 -23 -111 -58 q-3 -6 -8 -6 Z" /><glyph glyph-name="afii10107" unicode="&#x45a;" d="M84 78 q23 132 89 424 q66 292 91 450 q5 29 23.5 54 q18.5 25 46.5 26 q26 0 41 -24 q15 -24 10 -50 q-23 -159 -80 -401 q42 6 47 6 q13 0 31 -6 q161 3 362 -4 q12 42 41 133.5 q29 91.5 43.5 145.5 q14.5 54 18.5 92 q3 42 55 65 q48 23 79 4 q20 -12 17 -39 q-3 -38 -10 -76 q-7 -38 -20.5 -85.5 q-13.5 -47.5 -20.5 -71.5 q-7 -24 -27 -84.5 q-20 -60.5 -24 -73.5 q221 18 328 -1 q197 -35 182 -185 q-11 -122 -86.5 -219 q-75.5 -97 -188 -144 q-112.5 -47 -231.5 -34 q-68 8 -113.5 37 q-45.5 29 -68 70 q-22.5 41 -29 98 q-6.5 57 0 114.5 q6.5 57.5 22.5 126.5 q-32 0 -106.5 1.5 q-74.5 1.5 -115.5 2 q-41 0.5 -102 0 q-61 -0.5 -113 -3.5 l-2 0 q-53 -239 -69 -342 q-5 -31 -21 -55 q-16 -24 -43 -27 q-29 0 -44 23.5 q-15 23.5 -13 52.5 ZM864 438 q-66 -233 19 -305 q23 -20 61 -27.5 q38 -7.5 73.5 -3.5 q35.5 4 63.5 15 q62 25 108 87 q46 62 62 132 q12 51 -22.5 79 q-34.5 28 -103.5 32 q-69 4 -125 1.5 q-56 -2.5 -121 -8.5 q-10 -2 -15 -2 Z" /><glyph glyph-name="afii10108" unicode="&#x45b;" d="M86 88 q106 356 197 793 l-68 0 q-43 0 -66 31.5 q-23 31.5 -8 62.5 q15 31 64 31 l100 0 q39 196 68 376 q8 36 49 39 q41 3 76.5 -24.5 q35.5 -27.5 29.5 -65.5 q-54 -280 -61 -319 q113 9 229 51 q43 16 89 -19 q39 -29 33 -60 q-6 -21 -34 -32 q-142 -57 -340 -67 q-41 -200 -55 -262 q107 68 217 88 q88 14 170 -4.5 q82 -18.5 125 -83.5 q64 -88 10 -269 q-4 -13 -22.5 -73 q-18.5 -60 -25 -84.5 q-6.5 -24.5 -16 -69.5 q-9.5 -45 -13.5 -82 q-3 -37 -43.5 -43.5 q-40.5 -6.5 -79 17.5 q-38.5 24 -35.5 63 q2 28 9 61 q7 33 12.5 53.5 q5.5 20.5 18 61 q12.5 40.5 17.5 55.5 q4 12 11 35 q7 23 11 36.5 q4 13.5 10.5 37 q6.5 23.5 8 38 q1.5 14.5 4 38 q2.5 23.5 -1.5 37.5 q-12 120 -210 22 q-109 -54 -206 -132 q-4 -4 -8 -7 q-1 -2 -6 -3.5 q-5 -1.5 -6 -2.5 q-58 -236 -102 -373 q-7 -22 -27 -32.5 q-20 -10.5 -43.5 -6.5 q-23.5 4 -44.5 14.5 q-21 10.5 -32.5 31 q-11.5 20.5 -4.5 42.5 Z" /><glyph glyph-name="afii10109" unicode="&#x45c;" d="M86 119 q31 117 80 412.5 q49 295.5 102 449.5 q19 53 60 43 q34 -7 51 -45 q15 -31 4 -61 q-53 -160 -84 -336 q5 2 13.5 5 q8.5 3 13.5 5 q69 15 133.5 61 q64.5 46 105 93 q40.5 47 98 118.5 q57.5 71.5 91.5 106.5 q31 31 87 20 q47 -10 56 -40 q6 -23 -18 -48 q-39 -39 -111.5 -123 q-72.5 -84 -132 -142 q-59.5 -58 -123.5 -97 q56 -70 142 -215.5 q86 -145.5 132 -206.5 q27 -34 -3 -83 q-25 -42 -62 -47 q-27 -2 -45 21 q-43 57 -138.5 215 q-95.5 158 -160.5 232 l-15 20 l-6 -2 q-6 -2 -10 -2 q-40 -9 -63 10 q-6 -33 -18 -104.5 q-12 -71.5 -19 -114 q-7 -42.5 -19.5 -102.5 q-12.5 -60 -25.5 -109 q-15 -54 -54 -44 q-34 8 -53 48 q-15 31 -8 62 ZM623 1210 q-28 8 -33.5 37.5 q-5.5 29.5 8.5 52.5 q8 15 18.5 30 q10.5 15 27 36 q16.5 21 22.5 29 q13 15 30 43 q2 0 3.5 2 q1.5 2 2.5 2 q7 25 31.5 42 q24.5 17 50.5 17 q51 -2 47 -74 q-2 -9 -6.5 -19 q-4.5 -10 -12.5 -21 q-8 -11 -13 -17.5 q-5 -6.5 -16 -18 q-11 -11.5 -13 -14.5 q-33 -45 -37 -51 q-2 -3 -5 -8 q-3 -5 -5 -8 l-6 -10 q-13 -27 -40.5 -43.5 q-27.5 -16.5 -53.5 -6.5 Z" /><glyph glyph-name="afii10110" unicode="&#x45e;" d="M-31 -324.5 q-17 38.5 -4 79.5 q13 41 51 46 q116 11 196 84 q80 73 144 193 q-4 2 -4 6 q-91 179 -153 504 q-4 20 -13.5 63 q-9.5 43 -16.5 76.5 q-7 33.5 -11 65.5 q0 3 -6 84 l0 16 l-5 4 q-35 57 0 111 q9 15 21 20 q31 14 61 -10 q9 -8 16.5 -20.5 q7.5 -12.5 11 -21.5 q3.5 -9 7 -27.5 q3.5 -18.5 4 -24.5 q0.5 -6 2.5 -28.5 q2 -22.5 2 -23.5 q7 -73 31 -190 q2 -9 10 -51 q8 -42 10.5 -54.5 q2.5 -12.5 10.5 -50 q8 -37.5 12.5 -54.5 q4.5 -17 12.5 -50 q8 -33 14.5 -54 q6.5 -21 15.5 -49.5 q9 -28.5 18.5 -53.5 q9.5 -25 20.5 -50 q13 37 33 70 q185 362 219 436 q16 35 40 105 q24 70 48.5 119 q24.5 49 62.5 89 q22 20 46 10.5 q24 -9.5 38 -34.5 q12 -27 8 -57.5 q-4 -30.5 -24 -53.5 q-18 -19 -33 -46.5 q-15 -27.5 -22 -47 q-7 -19.5 -19.5 -58.5 q-12.5 -39 -17.5 -53 q-19 -53 -96 -211 q-165 -320 -230 -440 q-40 -74 -66.5 -118 q-26.5 -44 -70.5 -101 q-44 -57 -86 -90 q-42 -33 -103 -59.5 q-61 -26.5 -132 -34.5 q-37 -3 -54 35.5 ZM311 1264.5 q-25 33.5 -20.5 76.5 q4.5 43 39.5 56 q53 17 112 20 q59 3 144 -1.5 q85 -4.5 114 -4.5 q37 -2 56 -41.5 q19 -39.5 5.5 -78 q-13.5 -38.5 -54.5 -38.5 q-30 0 -104.5 5 q-74.5 5 -128.5 2.5 q-54 -2.5 -101 -17.5 q-37 -12 -62 21.5 Z" /><glyph glyph-name="afii10193" unicode="&#x45f;" d="M84 350 q8 108 54.5 309 q46.5 201 56.5 299 q4 37 45 56 q41 19 79 7 q38 -12 35 -52 q-10 -94 -48.5 -260 q-38.5 -166 -49.5 -230 q0 -3 -4.5 -25 q-4.5 -22 -6 -29.5 q-1.5 -7.5 -4.5 -30.5 q-3 -23 -4 -34.5 q-1 -11.5 -2 -33 q-1 -21.5 0.5 -34 q1.5 -12.5 4.5 -30.5 q3 -18 8.5 -29.5 q5.5 -11.5 14.5 -24 q9 -12.5 20 -20.5 q40 -35 108 -18 q2 0 11.5 3 q9.5 3 15.5 3 q67 25 140 87.5 q73 62.5 116 117.5 q8 13 26 20 q5 33 15.5 109.5 q10.5 76.5 16.5 118.5 q6 42 16.5 105 q10.5 63 22 117.5 q11.5 54.5 24.5 106.5 q14 53 53 50 q33 -2 51 -38 q15 -31 6 -65 q-15 -60 -29 -133.5 q-14 -73.5 -21.5 -122 q-7.5 -48.5 -21 -140.5 q-13.5 -92 -18.5 -128 q11 -19 -6 -47 q-40 -231 -61 -309 q-14 -52 -53 -50 q-33 2 -52 38 q-16 31 -6 65 q3 18 11 53.5 q8 35.5 11 50.5 q-73 -57 -151 -90 q-1 -2 -6 -3.5 q-5 -1.5 -6 -2.5 q-1 -40 -4.5 -84.5 q-3.5 -44.5 -7 -78 q-3.5 -33.5 -11 -84.5 q-7.5 -51 -12 -76.5 q-4.5 -25.5 -14.5 -84.5 q-10 -59 -13 -79 q-9 -40 -62 -61 q-52 -20 -82 1 q-19 13 -14 39 q54 308 60 467 q-78 -7 -127 23 q-143 72 -125 282 Z" /><glyph glyph-name="afii10050" unicode="&#x490;" d="M86 12 q110 388 181.5 693.5 q71.5 305.5 107.5 603.5 q-34 23 -25 57 q8 34 43 43 q17 35 51.5 37.5 q34.5 2.5 51.5 -27.5 q306 0 462 8 q8 24 20 69 q12 45 20.5 73 q8.5 28 26.5 64 q18 36 42 63 q29 31 68 26.5 q39 -4.5 49 -33.5 q10 -29 -19 -69 q-6 -6 -11.5 -13.5 q-5.5 -7.5 -9.5 -17 q-4 -9.5 -7 -16.5 q-3 -7 -6 -19.5 q-3 -12.5 -4 -17.5 q-1 -5 -3.5 -19.5 q-2.5 -14.5 -3.5 -17.5 q-21 -75 -30 -100 q15 -25 -1.5 -52.5 q-16.5 -27.5 -58.5 -31.5 l-10 0 q-12 -6 -37 -6 l-12 0 q-178 -9 -479 -9 q-66 -550 -291 -1333 q-15 -46 -48.5 -52 q-33.5 -6 -56 24.5 q-22.5 30.5 -10.5 72.5 Z" /><glyph glyph-name="afii10098" unicode="&#x491;" d="M86 137 q27 88 46 179 q19 91 30.5 201 q11.5 110 17 176.5 q5.5 66.5 13.5 197.5 q0 44 34 53 q31 9 49 0 q30 20 37 21 q45 16 93.5 22 q48.5 6 126.5 7.5 q78 1.5 98 2.5 q0 75 12 127 q1 5 3 18.5 q2 13.5 4 20 q2 6.5 5 17 q3 10.5 7.5 19 q4.5 8.5 11.5 15.5 q25 34 79 25 q48 -7 63 -38 q10 -23 -9 -48 q3 4 4 5 q-4 -6 -4 -9 q-4 -12 -6 -16 q-6 -42 -6 -46 q-5 -33 -9 -110 q0 -23 -17 -37.5 q-17 -14.5 -42 -17.5 q-12 -24 -34 -39.5 q-22 -15.5 -48 -16.5 q-42 -7 -150 -8 q-108 -1 -163 -16 q0 -17 -2 -27 q-5 -26 -19 -43 q-17 -225 -39.5 -391 q-22.5 -166 -68.5 -322 q-18 -53 -60 -35 q-35 14 -52 58 q-12 30 -5 55 Z" /><glyph glyph-name="uni2000" unicode="&#x2000;" d="" /><glyph glyph-name="uni2001" unicode="&#x2001;" d="" /><glyph glyph-name="uni2002" unicode="&#x2002;" d="" /><glyph glyph-name="uni2003" unicode="&#x2003;" d="" /><glyph glyph-name="uni2004" unicode="&#x2004;" d="" /><glyph glyph-name="uni2005" unicode="&#x2005;" d="" /><glyph glyph-name="uni2006" unicode="&#x2006;" d="" /><glyph glyph-name="uni2007" unicode="&#x2007;" d="" /><glyph glyph-name="uni2008" unicode="&#x2008;" d="" /><glyph glyph-name="uni2009" unicode="&#x2009;" d="" /><glyph glyph-name="uni200A" unicode="&#x200a;" d="" /><glyph glyph-name="uni2010" unicode="&#x2010;" d="M42 576 q-1 38 36 72 q27 24 55 24 l488 0 q48 0 48 -39 q1 -38 -36 -72 q-27 -24 -55 -24 l-488 0 q-48 0 -48 39 Z" /><glyph glyph-name="uni2011" unicode="&#x2011;" d="M42 576 q-1 38 36 72 q27 24 55 24 l488 0 q48 0 48 -39 q1 -38 -36 -72 q-27 -24 -55 -24 l-488 0 q-48 0 -48 39 Z" /><glyph glyph-name="figuredash" unicode="&#x2012;" d="M42 576 q-1 38 36 72 q27 24 55 24 l488 0 q48 0 48 -39 q1 -38 -36 -72 q-27 -24 -55 -24 l-488 0 q-48 0 -48 39 Z" /><glyph glyph-name="Eth" unicode="&#x2013;" d="M96 540.5 q-21 36.5 -11.5 78 q9.5 41.5 44.5 49.5 q86 16 190.5 23 q104.5 7 171.5 7 q67 0 197.5 -3 q130.5 -3 177.5 -3 q23 0 38 -16 q15 -16 17.5 -39 q2.5 -23 -2 -46.5 q-4.5 -23.5 -21.5 -39.5 q-17 -16 -40 -16 q-53 0 -172 2 q-119 2 -186 2 q-67 0 -165 -7 q-98 -7 -179 -22 q-39 -6 -60 30.5 Z" /><glyph glyph-name="Ntilde" unicode="&#x2014;" d="M82 610 q-4 38 28 71 q23 24 52 24 q156 0 624 -17 q468 -17 723 -6 q52 3 57 -40 q4 -39 -28 -73 q-24 -23 -51 -24 q-260 -14 -732.5 4 q-472.5 18 -615.5 18 q-52 0 -57 43 Z" /><glyph glyph-name="Ocircumflex" unicode="&#x2018;" d="M129.5 1192 q-6.5 14 -5.5 38.5 q1 24.5 1 38.5 q0 14 6.5 42.5 q6.5 28.5 8.5 39 q2 10.5 10.5 39.5 q8.5 29 9.5 33 q11 38 63 53 q52 15 76 -9 q16 -15 8 -44 q-1 -4 -14 -46.5 q-13 -42.5 -17 -65.5 q-4 -44 -2 -62 q1 -4 2 -8 q28 -6 38.5 -29.5 q10.5 -23.5 -3.5 -46.5 q-13 -26 -42.5 -38.5 q-29.5 -12.5 -59.5 -6.5 q-22 5 -38.5 15 q-16.5 10 -25.5 26.5 q-9 16.5 -15.5 30.5 Z" /><glyph glyph-name="Otilde" unicode="&#x2019;" d="M166 1354 q-28 6 -38.5 29.5 q-10.5 23.5 3.5 46.5 q13 26 42.5 38.5 q29.5 12.5 59.5 6.5 q36 -9 56.5 -33.5 q20.5 -24.5 26.5 -49.5 q6 -25 1 -69 q-5 -44 -10.5 -65.5 q-5.5 -21.5 -17.5 -64.5 q-1 -5 -2 -8 q-1 -3 -2 -7 q-1 -4 -2 -7 q-11 -37 -63 -53 q-51 -15 -76 8 q-17 17 -9 45 q1 3 14 46.5 q13 43.5 17 66.5 q4 44 2 62 q-1 4 -2 8 Z" /><glyph glyph-name="acircumflex" unicode="&#x201a;" d="M-35 74 q-21 60 30.5 99.5 q51.5 39.5 110.5 21.5 q74 -20 106 -68.5 q32 -48.5 24 -107.5 q-8 -59 -37 -117 q-29 -58 -72 -103 q-34 -32 -85 -22 q-43 8 -49 38 q-4 23 21 50 q33 33 55.5 75 q22.5 42 18.5 80 l0 5 q-32 -15 -72 -1 q-40 14 -51 50 Z" /><glyph glyph-name="Ograve" unicode="&#x201c;" d="M133 1206.5 q-16 58.5 -3 117 q13 58.5 40 108.5 q21 38 73 39 q48 1 63 -29 q11 -21 -5 -51 l0 -2 q-3 -2 -6 -13 q-6 -18 -8 -22 q-1 -8 -5.5 -23.5 q-4.5 -15.5 -5.5 -23.5 q0 -22 1 -33.5 q1 -11.5 9.5 -25 q8.5 -13.5 24.5 -19.5 q15 -8 18.5 -25.5 q3.5 -17.5 -2 -34.5 q-5.5 -17 -16.5 -30 q-48 -44 -108 -15 q-54 24 -70 82.5 ZM401.5 1192 q-6.5 14 -5.5 38.5 q1 24.5 1 38.5 q0 14 6.5 42.5 q6.5 28.5 8.5 39 q2 10.5 10.5 39.5 q8.5 29 9.5 33 q11 37 63 53 q51 15 76 -8 q17 -17 9 -45 q-1 -4 -14 -46.5 q-13 -42.5 -17 -65.5 q-4 -44 -2 -62 q1 -4 3 -8 l-1 0 q28 -6 38.5 -29.5 q10.5 -23.5 -3.5 -46.5 q-13 -26 -43 -38.5 q-30 -12.5 -60 -6.5 q-22 5 -38.5 15 q-16.5 10 -25.5 26.5 q-9 16.5 -15.5 30.5 Z" /><glyph glyph-name="Oacute" unicode="&#x201d;" d="M166 1354 q-28 6 -38.5 29.5 q-10.5 23.5 3.5 46.5 q13 26 42.5 38.5 q29.5 12.5 59.5 6.5 q36 -9 56.5 -33.5 q20.5 -24.5 26.5 -49.5 q6 -25 1 -69 q-5 -44 -10.5 -65.5 q-5.5 -21.5 -17.5 -64.5 q-1 -5 -2 -8 q-1 -3 -2 -7 q-1 -4 -2 -7 q-11 -37 -63 -53 q-51 -15 -76 8 q-17 17 -9 45 q1 3 14 46.5 q13 43.5 17 66.5 q4 44 2 62 q-1 4 -2 8 ZM403 1366 q-15 8 -18.5 25.5 q-3.5 17.5 2 34.5 q5.5 17 16.5 30 q22 20 51.5 24 q29.5 4 57.5 -10 q41 -18 61 -56 q20 -38 18 -83.5 q-2 -45.5 -14 -88.5 q-12 -43 -32 -79 q-21 -38 -73 -39 q-48 -1 -63 29 q-11 21 5 51 l0 2 q3 2 6 13 q6 18 8 22 q1 8 5 23.5 q4 15.5 5 23.5 q0 22 -1 33.5 q-1 11.5 -9.5 25 q-8.5 13.5 -24.5 19.5 Z" /><glyph glyph-name="atilde" unicode="&#x201e;" d="M-4 -178 q-25 8 -33.5 31.5 q-8.5 23.5 4.5 46.5 q54 58 66 96 q7 26 1.5 39 q-5.5 13 -28.5 33 q-13 14 -9.5 31.5 q3.5 17.5 14.5 32 q11 14.5 24 22.5 q56 37 106 -4 q30 -25 41 -56.5 q11 -31.5 8.5 -57.5 q-2.5 -26 -20 -62 q-17.5 -36 -31.5 -57.5 q-14 -21.5 -39 -55.5 q-18 -27 -46.5 -38 q-28.5 -11 -57.5 -1 ZM285 -156 q-13 27 -9.5 57 q3.5 30 21.5 54 q20 20 45 65 q-8 4 -18 17 q-7 9 -11 29 q-14 41 11 79.5 q25 38.5 67 24.5 q36 -12 55 -43.5 q19 -31.5 19 -67 q0 -35.5 -8 -71.5 q-27 -84 -90 -154 q-19 -21 -43.5 -17.5 q-24.5 3.5 -38.5 27.5 Z" /><glyph glyph-name="yen" unicode="&#x2022;" d="M193.5 572 q-25.5 42 -27.5 84.5 q-2 42.5 10 86.5 q-9 67 30 120.5 q39 53.5 107 74.5 q77 26 159 11.5 q82 -14.5 144 -68.5 q75 -59 79.5 -155 q4.5 -96 -58.5 -167 q-64 -79 -175 -97 q-111 -18 -198 40 q-45 28 -70.5 70 Z" /><glyph glyph-name="Eacute" unicode="&#x2026;" d="M-26 3 q-15 16 -15 36 q0 20 10 53 q8 28 58 58 q28 11 47 20 q35 21 71 10 q23 -16 23 -57 q0 -28 -31 -72 l-8 -16 q0 -2 -8 -10 l0 -5 l-2 -2 q-2 -2 -4 -5 q-2 -3 -4 -5 q-46 -40 -86 -24 l-15 0 q-21 3 -36 19 ZM444 41 q-14 26 -9.5 61 q4.5 35 30.5 54 q37 26 90 26 l25 0 l2 0 q58 20 88 -6 q15 -12 19 -29 q4 -17 -5 -32 q-20 -36 -37 -49 q-9 -9 -10 -11 q-5 -18 -25 -30 q-15 -20 -41.5 -29.5 q-26.5 -9.5 -52.5 -3.5 q-27 4 -39 20 q-26 11 -35 29 ZM963 86 q7 18 14 27 q-4 -4 -4 -9 q0 2 2 6 q2 4 2 5 q1 5 16 20 q26 26 72 41 q13 4 31 -7 q18 -11 26 -24 q17 -35 13 -59 q0 -68 -33 -92 q-4 -5 -37 -27 q-31 -22 -59 -3 q-28 19 -35 56 q-17 35 -8 66 Z" /><glyph glyph-name="uni202F" unicode="&#x202f;" d="" /><glyph glyph-name="Udieresis" unicode="&#x2039;" d="M55 606 q-10 13 -13.5 30 q-3.5 17 13.5 32 q79 77 188 145.5 q109 68.5 203.5 112.5 q94.5 44 212.5 106.5 q118 62.5 201 120.5 q38 27 87 5 q40 -19 42 -50 q1 -25 -28 -45 q-74 -55 -178 -110 q-104 -55 -190 -94 q-86 -39 -187.5 -96 q-101.5 -57 -174.5 -118 q101 -55 302.5 -136 q201.5 -81 283.5 -122 q48 -24 29 -64 q-16 -33 -57 -43 q-31 -8 -58 5 q-79 40 -308.5 134 q-229.5 94 -342.5 165 q-15 9 -25 22 Z" /><glyph glyph-name="Yacute" unicode="&#x203a;" d="M43 345 q7 24 37 40 q106 53 225 104 q119 51 272.5 112.5 q153.5 61.5 227.5 92.5 q-118 51 -327 155 q-209 104 -290 142 q-47 22 -33 63 q12 34 50 47 q32 11 61 -3 q82 -38 230.5 -113 q148.5 -75 272 -132.5 q123.5 -57.5 237.5 -100.5 q21 -7 31.5 -27 q10.5 -20 3.5 -42 q-7 -22 -35 -34 q-107 -48 -399 -165 q-292 -117 -447 -195 q-43 -23 -86 3 q-37 22 -31 53 Z" /><glyph glyph-name="uni205F" unicode="&#x205f;" d="" /><glyph glyph-name="Ucircumflex" unicode="&#x20ac;" d="M1 520 q-3 40 32 73 q25 25 55 25 l154 0 q8 75 20 123 q-10 -1 -29.5 -1.5 q-19.5 -0.5 -35 -1.5 q-15.5 -1 -29.5 -3 q-43 -2 -67 48 q-22 48 -4 84 q11 25 38 26 q26 2 56.5 3 q30.5 1 66.5 1.5 q36 0.5 55 1.5 q9 21 17 37 q48 109 118 205.5 q70 96.5 161 176 q91 79.5 196 124 q105 44.5 222 48.5 q117 4 239 -50 q35 -16 37 -60.5 q2 -44.5 -24 -76.5 q-26 -32 -60 -17 q-3 2 -13 6 q-126 48 -239 37.5 q-113 -10.5 -212.5 -72.5 q-99.5 -62 -176 -152 q-76.5 -90 -129.5 -202 q253 6 538 -10 q35 -2 51.5 -42 q16.5 -40 2 -79 q-14.5 -39 -53.5 -37 q-232 14 -600 10 q-16 -46 -27 -127 l498 0 q52 0 55 -42 q2 -39 -32 -72 q-26 -25 -56 -25 l-469 0 q7 -127 72 -215 q151 -205 541 -137 q44 7 53 -38 q8 -46 -21 -88 q-20 -27 -45 -32 q-234 -37 -381 6 q-88 27 -154 78.5 q-66 51.5 -105 119 q-39 67.5 -58.5 144 q-19.5 76.5 -21.5 162.5 l-183 0 q-48 0 -52 41 Z" /><glyph glyph-name="ordfeminine" unicode="&#x2122;" d="M43 1332 q1 35 43 71 q35 31 68 29 q23 0 97 -0.5 q74 -0.5 109 0 q35 0.5 95 2.5 q60 2 110.5 7 q50.5 5 100.5 13 q53 7 54 -31 q2 -36 -35 -71 q-25 -23 -54 -29 q-36 -6 -172 -16 q-36 -201 -84 -482 q-7 -40 -58 -57 q-51 -17 -83 5 q-22 16 -17 46 q40 222 84 481 l-217 0 q-43 0 -41 32 ZM729 807 q27 84 45.5 173 q18.5 89 36.5 213.5 q18 124.5 27 172.5 q7 36 45.5 56 q38.5 20 74.5 14 q36 -6 37 -35 q14 -9 21 -29 q27 -65 96.5 -174.5 q69.5 -109.5 93.5 -157.5 q185 223 361 408 q30 29 53 18 q23 -11 33 -47 q11 -7 18 -30 q10 -78 -4 -175.5 q-14 -97.5 -34.5 -203.5 q-20.5 -106 -22.5 -179 q0 -41 -52 -75 q-49 -33 -80 -21 q-19 8 -18 33 q0 80 27.5 229.5 q27.5 149.5 32.5 206.5 q-173 -188 -306 -358 q-22 -22 -47 -16.5 q-25 5.5 -39 26.5 q-13 30 -8 59 q-17 43 -42 87 q-25 44 -61.5 101 q-36.5 57 -51.5 83 q-39 -257 -84 -389 q-12 -40 -66 -52 q-51 -11 -77 14 q-19 18 -9 48 Z" /><glyph glyph-name="uniE000" unicode="&#xe000;" d="M0 0 l0 1065 l1065 0 l0 -1065 l-1065 0 Z" /></font>
</defs>
</svg>
